<svg xmlns="http://www.w3.org/2000/svg" width="256" height="256"><path fill="#1976D2" fill-opacity=".016" fill-rule="evenodd" d="M0 128.004v128.004l128.25-.254 128.25-.254.254-127.75L257.008 0H0zm.485.496c0 70.4.119 99.053.265 63.672s.146-92.98 0-128S.485 58.1.485 128.5"/><path fill="#1976D2" fill-opacity=".259" fill-rule="evenodd" d="M39.615 22.621c-7.179 2.231-14.959 10.313-17.135 17.801-2.541 8.74-2.631 8.681 12.75 8.357L48.5 48.5V35c0-15.436.173-15.195-8.885-12.379M55 35v14h119V21H55zm125.436-12.695c-.275.718-.374 6.906-.218 13.75L180.5 48.5h54l.278-13.75.278-13.75h-27.059c-21.339 0-27.166.276-27.561 1.305M80 30.417c0 1.329-.562 2.643-1.25 2.921-1 .403-1 .52 0 .583.747.047 1.25 1.488 1.25 3.579 0 3.059-.312 3.5-2.481 3.5-3.34 0-4.72-4.649-1.975-6.656 1.011-.739 1.392-1.344.847-1.344C74.722 33 73 35.286 73 37.5c0 2.883 1.869 4.5 5.2 4.5 2.8 0 2.8 0 2.8-7 0-3.85-.225-7-.5-7s-.5 1.087-.5 2.417m58 3.81c0 6.049.757 7.787 3.357 7.71 2.119-.063 2.118-.074-.107-.968-1.64-.659-2.25-1.727-2.25-3.937 0-2.454.429-3.047 2.25-3.111 1.454-.051 1.719-.268.75-.615-.825-.295-2.062-1.245-2.75-2.112-1.047-1.321-1.25-.828-1.25 3.033M63.286 37.5c.008 2.75.202 3.756.432 2.236s.223-3.77-.014-5-.425.014-.418 2.764m27.187-3.456C89.666 35.349 91.777 38 93.622 38c2.59 0 1.392 2.865-1.372 3.284l-2.75.416 2.781.15c5.023.271 4.554-4.068-.673-6.238-.72-.299-.583-.831.392-1.521.923-.652 1.042-1.066.309-1.076-.655-.008-1.481.455-1.836 1.029m18.132-.279c.607.404 1.139 2.197 1.183 3.985.062 2.573-.324 3.25-1.855 3.25-2.138 0-2.658-2.541-.683-3.338.721-.291.481-.537-.57-.583-3.204-.139-1.713 4.36 1.57 4.737 2.645.305 2.75.142 2.75-4.25 0-3.688-.337-4.563-1.75-4.551-1.084.01-1.329.295-.645.75m12.563 3.985c.167 4.705.172 4.712.575.763.223-2.193.935-4.323 1.581-4.735.778-.494.583-.753-.574-.763-1.447-.012-1.721.809-1.582 4.735m4.508-4.063c.646.461 1.373 2.633 1.616 4.826.438 3.957.44 3.954.325-.435-.08-3.013-.595-4.551-1.617-4.826-1.031-.278-1.132-.142-.324.435m26.403 4.063c.087 5.228.572 4.805 1.148-1 .204-2.062.012-3.75-.428-3.75-.439 0-.763 2.138-.72 4.75m13.207-.25c.008 2.75.202 3.756.432 2.236s.223-3.77-.014-5-.425.014-.418 2.764M21 145v90h28V55H21zm51.054-88.272c-2.531.893-6.445 3.568-9.083 6.206C54.607 71.298 55 66.702 55 156.201v78.845l80.25-.273c80.141-.273 80.255-.276 84.25-2.438 4.743-2.568 10.548-8.459 13.14-13.335 1.61-3.029 1.903-6.349 2.18-24.684l.321-21.183-27.171-22.603-27.17-22.602-5.15 4.365C106.588 190.825 58.82 230.965 60 229.474c2.091-2.641 117.927-138.651 119.562-140.384 1.135-1.204 4.528.027 23.134 8.393a19285 19285 0 0 0 27.054 12.148l5.25 2.344V55l-79.25.079c-69.321.069-79.807.276-83.696 1.649"/><path fill="#1976D2" fill-opacity=".381" fill-rule="evenodd" d="M55.667 21.667c-.367.366-.667 6.441-.667 13.5V48h119V21h-58.833c-32.359 0-59.134.3-59.5.667m-16.279 1.659C29.957 26.883 22 37.099 22 45.649 22 47.996 22.02 48 35 48h13V22l-2.75.076c-1.513.042-4.151.604-5.862 1.25M181 35v13h53V22h-53zM62.543 28.931c-.317.512-.118 1.213.441 1.559S64 30.416 64 29.559c0-1.757-.6-2.015-1.457-.628M79 30.559c0 1.415-.438 2.289-.979 1.954C76.104 31.328 73 34 73 36.835 73 40.355 74.656 42 78.2 42c2.8 0 2.8 0 2.8-7 0-4-.429-7-1-7-.55 0-1 1.152-1 2.559m86-1c0 .857.457 1.276 1.016.931.559-.346.758-1.047.441-1.559-.857-1.387-1.457-1.129-1.457.628m-26.798 5.691c.28 5.863.453 6.261 2.798 6.435 1.444.106 1.761-.03.75-.324-2.293-.665-2.52-7.361-.25-7.361.825 0 1.5-.45 1.5-1s-.675-1-1.5-1-1.5-.675-1.5-1.5-.471-1.5-1.048-1.5c-.65 0-.935 2.371-.75 6.25m-75.535-2.583C61.602 33.732 61.897 42 63 42c.55 0 1-2.25 1-5 0-5.07-.14-5.526-1.333-4.333m28.583-.005c-2.129.859-1.378 3.959 1.25 5.156 3.28 1.494 3.175 2.947-.25 3.466-2.606.395-2.583.424.441.566 1.755.083 3.444-.259 3.753-.76.917-1.483-.439-3.855-2.513-4.398-2.572-.672-2.476-2.692.128-2.692 1.132 0 1.781-.45 1.441-1-.652-1.055-2.173-1.176-4.25-.338M106 33c0 .55.9 1 2 1s2 .45 2 1-.589 1-1.309 1c-2.434 0-4.829 2.476-4.138 4.276.446 1.163 1.765 1.724 4.054 1.724 3.262 0 3.393-.147 3.393-3.8 0-2.09-.54-4.34-1.2-5-1.453-1.453-4.8-1.593-4.8-.2m15.667-.333c-1.065 1.065-.77 9.333.333 9.333.55 0 1-1.833 1-4.073 0-3.339.315-4.014 1.75-3.742 1.223.232 1.843 1.458 2.06 4.073.171 2.058.793 3.742 1.382 3.742 1.511 0 .303-8.071-1.366-9.129-1.601-1.015-4.244-1.12-5.159-.204m30.583-.005c-1.493.603-1.727 9.338-.25 9.338.55 0 1-1.8 1-4 0-3.333.333-4 2-4 1.1 0 2-.45 2-1 0-1.036-2.567-1.218-4.75-.338M165 36.941c0 2.782.45 5.059 1 5.059s1-1.998 1-4.441-.45-4.719-1-5.059c-.616-.381-1 1.323-1 4.441m-89.813.301c.206 2.135.91 3.355 2.063 3.573 1.402.266 1.75-.379 1.75-3.242C79 34.63 78.636 34 76.937 34c-1.725 0-2.012.532-1.75 3.242m31.063 2.008c.63 1.892 3.75 2.161 3.75.323 0-.927-.855-1.573-2.083-1.573-1.222 0-1.912.517-1.667 1.25m-84.789 17c-.263.688-.361 41.075-.219 89.75l.258 88.5 13.25.279 13.25.279V55H34.969c-9.505 0-13.161.338-13.508 1.25m55.039-.32c-5.477 1.325-10.411 4.229-14.074 8.283C55.052 72.376 55.5 66.5 55.5 155v79.5l76.973.256c85.131.284 83.221.41 91.7-6.058 2.678-2.042 5.445-5.509 7.317-9.167 3.008-5.878 3.01-5.898 3.345-25.965l.336-20.082-25.253-20.992c-13.889-11.546-26.232-21.616-27.43-22.38-2.068-1.317-5.267 1.228-63.583 50.61-33.773 28.599-61.55 51.878-61.728 51.731-.225-.185 101.955-120.612 122.784-144.711.36-.417 11.204 4.008 24.097 9.834s24.905 11.206 26.692 11.957l3.25 1.365V55l-77.25.102c-42.487.057-78.6.429-80.25.828"/><path fill="#1976D2" fill-opacity=".513" fill-rule="evenodd" d="M55 35v13h119V22H55zm24.639-7.306c-.351.352-.639 1.464-.639 2.473C79 31.326 78.273 32 77.023 32c-2.583 0-5.383 4.289-4.538 6.952.859 2.708 4.117 4.365 7.108 3.614C81.846 42.001 82 41.518 82 35.04c0-6.416-.8-8.906-2.361-7.346M62 29.5c0 .917.484 1.505 1.075 1.308s1.075-.785 1.075-1.308-.484-1.111-1.075-1.308S62 28.583 62 29.5m102.694-.861c-.799.799.104 2.361 1.365 2.361.518 0 .941-.675.941-1.5 0-1.546-1.18-1.987-2.306-.861M138 35.433c0 5.657.253 6.513 2.101 7.099 1.155.367 2.595.172 3.2-.433 1.082-1.082.931-1.226-1.551-1.474-.687-.069-1.388-1.553-1.558-3.298-.255-2.636.083-3.249 2-3.623l2.308-.45-2.25-.744c-1.238-.409-2.25-1.366-2.25-2.127S139.55 29 139 29c-.563 0-1 2.811-1 6.433M62.198 37.25c.38 6.611 2.201 6.445 2.604-.237C65.047 32.953 64.8 32 63.5 32c-1.307 0-1.549.972-1.302 5.25m28.469-4.583c-1.519 1.518-.489 4.366 2.083 5.761 2.689 1.459 2.537 1.763-.981 1.97-2.62.154-2.592 2.056.036 2.429 4.863.689 6.99-4.052 2.695-6.009C91.495 35.449 91.238 34 94 34c1.1 0 2-.45 2-1 0-1.112-4.286-1.38-5.333-.333M105 33c0 .55.873 1 1.941 1s2.219.45 2.559 1-.253 1-1.319 1-2.528.713-3.251 1.584c-1.892 2.28.08 4.916 3.679 4.916 2.629 0 2.92-.347 3.206-3.82.173-2.101-.22-4.463-.873-5.25C109.596 31.808 105 31.476 105 33m16 4.5c0 3.025.45 5.5 1 5.5s1-2.025 1-4.5c0-3.254.4-4.5 1.443-4.5.982 0 1.54 1.356 1.75 4.25.382 5.288 2.197 5.586 2.622.43.382-4.645-1.122-6.68-4.937-6.68-2.822 0-2.878.108-2.878 5.5m30.402-4.105c-.843 2.197-.01 9.105 1.098 9.105.55 0 1.138-1.913 1.307-4.25.21-2.894.768-4.25 1.75-4.25.794 0 1.443-.45 1.443-1 0-1.537-4.992-1.185-5.598.395m13 0c-.912 2.377.031 8.928 1.348 9.361.9.296 1.25-1.154 1.25-5.173 0-5.234-1.357-7.422-2.598-4.188m-88.735 1.272c-1.273 1.273-.658 5.122.915 5.726 2.381.914 2.418.87 2.418-2.893 0-3.294-1.553-4.614-3.333-2.833m30.876 4.264c-.317.512-.118 1.213.441 1.559 1.193.737 3.016-.199 3.016-1.549 0-1.217-2.707-1.225-3.457-.01M22 144.75V234h26V55.5H22zm96.709 36.507L56.917 233.5l77.292.293c56.373.214 78.374-.02 81.291-.865 7.647-2.214 14.706-9.062 17.345-16.827.72-2.121 1.155-10.868 1.155-23.253v-19.853l-26.481-21.998c-14.564-12.098-26.601-21.994-26.75-21.99-.148.004-28.075 23.516-62.06 52.25"/></svg>