<svg xmlns="http://www.w3.org/2000/svg" width="256" height="256"><path fill="#1976D2" fill-opacity=".016" fill-rule="evenodd" d="M0 128.004v128.004l128.25-.254 128.25-.254.254-127.75L257.008 0H0zm.485.496c0 70.4.119 99.053.265 63.672s.146-92.98 0-128S.485 58.1.485 128.5"/><path fill="#1976D2" fill-opacity=".279" fill-rule="evenodd" d="M106.608 61.522C92.974 65.265 78.944 75.97 71.724 88.136c-10.234 17.244-10.876 37.735-1.749 55.815 3.007 5.957 7.808 12.288 6.484 8.549-5.357-15.117-6.417-24.37-4.069-35.5 4.626-21.927 20.826-39.055 42.07-44.478 4.502-1.15 11.694-1.522 29.397-1.522h23.437l4.473-3.75a749 749 0 0 1 6.603-5.478c2.027-1.644.467-1.724-32.37-1.66-25.604.05-35.761.413-39.392 1.41M181 71.096l-10.5 9.874-24.645.015c-28.325.017-32.923.874-43.844 8.167-19.474 13.003-26.158 38.074-15.89 59.598l2.981 6.25h20.768c15.487 0 22.043-.379 25.785-1.49 5.166-1.534 13.345-6.754 13.345-8.516 0-.598-4.38-.994-11-.994-6.05 0-11-.372-11-.827s3.633-7.429 8.073-15.5L143.146 113h4.684c6.479 0 10.995-1.473 14.499-4.73 2.875-2.672 2.85-1.503-.04 1.874-1.213 1.417-1.175 2.439.273 7.42 5.209 17.918-4.331 37.833-21.36 44.591-5.349 2.123-7.44 2.286-33.758 2.634l-28.055.37-7.428 14.671c-4.085 8.068-7.611 15.12-7.837 15.67s4.352-3.613 10.171-9.25L84.875 176l21.812-.008c11.997-.004 24.738-.463 28.313-1.021 18.233-2.843 34.82-18.213 38.939-36.083 1.335-5.79 1.319-16.393-.032-21.388-2.209-8.163-6.096-15.509-8.53-16.12-1.284-.322-11.456-.413-22.606-.201-17.836.34-20.812.633-24.771 2.445-4.812 2.202-11 6.964-11 8.465 0 .501 5.141.911 11.425.911h11.424l-8.384 15.25-8.385 15.25-5.79.257c-8.353.372-10.257.996-13.442 4.406-3.438 3.681-3.783 2.518-.478-1.613 2.263-2.828 2.296-3.097.8-6.5-1.005-2.286-1.57-6.577-1.585-12.05-.031-11.039 3.17-18.586 11.038-26.028 9.797-9.266 10.518-9.426 43.89-9.776l29.014-.304 7.663-15.186c4.215-8.352 7.584-15.252 7.487-15.334s-4.902 4.294-10.677 9.724m.637 37.404c3.428 9.166 4.265 23.025 1.979 32.75-3.239 13.774-11.736 26.21-23.294 34.09-12.89 8.788-21.876 10.642-51.643 10.652L87.858 186l-5.416 4.75c-2.979 2.613-5.422 5.124-5.429 5.58s15.4.672 34.237.48c34.036-.348 34.295-.367 41.478-2.973 3.976-1.442 9.376-3.868 12-5.391 6.798-3.946 17.212-14.9 21.047-22.138 4.012-7.573 7.231-19.727 7.208-27.218-.037-11.675-5.137-27.097-11.44-34.59l-2.523-3z"/><path fill="#1976D2" fill-opacity=".353" fill-rule="evenodd" d="M110.5 61.022c-37.335 7.494-57.249 48.304-40.335 82.661 4.16 8.452 6.03 9.796 3.558 2.558-2.527-7.397-3.361-21.322-1.763-29.442 3.423-17.401 15.247-32.61 31.684-40.755 9.666-4.789 18.532-6.04 43.064-6.076l21.792-.032L174 65l5.5-4.936-32.5.077c-17.875.043-34.3.439-36.5.881m70.468 10.51L171.54 81l-23.52.015c-31.455.02-38.994 1.862-50.709 12.396-15.79 14.196-20.118 38.72-10.03 56.839l2.087 3.75 22.566-.01c21.617-.009 22.776-.109 27.566-2.367 2.75-1.297 6.091-3.543 7.424-4.991l2.425-2.632h-11.758c-6.467 0-11.608-.366-11.424-.814.183-.447 4.122-7.647 8.752-16L143.338 112h6.397c7.481 0 9.593-.875 14.083-5.835l3.318-3.665-2.054 4.182c-1.129 2.3-2.486 4.45-3.014 4.776-.583.36-.331 2.255.642 4.818.97 2.557 1.617 7.397 1.639 12.263.032 6.959-.384 8.938-3.092 14.725-3.755 8.024-10.144 14.551-18.039 18.428L137.5 164.5l-28.743.306-28.743.307-7.259 14.313-7.259 14.314 10.037-9.294 10.038-9.295 26.464-.357c30.337-.408 32.799-.945 44.219-9.644 17.487-13.32 23.129-36.736 13.725-56.967l-2.936-6.316-23.272.316-23.271.317-5.32 2.947c-2.927 1.621-5.755 3.759-6.286 4.75-.902 1.687-.252 1.803 10.071 1.803 6.069 0 11.028.338 11.018.75s-3.732 7.5-8.275 15.75l-8.258 15-6.975.513c-7.932.584-10.259 1.628-13.887 6.231-3.3 4.187-3.364 2.178-.084-2.655 2.47-3.64 2.482-3.756.893-8.614-1.1-3.362-1.498-7.4-1.254-12.722.661-14.434 9.556-27.17 22.655-32.438 5.391-2.168 7.23-2.311 33.715-2.61l28.014-.316 7.166-14.182c3.941-7.8 7.062-14.285 6.935-14.412s-4.474 4.029-9.66 9.237m1.751 39.477c4.65 13.779 3.128 30.874-3.953 44.378-4.588 8.751-15.542 19.469-24.512 23.986-11.512 5.796-16.666 6.594-42.754 6.621l-23 .024-5.887 5.039-5.888 5.039 35.388-.298c32.769-.276 35.803-.45 41.014-2.351 18.156-6.625 32.078-21.43 37.364-39.732 4.282-14.823.44-36.934-8.291-47.716-1.836-2.267-1.791-1.834.519 5.01"/><path fill="#1976D2" fill-opacity=".411" fill-rule="evenodd" d="M114.5 60.698c-11.579 1.535-23.704 7.411-32.271 15.638C70 88.078 64.757 100.173 64.6 117c-.111 11.996 2.143 20.885 7.483 29.5 1.704 2.75 2.77 4.1 2.367 3-3.819-10.443-4.858-24.587-2.533-34.5 4.844-20.657 22.709-38.636 43.186-43.463 4.719-1.112 12.444-1.511 29.457-1.522L167.62 70l5.44-4.616c2.992-2.538 5.627-4.788 5.857-5 .544-.502-60.505-.205-64.417.314m6.306 42.701c-4.649 1.251-6.113 2.084-10.642 6.054l-2.336 2.047 11.529.5 11.528.5-8.671 15.75-8.671 15.75-5.022.006c-7.957.008-12.031 1.587-15.545 6.024L89.832 154h20.925c15.165 0 22.22-.39 25.629-1.416 4.801-1.445 11.614-5.923 11.614-7.635 0-.541-4.727-.949-11-.949-6.05 0-10.988-.338-10.973-.75s3.772-7.5 8.35-15.75l8.323-15 7.635-.549c6.702-.481 8.015-.909 10.736-3.5 6.94-6.605 7.29-6.459-15.286-6.384-12.993.044-21.972.522-24.979 1.332M182 107.374c0 .206.746 2.344 1.657 4.75 2.725 7.197 2.438 24.559-.557 33.704-4.632 14.138-15.216 26.832-27.954 33.526-11.379 5.979-15.616 6.646-42.241 6.646H89.23l-5.771 4.75-5.77 4.75 30.405.281c35.479.329 40.624-.267 52.254-6.046 28.168-13.999 39.78-48.747 25.647-76.745-2.588-5.127-3.995-7.105-3.995-5.616"/></svg>