<svg xmlns="http://www.w3.org/2000/svg" width="256" height="256"><path fill="#1976D2" fill-opacity=".016" fill-rule="evenodd" d="M0 128.004v128.004l128.25-.254 128.25-.254.254-127.75L257.008 0H0zm.485.496c0 70.4.119 99.053.265 63.672s.146-92.98 0-128S.485 58.1.485 128.5"/><path fill="#1976D2" fill-opacity=".175" fill-rule="evenodd" d="M113.585 26.036c-41.576 6.559-74.492 36.109-85.252 76.535-2.316 8.702-2.643 11.844-2.643 25.429s.327 16.727 2.643 25.429c9.76 36.669 37.662 64.484 74.548 74.317 8.359 2.228 11.65 2.564 25.119 2.564s16.76-.336 25.119-2.564c36.886-9.833 64.788-37.648 74.548-74.317 2.316-8.702 2.643-11.844 2.643-25.429 0-13.469-.336-16.76-2.564-25.119-12.005-45.035-50.355-75.868-96.246-77.382-6.6-.218-14.662.024-17.915.537M109 30.433c-20.104 4.213-36.766 13.181-51.076 27.491C45.301 70.547 36.559 85.644 31.82 103c-1.99 7.29-2.32 10.849-2.32 25s.33 17.71 2.32 25c4.739 17.356 13.481 32.453 26.104 45.076S85.644 219.441 103 224.18c7.29 1.99 10.849 2.32 25 2.32s17.71-.33 25-2.32c17.356-4.739 32.453-13.481 45.076-26.104s21.365-27.72 26.104-45.076c1.99-7.29 2.32-10.849 2.32-25s-.33-17.71-2.32-25c-4.739-17.356-13.481-32.453-26.104-45.076-12.486-12.486-27.683-21.339-44.576-25.967-10.182-2.789-34.489-3.622-44.5-1.524M78.5 66.498c-5.128 1.82-11.059 8.151-12.44 13.279-.723 2.685-.992 21.571-.819 57.363l.259 53.36h111l4.511-2.652c2.778-1.634 5.466-4.321 7-7 2.288-3.997 2.513-5.519 2.782-18.848l.292-14.5-19.111-15.694-19.11-15.694-36.182 30.61a65671 65671 0 0 0-42.167 35.694L68.53 187.5l7.598-9c29.145-34.52 75.159-88.158 76.281-88.921.937-.636 6.941 1.601 19.456 7.25 9.955 4.494 18.343 8.171 18.639 8.171s.416-8.887.267-19.75L190.5 65.5l-54-.211c-44.494-.173-54.704.04-58 1.209"/><path fill="#1976D2" fill-opacity=".449" fill-rule="evenodd" d="M118.22 26.104c-43.847 4.072-81.374 37.454-90.359 80.378-2.546 12.163-2.546 30.873 0 43.036 3.676 17.562 12.434 34.315 24.825 47.487 10.167 10.808 18.504 17.049 30.814 23.069 28.028 13.707 60.972 13.707 89 0 28.49-13.932 49.314-40.34 55.639-70.556 2.546-12.163 2.546-30.873 0-43.036-4.798-22.923-19.035-45.281-38.242-60.061-19.851-15.275-46.039-22.699-71.677-20.317m-2.72 3.038c-21.778 2.766-40.336 11.824-56.735 27.691C23.681 90.78 18.294 144.328 45.94 184.319c6.068 8.777 18.104 20.676 26.938 26.631 28.136 18.963 65.715 21.925 96.677 7.62 25.759-11.902 46.897-36.576 54.339-63.429 9.888-35.682-.136-72.644-26.659-98.308-16.864-16.316-34.95-24.953-58.209-27.797-9.608-1.175-13.584-1.157-23.526.106m-39 38.739c-4.758 2.185-6.89 4.415-8.962 9.373C66.218 80.415 66 88.656 66 135.468V190h55.266c61.999 0 58.89.355 65.209-7.445l3.025-3.734.316-15.707.316-15.708-18.282-15.203C161.795 123.841 153.294 117 152.959 117s-17.45 14.244-38.034 31.653a43344 43344 0 0 1-42.895 36.25c-7.565 6.357-7.158 5.854 38.47-47.503 22-25.726 40.488-47.426 41.085-48.222.913-1.217 3.973-.153 19.236 6.687 9.983 4.474 18.382 8.135 18.665 8.135s.514-8.55.514-19V66l-54.75.022c-50.983.02-55.025.148-58.75 1.859"/><path fill="#1976D2" fill-opacity=".509" fill-rule="evenodd" d="M109.74 27.516c-20.859 3.95-38.321 13.109-53.33 27.972-21.184 20.979-31.472 47.32-30.079 77.012.866 18.448 4.924 32.183 14.169 47.958 13.67 23.325 37.911 40.924 65 47.191 11.11 2.57 33.89 2.57 45 0 38.268-8.853 68.296-38.881 77.149-77.149 2.57-11.11 2.57-33.89 0-45-8.692-37.57-37.899-67.365-75.123-76.636-10.784-2.686-32.161-3.36-42.786-1.348m.76 1.951c-39.228 7.207-70.317 36.735-80.196 76.17-2.402 9.588-2.402 35.138 0 44.726C41.817 196.319 81.631 227.93 128 227.93s86.183-31.611 97.696-77.567c2.402-9.588 2.402-35.138 0-44.726-9.938-39.669-41.108-69.11-80.696-76.22-9.317-1.674-25.246-1.651-34.5.05m-.663 123.844L67.173 189.5l54.08.259c53.401.255 54.135.232 58.479-1.871 2.653-1.285 5.466-3.739 7.084-6.181 2.573-3.884 2.696-4.675 2.968-19.129l.284-15.078-18.211-15c-10.016-8.25-18.469-15.085-18.784-15.189-.315-.105-19.771 16.095-43.236 36"/></svg>