<svg xmlns="http://www.w3.org/2000/svg" width="256" height="256"><path fill="#1976D2" fill-opacity=".016" fill-rule="evenodd" d="M0 128.004v128.004l128.25-.254 128.25-.254.254-127.75L257.008 0H0zm.485.496c0 70.4.119 99.053.265 63.672s.146-92.98 0-128S.485 58.1.485 128.5"/><path fill="#1976D2" fill-opacity=".179" fill-rule="evenodd" d="M115.269 25.996c-30.252 4.267-56.506 20.803-73.157 46.077-22.365 33.95-22.365 77.904 0 111.854 31.42 47.692 94.629 61.046 141.815 29.961 35.671-23.5 53.179-65.551 44.541-106.981-8.228-39.467-39.986-71.102-79.781-79.473-8.887-1.869-25.341-2.577-33.418-1.438m-5.42 4.502c-62.371 11.827-97.474 77.694-72.886 136.759 9.176 22.042 29.738 42.604 51.78 51.78 14.667 6.106 21.117 7.306 39.257 7.306 13.7 0 17.802-.358 24.175-2.112 36.36-10.002 62.054-35.696 72.056-72.056 3.06-11.122 3.06-37.228 0-48.35-10.006-36.374-36.158-62.495-72.056-71.971-10.211-2.696-31.641-3.382-42.326-1.356m-3.241 31.024C92.974 65.265 78.944 75.97 71.724 88.136c-10.27 17.305-10.908 37.672-1.749 55.815 3.007 5.957 7.808 12.288 6.484 8.549-5.357-15.117-6.417-24.37-4.069-35.5 4.604-21.827 20.942-39.101 42.07-44.482C118.954 71.373 126.186 71 143.857 71h23.437l4.473-3.75a749 749 0 0 1 6.603-5.478c2.027-1.644.467-1.724-32.37-1.66-25.604.05-35.761.413-39.392 1.41M181 71.078l-10.5 9.868-24.5.039c-26.645.042-30.746.618-40.15 5.636-2.942 1.571-7.903 5.425-11.024 8.565-14.026 14.113-17.549 36.043-8.651 53.848L89.156 155h20.741c15.463 0 22.017-.379 25.758-1.49 5.166-1.534 13.345-6.754 13.345-8.516 0-.598-4.38-.994-11-.994-6.05 0-11-.372-11-.827s3.633-7.429 8.073-15.5L143.146 113h4.684c6.479 0 10.995-1.473 14.499-4.73 2.875-2.672 2.85-1.503-.04 1.874-1.213 1.417-1.175 2.439.273 7.42 4.799 16.509-3.009 35.29-17.768 42.735-7.977 4.024-13.81 4.7-40.68 4.712l-24.614.011-7.5 14.672c-4.125 8.069-7.681 15.151-7.903 15.738-.222.588 4.397-3.545 10.264-9.182L85.028 176l21.736-.008c25.715-.008 32.366-.88 41.797-5.474 16.099-7.844 26.449-24.475 26.433-42.478-.009-10.93-5.292-25.575-9.617-26.66-1.284-.322-11.456-.413-22.606-.201-18.472.352-20.715.587-25.271 2.657-4.849 2.203-10.5 6.697-10.5 8.351 0 .447 5.141.813 11.425.813h11.424l-8.384 15.25-8.385 15.25-5.79.257c-8.402.374-10.253.994-13.589 4.55l-2.995 3.193 1.64-3.187c.902-1.752 2.066-3.45 2.587-3.771.559-.346.277-2.113-.689-4.314-1.084-2.472-1.643-6.592-1.659-12.228-.031-11.039 3.17-18.586 11.038-26.028 9.797-9.266 10.518-9.426 43.89-9.776l29.014-.304 7.663-15.186c4.215-8.352 7.584-15.255 7.487-15.341S186.775 65.65 181 71.078m.59 37.408c8.885 24.147-.113 52.431-21.268 66.854-12.868 8.773-21.873 10.611-52.139 10.64l-20.317.02-5.433 4.691c-2.988 2.58-5.433 5.091-5.433 5.58 0 .509 14.625.718 34.25.489 37.598-.44 38.906-.621 51.25-7.1 7.798-4.093 19.089-15.417 23.28-23.346 4.01-7.588 7.226-19.742 7.203-27.224-.037-11.876-5.021-26.939-11.444-34.59l-2.519-3z"/><path fill="#1976D2" fill-opacity=".427" fill-rule="evenodd" d="M107 27.948c-19.981 4.247-36.235 13.155-51.066 27.986C35.915 75.953 26.026 99.78 26.026 128s9.889 52.047 29.908 72.066S99.78 229.974 128 229.974s52.047-9.889 72.066-29.908S229.974 156.22 229.974 128s-9.889-52.047-29.908-72.066c-15.001-15.002-31.214-23.818-51.566-28.04-11.766-2.442-29.873-2.418-41.5.054m10.687 1.134c-33.741 3.603-63.656 24.315-78.56 54.395C9.935 142.388 44.536 212.799 109 225.666c9.621 1.92 28.379 1.92 38 0 36.549-7.295 66.087-34.331 76.404-69.932 12.444-42.942-5.485-89.219-43.672-112.719-17.722-10.907-41.138-16.165-62.045-13.933m-7.187 31.94c-37.405 7.508-57.276 48.249-40.326 82.679 4.153 8.436 6.019 9.772 3.549 2.54-2.527-7.397-3.361-21.322-1.763-29.442 3.427-17.419 15.14-32.493 31.592-40.655 9.863-4.894 18.57-6.14 43.156-6.176l21.792-.032L174 65l5.5-4.936-32.5.077c-17.875.043-34.3.439-36.5.881m70.468 10.51L171.54 81l-23.52.015c-25.595.016-31.911.869-41.172 5.562-6.341 3.213-13.767 10.064-17.912 16.523-8.593 13.39-9.296 33.426-1.655 47.15l2.087 3.75 22.566-.01c21.617-.009 22.776-.109 27.566-2.367 2.75-1.297 6.091-3.543 7.424-4.991l2.425-2.632h-11.758c-6.467 0-11.608-.35-11.424-.778.183-.428 4.094-7.628 8.692-16L143.218 112h6.457c7.542 0 9.647-.869 14.143-5.835l3.318-3.665-2.054 4.182c-1.129 2.3-2.486 4.45-3.014 4.776-.583.36-.331 2.255.642 4.818.97 2.557 1.617 7.397 1.639 12.263.032 6.959-.384 8.938-3.092 14.725-3.755 8.024-10.146 14.553-18.04 18.429L137.5 164.5l-28.743.306-28.743.307-7.259 14.313-7.259 14.314 10.037-9.294 10.038-9.295 26.464-.357c30.337-.408 32.799-.945 44.219-9.644 17.462-13.3 23.128-36.737 13.756-56.9l-2.905-6.25-22.302.01c-21.379.009-22.51.108-27.303 2.379-2.75 1.303-6.116 3.437-7.48 4.74l-2.48 2.371 11.23.283c6.176.155 11.23.605 11.23 1-.001.394-3.713 7.467-8.25 15.717l-8.25 15-7 .513c-7.957.584-10.282 1.625-13.912 6.231-3.3 4.187-3.364 2.178-.084-2.655 2.47-3.64 2.482-3.756.893-8.614-1.1-3.362-1.498-7.4-1.254-12.722.661-14.434 9.556-27.17 22.655-32.438 5.391-2.168 7.23-2.311 33.715-2.61l28.014-.316 7.166-14.182c3.941-7.8 7.062-14.285 6.935-14.412s-4.474 4.029-9.66 9.237m1.751 39.477c4.65 13.779 3.128 30.874-3.953 44.378-4.588 8.751-15.542 19.469-24.512 23.986-11.512 5.796-16.666 6.594-42.754 6.621l-23 .024-5.887 5.039-5.888 5.039 35.388-.298c32.769-.276 35.803-.45 41.014-2.351 18.17-6.63 32.078-21.428 37.374-39.766 2.121-7.343 2.15-22.136.059-29.948-1.702-6.361-5.258-13.904-8.36-17.734-1.836-2.267-1.791-1.834.519 5.01"/><path fill="#1976D2" fill-opacity=".407" fill-rule="evenodd" d="M110.655 27.529C70.653 35.101 39.703 63.632 29.33 102.5c-2.347 8.794-2.669 11.869-2.669 25.5s.322 16.706 2.669 25.5a103.17 103.17 0 0 0 73.17 73.17c8.794 2.347 11.869 2.669 25.5 2.669s16.706-.322 25.5-2.669a103.17 103.17 0 0 0 73.17-73.17c2.347-8.794 2.669-11.869 2.669-25.5s-.322-16.706-2.669-25.5c-9.561-35.822-37.706-63.933-73.17-73.081-12.715-3.28-31.196-4.095-42.845-1.89M116 28.631c-16.699 2.152-37.276 11.012-50.711 21.833-16.017 12.902-29.286 33.727-34.43 54.036-3.256 12.857-3.256 34.143 0 47 5.144 20.309 18.413 41.134 34.43 54.036 10.051 8.095 26.766 16.453 39.211 19.605 12.857 3.256 34.143 3.256 47 0 12.445-3.152 29.16-11.51 39.211-19.605 16.017-12.902 29.286-33.727 34.43-54.036 3.256-12.857 3.256-34.143 0-47-5.144-20.309-18.413-41.134-34.43-54.036-9.946-8.011-26.779-16.462-38.711-19.436-8.366-2.085-28.185-3.404-36-2.397m-1.5 32.067C92.997 63.55 74.156 79.115 66.926 100c-1.793 5.178-2.256 8.738-2.279 17.5-.032 12.234 1.885 19.629 7.518 29 1.653 2.75 2.679 4.1 2.28 3-3.887-10.708-4.92-24.682-2.553-34.5 3.838-15.913 15.36-30.744 29.711-38.243 11.249-5.878 16.648-6.725 42.957-6.742L167.62 70l5.44-4.616c2.992-2.538 5.627-4.788 5.857-5 .544-.502-60.505-.205-64.417.314m6.306 42.701c-4.649 1.251-6.113 2.084-10.642 6.054l-2.336 2.047 11.547.5 11.546.5-8.569 15.614-8.57 15.614-7.3.552c-8.539.646-10.239 1.402-13.878 6.172L89.898 154h20.892c15.136 0 22.188-.39 25.596-1.416 4.801-1.445 11.614-5.923 11.614-7.635 0-.541-4.727-.949-11-.949-6.05 0-10.99-.338-10.977-.75s3.759-7.5 8.327-15.75l8.305-15 7.658-.549c6.727-.482 8.034-.907 10.758-3.5 6.94-6.605 7.29-6.459-15.286-6.384-12.993.044-21.972.522-24.979 1.332M182 107.374c0 .206.746 2.344 1.657 4.75 2.725 7.197 2.438 24.559-.557 33.704-4.632 14.138-15.216 26.832-27.954 33.526-11.379 5.979-15.616 6.646-42.241 6.646H89.23l-5.781 4.75-5.78 4.75 5.416.319c2.978.175 18.465.135 34.415-.09 31.647-.446 32.777-.62 44.797-6.905 8.465-4.427 19.302-15.475 23.421-23.877 8.212-16.747 8.314-36.035.277-51.957-2.588-5.127-3.995-7.105-3.995-5.616"/></svg>