<svg xmlns="http://www.w3.org/2000/svg" width="256" height="256"><path fill="#1976D2" fill-opacity=".016" fill-rule="evenodd" d="M0 128.004v128.004l128.25-.254 128.25-.254.254-127.75L257.008 0H0zm.485.496c0 70.4.119 99.053.265 63.672s.146-92.98 0-128S.485 58.1.485 128.5"/><path fill="#1976D2" fill-opacity=".155" fill-rule="evenodd" d="M106.655 11.597c-49.381 8.922-88.411 49.445-95.711 99.374-1.669 11.411-.685 34.136 1.93 44.618 10 40.072 39.336 71.738 78.581 84.82 22.888 7.63 50.651 7.541 73.545-.236 40.352-13.708 69.48-46.352 79.122-88.673.889-3.9 1.36-12.299 1.346-24-.018-15.505-.342-19.248-2.334-27-11.94-46.471-48.753-80.971-95.005-89.037-10.432-1.819-31.033-1.752-41.474.134m4.845 3.442C53.07 24.133 11.321 75.238 14.319 134c2.634 51.607 39.663 94.753 90.681 105.662 12.267 2.623 35.295 2.429 47.559-.4 43.666-10.073 76.63-43.021 86.691-86.65 2.841-12.32 3.04-35.319.412-47.612-9.275-43.375-41.214-76.48-84.588-87.676-10.803-2.788-32.896-3.947-43.574-2.285m13.684 18.067c-1.573 3.517-6.823 15.305-11.667 26.196-7.203 16.197-9.098 19.67-10.411 19.079-.883-.396-3.472-.911-5.753-1.144-5.408-.55-11.142 2.01-18.853 8.417C68.819 93.699 63.852 97 61.427 97c-2.208 0-2.229.09-.729 3.096 1.332 2.67 1.391 4.719.426 14.878-1.691 17.812.804 26.352 8.928 30.553 1.76.91 2.948 2.323 2.948 3.506 0 1.09-4.05 11.074-9 22.187s-9 20.559-9 20.992c0 .434 11.513.788 25.585.788h25.586l9.869 5.069c5.946 3.055 10.113 5.837 10.482 7 .789 2.486 1.679 2.441 3.307-.167.721-1.154 6.022-4.304 11.782-7L152.083 193h24.526c23.371 0 24.498-.087 23.941-1.842-.322-1.014-4.627-10.977-9.567-22.142S182 148.33 182 147.858s.493-.858 1.096-.858c2.506 0 7.295-4.624 9.226-8.908 1.796-3.986 2.077-6.637 2.124-20.092.03-8.525.403-16.193.83-17.04.583-1.156-.057-1.841-2.572-2.75-1.842-.666-6.467-3.927-10.277-7.245-13.374-11.651-19.079-14.272-26.66-12.248-2.097.559-3.997.719-4.223.355-.225-.365-5.434-12.118-11.575-26.118s-11.336-25.631-11.544-25.848-1.667 2.483-3.241 6m-8.337 21.855c-6.303 14.286-9.92 23.592-8.959 23.046.887-.503 5.662-10.376 10.612-21.94 4.95-11.563 9.274-21.034 9.609-21.046.334-.011 4.845 9.732 10.023 21.653s9.939 21.85 10.581 22.064c.646.215.15-1.761-1.111-4.425-1.254-2.647-6.041-13.475-10.639-24.063S128.337 31 128.01 31s-5.35 10.783-11.163 23.961m4.653 21.665c-10.782 2.123-13.815 3.011-19.154 5.607C83.784 91.257 72 109.271 72 128.622c0 7.82 2.303 20.013 4.88 25.839 2.526 5.71 8.017 13.721 8.993 13.118.411-.255 2.633.016 4.937.601 3.703.94 4.19 1.398 4.19 3.942 0 1.583.168 2.878.374 2.878.841 0 9.646-5.224 10.133-6.011.289-.468.099-1.114-.422-1.436s-1.229-.128-1.575.431c-1.185 1.917-3.46 1.014-5.013-1.99l-1.554-3.005-4.069 2.075c-2.237 1.142-4.293 1.851-4.568 1.576s1.35-1.444 3.612-2.598c3.522-1.797 4.044-2.469 3.641-4.692-.259-1.428-1.145-3.34-1.968-4.25-.824-.91-2.75-4.342-4.281-7.627-2.459-5.277-2.785-7.143-2.797-16.021-.012-9.616.149-10.377 3.753-17.672 5.794-11.729 15.548-19.448 28.166-22.29l5.014-1.129 1.233-5.931c1.892-9.096 2.003-8.825-3.179-7.804m8.502 3.129c.434 2.06 1.07 5.375 1.414 7.366.573 3.313.959 3.666 4.538 4.146 10.924 1.465 23.747 11.317 29.231 22.458 2.507 5.092 3.249 8.052 3.619 14.448.625 10.794-.981 17.187-6.474 25.773-2.515 3.93-4.405 7.291-4.201 7.468.204.178 2.808 1.701 5.786 3.384l5.415 3.061 2.872-3.613c3.64-4.581 8.382-14.471 9.719-20.274.566-2.46 1.036-8.297 1.043-12.972.023-15.512-4.498-26.521-15.445-37.611-9.428-9.551-20.168-14.832-34.161-16.797l-4.143-.581zm-16.598 4.495c.634 3.463.511 3.741-1.609 3.634-1.694-.086-1.837-.236-.545-.573.963-.252 1.75-.875 1.75-1.384 0-.51-.787-.934-1.75-.942-1.468-.013-1.513-.166-.279-.946 1.909-1.207.832-2.284-1.42-1.42-1.246.478-1.618 1.473-1.317 3.524.231 1.571.048 2.857-.407 2.857s-.827-.9-.827-2c0-1.313-.667-2-1.941-2-2.766 0-3.438 1.671-2.034 5.06 1.229 2.967 3.703 4.281 2.588 1.375-.462-1.205-.137-1.419 1.409-.928 2.268.72 8.978-1.188 8.978-2.553 0-.49.675-.632 1.5-.316 1.029.395 1.5-.06 1.5-1.449 0-2.68-1.004-5.189-2.076-5.189-.473 0-.574.787-.223 1.75.555 1.523.338 1.49-1.673-.25l-2.311-2zm20.285-.5c-.591 2.984 1.385 5.94 3.215 4.809.603-.372 1.096-1.524 1.096-2.559s.51-2.197 1.134-2.583c.788-.487.992.274.667 2.485-.639 4.358.282 4.495 2.929.438 1.305-2.001 1.72-3.336 1-3.219-.676.11-2.497-.322-4.045-.961-4.23-1.743-5.398-1.433-5.996 1.59m10.485 2.564c-2.711 2.886-2.772 4.011-.174 3.186 1.397-.443 2-.18 2 .874 0 2.033 2.04 3.179 2.973 1.67.506-.819.938-.494 1.329 1.004.423 1.615 1.118 2.075 2.564 1.697 1.522-.398 1.842-.137 1.372 1.118-.535 1.43-.396 1.461 1.099.244 2.129-1.732 3.399-.699 1.683 1.369-.696.838-.83 1.524-.297 1.524.987 0 3.354-2.419 4.75-4.857.596-1.041.259-1.193-1.446-.651-1.978.627-2.143.445-1.493-1.643.708-2.271.667-2.291-1.23-.599-2.375 2.119-5.304 2.29-5.304.309 0-2.204 1.764-2.804 2.8-.952.63 1.125 1.145 1.291 1.621.521 1.697-2.747-2.765-4.315-5.343-1.878-1.092 1.032-1.121.857-.165-1 1.374-2.672-.302-3.129-1.833-.5-.871 1.496-1.024 1.351-1.05-1-.037-3.357-1.008-3.466-3.856-.436M126.158 88c0 1.375.227 1.938.504 1.25.278-.687.278-1.812 0-2.5-.277-.687-.504-.125-.504 1.25m-27.958.2c-1.395 1.395-1.593 2.913-.332 2.55.477-.138 1.865.875 3.083 2.25 1.839 2.074 2.095 2.159 1.504.5-.392-1.1-.932-3.013-1.2-4.25-.55-2.536-1.309-2.796-3.055-1.05m-2.907 3.423c.359 1.68.062 2.021-1.42 1.634-2.339-.612-2.393.511-.142 2.998 1.68 1.857 1.651 1.876-1.005.666-3.269-1.489-4.275-.815-2.825 1.893.832 1.556.724 2.116-.501 2.586-2.355.904-3.092.693-1.4-.4 1.213-.784 1.069-.972-.75-.985-1.34-.009-2.25.592-2.25 1.485 0 .825-.955 2.455-2.122 3.622l-2.121 2.121 3.252 2.06c3.205 2.029 3.273 2.031 4.588.128.734-1.062 1.8-2.475 2.369-3.139S92 104.615 92 104.042s.436-1.042.969-1.042.731-.619.44-1.377c-.338-.88.427-1.616 2.12-2.041 2.296-.576 2.471-.877 1.317-2.267-1.17-1.41-1.06-1.518.912-.892 2.99.949 2.86-.64-.338-4.117-2.291-2.492-2.529-2.568-2.127-.683m65.362 5.206c-2.78 3.071-1.969 5.827 1.559 5.301.393-.058.427.642.076 1.556-.468 1.22-.223 1.502.923 1.062 1.174-.45 1.432-.107 1.042 1.386-.376 1.435.079 2.14 1.641 2.549 1.659.434 2.01 1.058 1.513 2.691-.563 1.851-.243 1.746 2.472-.811 3.982-3.75 3.946-4.884-.131-4.085l-3.25.637 2.295-1.846c1.262-1.015 1.979-2.162 1.592-2.549-.387-.386-1.271-.231-1.966.346-.967.802-1.137.565-.726-1.009.605-2.31-.627-2.691-2.613-.807-1.089 1.034-1.091.875-.01-.919 1.077-1.787 1.077-2.447-.005-3.75-1.684-2.029-2.387-1.99-4.412.248m.69 1.714c-.326.849-.341 1.794-.035 2.1.876.876 2.69-.609 2.69-2.202 0-1.919-1.908-1.845-2.655.102m-76.678 6.124c-1.432 1.432-.572 2.499.977 1.213 1.473-1.222 1.562-1.105.856 1.12-.695 2.19-.601 2.329.796 1.169.872-.723 1.339-1.957 1.038-2.742-.574-1.494-2.528-1.899-3.667-.76M80.2 110.2c-2.005 2.005-1.361 3.548 1.962 4.707 3.371 1.175 5.24.578 2.838-.907-.793-.49-1.122-1.212-.73-1.604.734-.733-.985-3.396-2.192-3.396-.373 0-1.218.54-1.878 1.2m.8 1.859c0 .582.45.781 1 .441s1-.816 1-1.059-.45-.441-1-.441-1 .477-1 1.059m90.25 1.277c-3.058.897-4.512 2.664-2.191 2.664.582 0 .781.45.441 1s-.115 1 .5 1 .84.45.5 1-.086 1 .563 1c.881 0 .865.382-.063 1.5-.975 1.175-.983 1.816-.036 2.956.664.801.918 1.926.563 2.5s.057 1.044.914 1.044 1.559.45 1.559 1-.579 1-1.287 1-1.355.9-1.438 2 .271 2 .787 2a.93.93 0 0 0 .938-.921c0-.506 1.35-1.217 3-1.579 3.196-.702 4.138-2.5 1.309-2.5-1.475 0-1.443-.188.25-1.468 1.866-1.412 1.868-1.47.069-1.5-1.544-.026-1.656-.294-.639-1.519 1.71-2.06.533-4.5-2.208-4.576l-2.281-.064 2.314-.928c2.513-1.008 2.107-2.936-.623-2.96-1.344-.012-1.41-.194-.319-.885 2.51-1.59.773-2.759-2.622-1.764M172 123c0 .55.9 1 2 1s2-.45 2-1-.9-1-2-1-2 .45-2 1m-37.311 2.114c-.996.579-2.396.829-3.111.554-.991-.38-1.346 1.387-1.491 7.417-.105 4.353.08 7.915.411 7.915s1.929-.687 3.552-1.526c2.839-1.468 2.95-1.788 2.95-8.5 0-3.836-.113-6.96-.25-6.944s-1.065.505-2.061 1.084M76 126.678c0 .507.563 1.528 1.25 2.269 1 1.077 1 1.205 0 .641-.687-.388-1.25-.229-1.25.353s.787 1.073 1.75 1.089c1.667.029 1.667.079 0 1.05-.963.561-1.75 1.875-1.75 2.92s.787 2.359 1.75 2.92c.971.566 1.194 1.033.5 1.05-.687.016-1.25 1.155-1.25 2.53 0 1.892.548 2.528 2.25 2.616 1.693.087 1.817.229.5.573-.963.252-1.75.923-1.75 1.491 0 .572.782.736 1.75.368 1.403-.534 1.502-.417.5.593-1.636 1.648-1.589 2.859.111 2.859.911 0 1.204.823.886 2.488-.571 2.988 1.623 4.187 4.675 2.554 2.451-1.312 2.757-4.844.494-5.713-1.275-.489-1.324-.772-.25-1.453 1.054-.668 1.002-.849-.243-.861-1.169-.011-1.467-.765-1.151-2.916.289-1.967-.202-3.529-1.523-4.85-1.756-1.756-1.79-2.052-.349-2.995 1.23-.805 1.329-1.331.428-2.272-.644-.674-.934-1.846-.643-2.604.331-.861-.168-1.389-1.328-1.408-1.74-.029-1.747-.095-.107-1.05 2.529-1.473 2.233-3.249-.314-1.886-1.532.82-2.434.798-3.5-.087-.79-.656-1.436-.777-1.436-.269m51 7.763c0 4.373.422 7.559 1 7.559.571 0 1-2.98 1-6.941 0-3.818-.45-7.219-1-7.559-.633-.391-1 2.156-1 6.941m-9 .559c0 4 .429 7 1 7s1-3 1-7-.429-7-1-7-1 3-1 7m4 0c0 5.556.31 7 1.5 7s1.5-1.444 1.5-7-.31-7-1.5-7-1.5 1.444-1.5 7m-44 0c0 .55.648 1 1.441 1s1.719-.45 2.059-1-.309-1-1.441-1-2.059.45-2.059 1m19.5.829c-3.938 1.825-7.578 5.086-5.872 5.26 7.041.72 12.319.468 14.572-.695 1.486-.767 4.186-1.414 6-1.438l3.3-.044-3.537-1.871c-5.592-2.957-9.916-3.319-14.463-1.212m48-.604c-1.65.587-3.888 1.676-4.973 2.421-1.818 1.248-1.677 1.354 1.8 1.354 2.075 0 4.987.621 6.473 1.38s4.275 1.26 6.2 1.113 4.807-.318 6.405-.38c2.894-.113 2.897-.121 1-2.251-3.906-4.383-10.698-5.845-16.905-3.637m25.88 3.227c-.306.799-.266 1.924.09 2.5.357.576.171 1.048-.411 1.048s-1.059.45-1.059 1 .675 1 1.5 1 1.5.48 1.5 1.067c0 .613-.853.797-2 .433s-2-.18-2 .433c0 .587.55 1.067 1.223 1.067.672 0 .22.702-1.004 1.559-1.786 1.251-2.023 1.939-1.199 3.478.827 1.545.733 1.805-.483 1.339-.983-.377-1.826.255-2.419 1.813-.5 1.316-1.632 2.992-2.514 3.725-2.09 1.735-2.066 3.477.037 2.67.902-.346 2.621.013 3.819.798 1.95 1.278 2.303 1.227 3.376-.491 1.034-1.655.849-2.077-1.345-3.077-2.581-1.176-2.886-3.624-.366-2.942.756.204 2.275.575 3.375.824l2 .452-2-1.651c-1.416-1.17-1.562-1.595-.5-1.456 2.989.391 4-.075 4-1.841 0-.99-.515-2.315-1.144-2.944-.859-.859-.609-1.004 1-.583 1.18.308 2.144.091 2.144-.483s-.787-1.254-1.75-1.511c-1.485-.396-1.412-.576.489-1.187 2.492-.801 2.099-2.492-.58-2.492-1.134 0-1.796-.89-1.938-2.606-.167-2.008.146-2.467 1.363-2 .869.333 1.823.606 2.12.606s-.019.675-.704 1.5c-1.016 1.225-.958 1.5.319 1.5 2.217 0 3.067-1.83 1.645-3.544-1.561-1.88-5.863-1.883-6.584-.004M79 141c0 .55.675 1 1.5 1s1.5-.45 1.5-1-.675-1-1.5-1-1.5.45-1.5 1m35.543.931c-.683 1.105.894 2.299 1.818 1.375.95-.951.773-2.306-.302-2.306-.518 0-1.2.419-1.516.931m19.649-.218c-2.869.549-2.342 2.669.777 3.125 1.77.259 2.17-.035 1.703-1.25-.335-.873-.173-1.588.359-1.588.533 0 .969.477.969 1.059s.498.751 1.107.375c.771-.477.696-.944-.25-1.544-.746-.473-1.582-.805-1.857-.739a107 107 0 0 1-2.808.562M117 144c0 .55 1.125 1 2.5 1s2.5-.45 2.5-1-1.125-1-2.5-1-2.5.45-2.5 1m6.667-.333c-1.151 1.15-.729 2.333.833 2.333.825 0 1.5-.675 1.5-1.5 0-1.562-1.183-1.984-2.333-.833m4.333.833c0 .825.885 1.5 1.969 1.5 1.339 0 1.784-.48 1.393-1.5-.317-.825-1.203-1.5-1.969-1.5s-1.393.675-1.393 1.5m-17.386 2.901c-1.86 3.919-2.086 6.009-.547 5.058.586-.363.849-.877.583-1.142-.266-.266.379-1.346 1.433-2.4 1.978-1.978 2.594-4.917 1.031-4.917-.487 0-1.612 1.531-2.5 3.401m29.421-2.651c.092 1.942 2.736 5.429 3.356 4.426.372-.602.103-2.013-.598-3.135-1.258-2.015-2.826-2.749-2.758-1.291m-25.581 3.338L112.949 151h3.525c3.048 0 3.526-.323 3.526-2.383 0-3.786-3.68-4.137-5.546-.529m21.238-2.351c-1.192.285-1.704 1.171-1.5 2.598.232 1.631 1.109 2.242 3.558 2.478 1.787.173 3.25-.115 3.25-.639 0-1.897-3.543-4.858-5.308-4.437m-14.085 2.845c-.851 2.218-.88 2.193 1.893 1.663 1.375-.263 2.5-1.101 2.5-1.862 0-1.911-3.647-1.746-4.393.199m6.393-.199c0 .761 1.125 1.599 2.5 1.862 1.942.371 2.5.063 2.5-1.384 0-1.318-.729-1.861-2.5-1.861-1.462 0-2.5.574-2.5 1.383m15.543 2.548c-.317.512-.118 1.213.441 1.559s1.016-.074 1.016-.931c0-1.757-.6-2.015-1.457-.628M170 151.5c.685.825 1.64 1.5 2.122 1.5.483 0 .878-.675.878-1.5 0-.862-.902-1.5-2.122-1.5-1.774 0-1.918.247-.878 1.5m-87 1c0 .825.395 1.5.878 1.5.482 0 1.437-.675 2.122-1.5 1.04-1.253.896-1.5-.878-1.5-1.22 0-2.122.638-2.122 1.5m97.736-.255c-.303.791 2.527 8.485 6.289 17.099 3.763 8.613 7.127 16.559 7.476 17.658.618 1.949.172 1.998-18.375 1.998-11.593 0-19.249.39-19.626 1-.405.655 6.802 1 20.879 1h21.497l-6.054-13.75a4062 4062 0 0 1-8.794-20.096c-1.64-3.799-2.962-5.769-3.292-4.909m-67.236.777c-5.146 1.033-15.297 4.84-16.019 6.008-.306.496.359 2.697 1.479 4.891l2.035 3.989 5.252-2.445c2.889-1.345 6.014-2.45 6.944-2.455 2.125-.013 3.212-1.643 1.714-2.569-.621-.383-1.504-.09-1.962.652-.459.742-1.138 1.046-1.509.675-.942-.943.451-7.768 1.586-7.768 1.021 0 4.515 6.05 4.186 7.25-.113.412.585.75 1.551.75 1.469 0 1.699-.738 1.4-4.5-.372-4.675.903-5.944 2.763-2.75.971 1.667 1.021 1.667 1.05 0 .016-.963.48-1.75 1.03-1.75s1 1.719 1 3.821v3.82l7.606 1.183c4.184.65 10.274 2.26 13.533 3.576l5.926 2.394 2.037-3.994c1.121-2.197 1.894-4.12 1.718-4.274-1.736-1.521-10.006-4.829-15.039-6.015-6.659-1.571-21.606-1.829-28.281-.489m-47.779 17.33c-4.218 9.543-7.955 18.093-8.302 19-.576 1.501 1.364 1.647 21.724 1.633 14.804-.01 21.85-.343 20.857-.985-.83-.537-9.872-.976-20.25-.985-10.312-.008-18.75-.405-18.75-.881 0-.477 3.15-7.994 7-16.705s7-16.421 7-17.134c0-3.699-2.323.32-9.279 16.057M130 154c0 .55.45 1 1 1s1 1.377 1 3.059c0 1.785.417 2.802 1 2.441.55-.34 1-1.716 1-3.059s.45-2.441 1-2.441 1-.45 1-1-1.35-1-3-1-3 .45-3 1m8.63 2.25c-.331 1.238-.595 3.15-.585 4.25.018 1.882.097 1.896 1.356.237s1.434-1.63 2.977.5c1.522 2.102 1.622 2.121 1.405.263-.128-1.1.162-2.631.645-3.402.593-.947.28-1.838-.966-2.75-2.658-1.943-4.144-1.666-4.832.902m-54.32 1.384c-1.061 2.764 1.436 3.983 4.433 2.165 3.849-2.336 3.767-3.272-.305-3.482-2.363-.122-3.745.319-4.128 1.317m18.362.116c-.984 1.652-.338 6.164.953 6.66 2.163.83 4.375-.443 4.375-2.517q0-1.893-2.25-2.009c-1.693-.087-1.817-.229-.5-.573.963-.252 1.75-.875 1.75-1.384 0-1.104-3.687-1.255-4.328-.177M122 158.833c0 1.332.625 2.167 1.622 2.167 1.389 0 1.43-.252.283-1.75a91 91 0 0 1-1.622-2.167c-.156-.229-.283.559-.283 1.75m27.484 2.239c-.632 2.876-.099 4.876 1.006 3.772.269-.27.775-1.92 1.125-3.667.83-4.154-1.219-4.256-2.131-.105m5.839 5.377c-1.348 2.826-1.965 3.278-3.418 2.5-2.139-1.144-2.905-1.197-2.904-.199.001.412 2.282 2.031 5.07 3.597s4.843 3.072 4.568 3.347c-.62.621-11.639-5.89-11.639-6.877 0-.393-1.466-.103-3.257.646-9.992 4.175-24.105 3.944-32.891-.538-3.122-1.593-3.852-1.692-3.852-.519 0 .796-2.541 2.901-5.646 4.677-5.306 3.036-5.531 3.317-3.75 4.673 6.036 4.593 19.359 8.244 30.08 8.244 9.526 0 17.564-1.962 25.726-6.279 5.901-3.121 6.08-3.333 5.776-6.848-.302-3.483-.164-3.654 3.477-4.338l3.79-.711-3.976-2.407c-2.187-1.324-4.322-2.409-4.743-2.412s-1.506 1.547-2.411 3.444m-65.886 5.408c3.548 3.796 4.563 3.939 4.563.643 0-1.375-.562-2.506-1.25-2.514-.687-.007-2.375-.296-3.75-.642l-2.5-.629zm73.506-1.989c-2.056.508-2.448 1.08-2 2.916l.557 2.284 3.5-2.994c3.456-2.955 2.991-3.453-2.057-2.206m-56.782 4.679c-2.253 4.943-1.163 6.147 5.089 5.623.963-.08 1.75.523 1.75 1.342 0 2.112 2.987 1.857 3.063-.262.045-1.234.355-1.02 1.052.726.737 1.848 1.197 2.138 1.811 1.143.576-.932 1.03-1 1.508-.226.376.609 2.007 1.107 3.625 1.107 2.123 0 2.949-.487 2.971-1.75.029-1.667.079-1.667 1.05 0 1.184 2.032 3.547 2.313 4.212.5.328-.896.784-.946 1.606-.177 1.567 1.465 7.102.54 7.102-1.186 0-1.615 1.596-1.85 2.51-.371 1.027 1.661 2.707-.078 2.147-2.221-.479-1.831-.386-1.86 1.244-.385.969.877 2.033 1.323 2.365.99.88-.879-2.438-7.412-3.447-6.788-.468.289-.593.944-.277 1.456.316.511-.239.858-1.234.772-4.431-.385-5.308.138-5.308 3.16 0 3.636-1.719 3.968-2.589.5-.345-1.375-1.059-2.5-1.587-2.5-.527 0-.701 1.012-.386 2.25l.573 2.25-1.159-2.25c-1.422-2.764-2.852-2.919-2.852-.309 0 1.068-.468 2.23-1.04 2.584-.675.417-.827-.351-.432-2.191.561-2.612.493-2.693-.859-1.031-.822 1.011-1.623 1.334-1.823.736-.195-.587-2.041-1.284-4.101-1.547-3.063-.392-3.757-.162-3.808 1.264-.052 1.41-.226 1.342-.913-.358-.601-1.486-1.682-2.072-3.687-2-1.634.059-3.391-.64-4.144-1.648-1.776-2.379-2.665-2.203-4.032.797m15.515 4.855c-.6 1.564.102 2.606 1.741 2.583.596-.009.408-.452-.417-.985-1.272-.822-1.225-.972.309-.985.995-.008 1.531-.465 1.191-1.015-.88-1.424-2.195-1.236-2.824.402"/><path fill="#1976D2" fill-opacity=".142" fill-rule="evenodd" d="M111.52 11.115C84.748 15.013 61.7 27.036 42.489 47.123 22.511 68.013 11.811 93.069 10.301 122.5c-1.706 33.246 10.51 64.561 34.574 88.625 18.584 18.584 40.228 29.527 66.121 33.43 56.437 8.508 111.525-25.836 129.078-80.471 13.674-42.565 2.763-87.497-28.949-119.209-18.799-18.798-41.409-30.113-67.625-33.84-8.29-1.179-23.6-1.141-31.98.08m-4.645 4.383c-10.734 2.03-25.871 7.652-35.326 13.122-27.188 15.728-46.044 40.536-54.751 72.036-1.882 6.808-2.168 10.418-2.168 27.344 0 21.555.891 26.607 7.671 43.493 10.395 25.89 33.938 49.963 59.84 61.188 24.231 10.5 52.795 12.199 78.732 4.683 29.557-8.565 55.384-30.485 69.579-59.052 8.635-17.378 12.116-34.546 11.284-55.648-1.181-29.924-12.345-54.813-34.164-76.164-15.327-14.997-31.247-24.028-52.228-29.627-10.356-2.764-37.109-3.523-48.469-1.375m11.409 41.734c-5.069 11.643-9.118 21.267-8.999 21.387.12.119 2.678-.421 5.684-1.201 6.924-1.796 12.139-1.872 11.499-.168-1.193 3.177-6.271 30.259-5.813 31.001.284.46.002 1.458-.628 2.217-.718.865-.885 2.774-.446 5.112.691 3.683.716 3.7 1.927 1.326 1.294-2.539 3.129-13.378 4.384-25.906.583-5.816.736-3.647.68 9.66-.067 16.064.373 19.728 2.159 17.943.402-.402.689-7.79.638-16.417-.09-15.151-.064-15.362.767-6.186.474 5.225 1.299 10.507 1.836 11.738.536 1.231.729 2.878.429 3.66-.543 1.415 2.105 7.602 3.254 7.602 1.104 0-.772-14.32-3.732-28.493C130.315 82.81 129 76.398 129 76.257c0-.704 6.168-.069 11.492 1.184 3.295.775 6.122 1.278 6.281 1.119.474-.474-17.994-42.563-18.661-42.528-.336.017-4.759 9.557-9.828 21.2m-20.18 25.524c-2.418 1.405-7.49 5.474-11.272 9.041-8.688 8.196-14.704 19.462-15.338 28.72l-.409 5.983.841-5c2.688-15.985 13.045-30.313 27.631-38.224 3.269-1.772 5.268-3.19 4.443-3.149s-3.478 1.223-5.896 2.629m18.966-.306c-.054 1.517-.337 1.683-1.27.75-1.964-1.964-2.882-1.373-2.184 1.407.427 1.7.189 2.895-.683 3.434-2.171 1.342-3.215-.1-1.243-1.719 1.665-1.366 1.669-1.441.06-.935-.963.303-1.75.114-1.75-.418 0-.533.45-.969 1-.969s1-.408 1-.906-.938-.661-2.085-.361c-1.767.462-1.989 1.058-1.455 3.906.74 3.945-.099 4.44-1.46.861-.943-2.481-3.362-3.342-4.448-1.584-.763 1.234 1.144 6.084 2.392 6.084.546 0 .698-.787.337-1.75-.543-1.449-.399-1.542.834-.542 1.485 1.205 5.406.762 7.477-.844.601-.466 1.444-.513 1.874-.105.43.407.442-.384.025-1.759-.753-2.489-.747-2.492 1.376-.595 2.098 1.873 2.132 1.873 2.063 0-.039-1.048-.457-2.805-.93-3.905-.837-1.948-.861-1.949-.93-.05m17.391-.387c-.361.585.132 1.935 1.096 3 1.918 2.119.656 2.704-1.482.687-1.069-1.009-1.238-.961-.872.25.25.825 1.386 1.638 2.525 1.806 1.765.261 2.072-.22 2.072-3.25 0-3.494-1.861-4.884-3.339-2.493M153 81.341c0 .258 1.984 1.632 4.409 3.053 5.806 3.402 15.65 13.324 19.157 19.309 1.539 2.626 3.632 7.255 4.651 10.286 1.297 3.858 1.69 4.461 1.311 2.011-1.074-6.932-6.594-16.235-13.945-23.5C162.628 86.615 153 79.72 153 81.341M135.5 83c.34.55.816 1 1.059 1s.441-.45.441-1-.477-1-1.059-1-.781.45-.441 1m4.616 2.306L140 89.112l2.415-2.806c2.535-2.946 2.655-4.439.193-2.395-1.156.959-1.533.838-1.908-.608-.258-.992-.52-.09-.584 2.003m3.81 1.797L141.7 90.23l2.15-.682c1.576-.501 2.15-.264 2.15.885 0 2.582 2.446 1.775 4.341-1.433.978-1.655 1.299-3 .716-3-.582 0-1.057.364-1.057.809s-.696 1.682-1.547 2.75c-1.463 1.835-1.514 1.769-.942-1.214.84-4.372-.921-4.982-3.585-1.242M104 87c0 .55.477 1 1.059 1s.781-.45.441-1-.816-1-1.059-1-.441.45-.441 1m-5.189 1.046c-1.529.892-1.454 1.22.795 3.47 3.086 3.085 3.841 3.165 2.219.234-.684-1.237-1.13-2.812-.991-3.5.3-1.478.181-1.49-2.023-.204M151.2 89.2c-3.064 3.064 1.097 7.774 5.407 6.121 1.313-.504 1.486-.188.901 1.653-.451 1.421-.349 2.046.271 1.662.547-.337 1.228.281 1.514 1.375.321 1.231 1.365 1.989 2.736 1.989 1.948 0 2.056.211.892 1.75-1.127 1.489-1.115 1.563.077.5 2.028-1.808 3.219-1.534 2.172.5-1.152 2.241-.434 4.25 1.52 4.25.944 0 1.305.571.948 1.5-.873 2.275.734 1.797 3.362-1 2.478-2.638 2.283-2.835-2.484-2.506l-2.984.206 2.484-2.184c1.504-1.322 1.838-1.983.847-1.675-1.221.38-1.509.021-1.133-1.416.575-2.2-.675-2.509-2.732-.675-1.191 1.062-1.204.989-.088-.487 2.614-3.457-1.616-6.657-4.71-3.563-1.885 1.885-1.402-.317.55-2.504 1.694-1.899 1.673-1.938-.651-1.214-1.96.611-2.288.452-1.782-.867.918-2.391-1.062-1.961-2.389.52-.811 1.515-1.362 1.781-1.897.915-.415-.672-1.143-1.149-1.618-1.06-1.584.294-1.5-1.673.13-3.026 1.349-1.119 1.756-1.103 2.518.1.746 1.179.911 1.123.924-.314.017-2.018-2.973-2.362-4.785-.55m-55.148 3.363c1.14 1.373.958 1.478-1.49.863l-2.787-.699 1.86 2.838c2.014 3.074 2.256 3.01-3.135.828-1.933-.782-1.911.576.057 3.384 1.755 2.507 1.321 2.788-1.546.998-1.466-.916-2.248-.938-3.099-.087-1.797 1.797-.008 3.545 2.947 2.878 2.568-.58 2.586-.552.641 1.009l-2 1.605 2-.342c1.256-.215 2.359-1.56 2.964-3.615.58-1.971 1.462-3.081 2.218-2.792 1.848.71 2.682-1.287 1.255-3.007-1.068-1.287-.877-1.352 1.414-.481 1.457.554 2.634.681 2.616.282-.048-1.039-3.652-5.225-4.5-5.225-.391 0-.128.703.585 1.563M115 96c0 .55-.73 1-1.622 1-1.308 0-1.388.283-.414 1.456.664.801.964 1.851.666 2.334-.298.482.768.877 2.37.877s2.668-.395 2.37-.877c-.298-.483.002-1.533.666-2.334.974-1.173.894-1.456-.414-1.456-.892 0-1.622-.45-1.622-1s-.45-1-1-1-1 .45-1 1m22.798.395c-2.46 1.815-1.279 5.355 1.786 5.355 1.329 0 2.416-.357 2.416-.793s.273-1.505.607-2.375c.39-1.016.062-1.582-.917-1.582-.838 0-1.673-.419-1.857-.93s-1.099-.365-2.035.325M60 97.882c0 .55.45 1.278 1 1.618s1 .168 1-.382-.45-1.278-1-1.618-1-.168-1 .382m101.074.529c-.801.965-.839 1.616-.123 2.059 1.397.863 3.049-.237 3.049-2.029 0-1.836-1.415-1.851-2.926-.03m31.979 4.339c-.573 2.063-.992 5.325-.931 7.25.092 2.886.267 2.567.997-1.819.486-2.925 1.349-6.188 1.918-7.25.664-1.241.68-1.931.045-1.931-.543 0-1.457 1.688-2.029 3.75M106 101c0 .55-.765 1-1.7 1-1.256 0-1.407.293-.578 1.122.617.617.882 1.745.59 2.508-.375.976.166 1.309 1.828 1.128 2.97-.325 4.367-3.394 2.427-5.334C106.896 99.753 106 99.605 106 101m42 0c0 .55-.765 1-1.7 1-1.256 0-1.407.293-.578 1.122.617.617.882 1.745.59 2.508-.375.976.166 1.309 1.828 1.128 2.97-.325 4.367-3.394 2.427-5.334C148.896 99.753 148 99.605 148 101m-85.7 5c0 3.025.187 4.263.416 2.75s.229-3.987 0-5.5-.416-.275-.416 2.75m24.2-4c-.34.55-.168 1 .382 1s1.278-.45 1.618-1 .168-1-.382-1-1.278.45-1.618 1m-4.187 3.628c-.402 1.045.236 2.29 1.781 3.478 3.058 2.351 3.597 2.339 4.906-.106.726-1.356.737-2 .035-2-.569 0-1.035.45-1.035 1s-.498 1-1.107 1-.848-.675-.531-1.5.139-1.5-.393-1.5c-.533 0-.969.477-.969 1.059s-.472.767-1.049.411c-.716-.443-.678-1.094.123-2.059.876-1.056.881-1.411.017-1.411-.635 0-1.435.733-1.778 1.628M100 107.992c0 .554-.723 1.008-1.607 1.008-1.055 0-1.398.544-1 1.582.334.87.607 1.939.607 2.375s1.125.793 2.5.793 2.5-.357 2.5-.793.23-1.394.512-2.127c.281-.734-.394-1.9-1.5-2.591-1.189-.742-2.012-.843-2.012-.247m52.575 1.067c-1.234 1.244-1.465 1.941-.643 1.941.705 0 1.049.608.764 1.35-.357.93.37 1.376 2.335 1.432 2.084.059 2.705-.305 2.304-1.351-.302-.788.033-1.431.747-1.431.777 0 .436-.801-.852-2-2.541-2.367-2.244-2.371-4.655.059m-72.577 1.944c-.867 1.621-.559 2.173 1.936 3.463 3.557 1.839 4.91 1.978 3.266.334-.66-.66-1.2-1.962-1.2-2.893 0-2.525-2.796-3.157-4.002-.904M81 112c0 .55.45 1 1 1s1-.45 1-1-.45-1-1-1-1 .45-1 1m89.25 2.031c-1.238.498-2.25 1.192-2.25 1.544 0 .351.739.356 1.641.009 1.373-.527 1.435-.38.378.893-.933 1.125-.955 1.523-.082 1.523.649 0 .873.498.497 1.107-.723 1.17 2.673.439 5.566-1.198 1.09-.616.707-.856-1.405-.879-2.841-.029-2.865-.074-1.095-2.03 2.014-2.226.787-2.592-3.25-.969M193 124c-.577 12.121-2.643 17.405-7.796 19.944-3.163 1.558-4.185 3.056-2.086 3.056.614 0 2.821-1.704 4.904-3.786 4.774-4.775 6.138-9.731 5.767-20.965l-.289-8.749zm-97.968-7.75c-.018.968-.792 1.75-1.732 1.75-1.256 0-1.407.293-.578 1.122.617.617.927 1.629.689 2.25-.251.653.625 1.128 2.078 1.128 1.677 0 2.511-.554 2.511-1.667 0-.916.563-1.893 1.25-2.171.913-.368.875-.525-.14-.583-.764-.043-1.987-.866-2.718-1.829-1.265-1.667-1.33-1.667-1.36 0m62.754.885c-.942.986-1.299 2.048-.793 2.361.506.312.709 1.116.452 1.786-.288.752.466 1.218 1.975 1.218 2.982 0 3.95-3.286 1.646-5.591-1.421-1.422-1.724-1.401-3.28.226M61.158 119c0 1.375.227 1.938.504 1.25.278-.687.278-1.812 0-2.5-.277-.687-.504-.125-.504 1.25m109.747 2.615c-1.149 1.384-1.008 1.883.988 3.5 2.079 1.683 2.129 1.892.468 1.948-1.464.05-1.328.296.639 1.153 2.06.897 2.192 1.163.75 1.51-3.186.766-1.813 2.236 1.5 1.605 3.725-.709 4.854-1.331 2.417-1.331-.917 0-1.667-.45-1.667-1s.45-1 1-1 1-.45 1-1-.761-1-1.691-1c-1.508 0-1.491-.147.162-1.355 2.441-1.785 1.322-4.645-1.817-4.645-1.325 0-3.012.727-3.749 1.615m12.253.385c0 1.375.227 1.938.504 1.25.278-.687.278-1.812 0-2.5-.277-.687-.504-.125-.504 1.25m-10.457-.368c-1.367 1.367-.673 2.503 1.339 2.188 1.121-.176 2.045-.77 2.052-1.32.017-1.217-2.418-1.84-3.391-.868m-47.072 1.575c.24.389-.816 1.354-2.346 2.144-2.773 1.431-2.781 1.466-2.305 9.793l.479 8.356.521-8.421c.338-5.454.962-8.566 1.772-8.833.935-.309 1.25 1.751 1.25 8.171V143l2.75-.015c1.512-.009 3.425-.461 4.25-1.004 1.065-.703.413-.825-2.25-.423l-3.75.565v-7.454c0-5.704.352-7.59 1.5-8.031.825-.316 1.5-.206 1.5.246 0 .914 8.882-3.035 8.954-3.982.076-.991-5.875-.839-6.496.165-.317.513-1.026.933-1.576.933s-.751-.402-.448-.894c.304-.491-.526-.829-1.845-.75s-2.201.462-1.96.851M61.286 127.5c.008 2.75.202 3.756.432 2.236s.223-3.77-.014-5-.425.014-.418 2.764M132 123.992c-.825.53-2.175.758-3 .508s-2.153-.045-2.95.456c-2.169 1.361 5.13.611 7.513-.772 1.066-.618 1.487-1.13.937-1.138s-1.675.417-2.5.946m-13.971 1.969c-.809.512-1.211 1.191-.893 1.509s1.148-.108 1.844-.946c1.443-1.738 1.166-1.902-.951-.563M76 126.819c0 .584.498 1.371 1.107 1.747.771.477.696.944-.25 1.544-.877.555.057.824 2.643.759 2.2-.056 3.18-.313 2.178-.572-1.762-.456-1.762-.519 0-1.936 1.711-1.376 1.682-1.426-.476-.83-1.27.351-2.947.095-3.75-.571-.937-.777-1.452-.828-1.452-.141M70.515 130c1.791 15.626 1.8 15.239-.325 14.102-1.086-.582-3.148-2.452-4.582-4.156-1.434-1.705-2.608-2.63-2.608-2.056 0 1.528 6.463 7.736 8.649 8.308 1.758.46 1.822.05 1.035-6.604-.462-3.902-1.229-8.444-1.705-10.094-.849-2.944-.858-2.934-.464.5m97.757 2c0 2.475.195 3.488.434 2.25.238-1.238.238-3.262 0-4.5-.239-1.238-.434-.225-.434 2.25m-82.193-.417c.048 1.165.285 1.402.604.605.289-.722.253-1.585-.079-1.917s-.568.258-.525 1.312m-9.366 1.038c-1.464 1.463-.639 4.268 1.45 4.931 1.916.608 1.973.792.5 1.617-1.934 1.082-2.256 4.837-.413 4.817 5.272-.057 7.753-3.72 4-5.906-1.098-.64-1.259-1.031-.43-1.05.79-.018 1.191-.932 1-2.28-.222-1.557-1.102-2.341-2.857-2.546-1.396-.163-2.859.025-3.25.417m-14.634 1.962c.048 1.165.285 1.402.604.605.289-.722.253-1.585-.079-1.917s-.568.258-.525 1.312m15.622-.951c-1.406 1.406-.642 2.368 1.882 2.368 1.622 0 2.429-.465 2.167-1.25-.481-1.446-3.02-2.147-4.049-1.118m24.049.03c.688.278 1.813.278 2.5 0 .688-.277.125-.504-1.25-.504s-1.937.227-1.25.504m48.012.045c1.244.239 3.044.23 4-.02s-.062-.446-2.262-.435-2.982.216-1.738.455m-41.679.666c1.029.921 6.917 3.626 6.917 3.178 0-.576-5.544-3.551-6.617-3.551-.394 0-.529.168-.3.373m-15.646 3.877L89.5 141.5l3.25-2.937c3.029-2.738 3.71-3.563 2.937-3.563-.172 0-1.635 1.463-3.25 3.25m66.563-2.9c0 .231 1.18 1.193 2.623 2.139s2.318 1.224 1.944.62c-.713-1.154-4.567-3.483-4.567-2.759m-20.768 2.4c-1.961 1.726-1.931 1.798 2.14 5.213 4.058 3.405 4.079 3.411 1.265.328l-2.863-3.136 2.363-.44c1.833-.341 1.746-.397-.387-.251-3.199.221-3.419-.236-1-2.072.963-.731 1.462-1.343 1.111-1.36-.352-.018-1.535.755-2.629 1.718m33.475-.057c-.828 1.386-.502 6.307.418 6.307 1.622 0 .891 1.85-.875 2.215-1.233.255-.791.704 1.5 1.521 1.899.678 3.25.766 3.25.212 0-.521-.45-.948-1-.948s-1-.45-1-1 .702-1 1.559-1 1.281-.45.941-1-1.416-1-2.392-1c-1.222 0-1.722-.7-1.608-2.25.11-1.493.811-2.25 2.083-2.25 1.212 0 1.866.644 1.778 1.75-.076.963.293 1.75.82 1.75s.814-1.012.639-2.25c-.226-1.588-1.101-2.34-2.976-2.557-1.46-.169-2.872.056-3.137.5m-58.665 4.721-3.458 4.086 3.947-3.5c2.171-1.925 4.094-3.567 4.275-3.65.18-.082-.04-.346-.489-.586-.45-.241-2.373 1.402-4.275 3.65M167 140.333c0 .917-.787 1.674-1.75 1.682-1.33.012-1.432.217-.426.855 1.726 1.094-.629 7.024-4.916 12.38-1.651 2.063-2.644 3.749-2.205 3.748 2.496-.006 11.569-18.06 9.909-19.719-.336-.337-.612.138-.612 1.054M78.5 141c-.351.567.49 1 1.941 1 1.407 0 2.559-.45 2.559-1s-.873-1-1.941-1-2.219.45-2.559 1m14.125 1.202c.317.514 1.207.693 1.976.398.77-.296 1.399-.147 1.399.329 0 .477 1.576.761 3.503.632 4.295-.287 5.482-1.166 1.732-1.283-1.504-.047-4.187-.293-5.961-.548-1.859-.266-2.982-.066-2.649.472m62.625-.418c-4.084.431-4.266 1.707-.25 1.76 1.65.022 3-.347 3-.819 0-.473.862-.586 1.916-.252 1.054.335 2.135.253 2.404-.182.532-.862-1.987-1.042-7.07-.507M88 143c0 .55.423 1 .941 1s1.219-.45 1.559-1-.084-1-.941-1-1.559.45-1.559 1m-8.559 2.443c-1.84 1.368-1.796 1.428.848 1.161 1.534-.155 3.311-.804 3.95-1.443 1.754-1.754-2.386-1.511-4.798.282m10.05 1.057c.333 1.1 2.004 4.321 3.714 7.159 2.195 3.644 3.56 4.985 4.65 4.566 1.308-.501 1.322-.665.094-1.067-1.679-.549-3.519-2.89-6.757-8.593-1.269-2.236-2.034-3.165-1.701-2.065m-9.824 2.416c-.977 1.186-.679 1.305 1.833.736 2.367-.536 2.631-.455 1.25.384-3.605 2.191-1.016 6.403 3 4.881 2.565-.972 3.068-4.666.756-5.553-.822-.316-1.275-.929-1.007-1.363.87-1.408-4.629-.545-5.832.915m89-.249c-1.55 1.55-.546 4.325 1.776 4.908 2.825.709 4.557-.089 4.557-2.099 0-2.236-4.785-4.358-6.333-2.809m.766 1.442c-.632 1.021 1.112 2.839 2.758 2.876 1.737.038 1.666-1.991-.102-2.938-1.402-.75-2.166-.732-2.656.062m-86.937 1.898c-.755 1.221 1.988 2.43 3.456 1.523.576-.357 1.048-1.071 1.048-1.589 0-1.261-3.718-1.207-4.504.066M120 156.5c0 1.925.45 3.5 1 3.5s1.014-.787 1.03-1.75c.029-1.667.079-1.667 1.05 0 1.641 2.817 2.92 2.024 2.92-1.809 0-2.269-.387-3.32-1.068-2.899-.588.363-.812 1.402-.498 2.309.365 1.056-.117.84-1.342-.601-2.592-3.049-3.092-2.847-3.092 1.25m10.8-2.3c.66.66 1.246 2.573 1.302 4.25l.102 3.05 1.043-3.25c.573-1.787 1.427-3.25 1.898-3.25s.855-.45.855-1-1.44-1-3.2-1c-2.489 0-2.933.267-2 1.2m34.569 1.05c-.421 1.238-.676 2.588-.567 3s-.429.75-1.195.75-1.652.675-1.969 1.5c-.316.825-.139 1.5.393 1.5.533 0 .969-.502.969-1.115 0-.685.951-.492 2.465.5 2.812 1.842 3.934 2.07 3.035.615-.34-.55-.029-1.015.691-1.033.733-.019.248-.917-1.101-2.04-2.948-2.455-1.597-4.804 1.737-3.02 3.411 1.826 3.868 1.209.673-.907-3.795-2.514-4.197-2.494-5.131.25m11.321 2.76c-1.515 2.695-5.067 7.43-7.894 10.523-3.353 3.669-5.256 6.689-5.475 8.689-.803 7.339-6.386 12.381-20.341 18.372-4.664 2.002-9.953 4.744-11.754 6.092l-3.273 2.452-2.969-2.498c-1.633-1.374-8.035-4.992-14.227-8.04-6.191-3.047-12.171-6.342-13.288-7.32-3.009-2.637-5.469-6.481-5.469-8.545 0-1.65.441-1.578 4.75.777 2.612 1.428 3.909 2.009 2.882 1.292-7.211-5.033-13.112-10.184-13-11.348.073-.758-.36-1.283-.961-1.167-.602.116-2.912-2.573-5.133-5.976s-4.263-6.21-4.538-6.236c-.377-.037-12.819 27.675-14.833 33.036-.187.497 8.214.887 19.115.887 17.449 0 19.693.191 21.833 1.862 1.312 1.025 3.51 2.209 4.885 2.632 4.655 1.432 17.489 8.272 19.311 10.291 1.809 2.005 1.812 2.005 4.264-.267 3.247-3.009 23.106-11.833 24.58-10.922.751.464.881.271.371-.553-1.53-2.476 2.164-3.013 20.831-3.028 14.693-.012 18.742-.291 18.334-1.265-1.167-2.79-14.966-34.264-15.101-34.445-.081-.107-1.386 2.01-2.9 4.705M103 155c-.825.533-1.05.969-.5.969s1.675-.436 2.5-.969 1.05-.969.5-.969-1.675.436-2.5.969m9.05 1.367c-1.594 4.195-1.408 6.175.437 4.644.818-.679 2.168-.974 3-.654 2.017.774 1.898-.253-.443-3.805l-1.943-2.947zm26.573.767c-.712 3.559.015 5.07 1.378 2.865.751-1.216.995-1.172 1.552.279.364.947 1.111 1.722 1.661 1.722s.762-.62.471-1.378-.024-1.883.593-2.5c1.305-1.305.254-2.586-2.898-3.536-1.779-.536-2.222-.127-2.757 2.548M151 156c.825.533 1.95.969 2.5.969s.325-.436-.5-.969-1.95-.969-2.5-.969-.325.436.5.969m-66.444.91c-.642 1.038.331 4.093 1.301 4.083.354-.003 1.993-.951 3.643-2.105s2.227-1.846 1.282-1.537-1.984.131-2.309-.395c-.75-1.213-3.179-1.242-3.917-.046m55.944.09c.34.55 1.041 1 1.559 1s.941-.45.941-1-.702-1-1.559-1-1.281.45-.941 1M86 158c0 .55.477 1 1.059 1s.781-.45.441-1-.816-1-1.059-1-.441.45-.441 1m16.667-.333C101.29 159.043 102.073 161 104 161c1.1 0 2 .48 2 1.067 0 .651-.875.79-2.242.356-1.982-.629-2.086-.523-.895.912 1.036 1.248 1.798 1.381 3.303.576 2.437-1.304 1.896-3.305-1.009-3.732-1.203-.177-1.941-.72-1.64-1.207.301-.486 1.281-.603 2.179-.258q1.635.628.909-.544c-.793-1.284-2.89-1.552-3.938-.503m47.419 2.734c-.633 1.596-.966 3.396-.738 4s.932-.207 1.566-1.802c.633-1.596.966-3.396.738-4s-.932.207-1.566 1.802M165.5 160c.34.55 1.068 1 1.618 1s.722-.45.382-1-1.068-1-1.618-1-.722.45-.382 1m-46.687 2.683c.721.289 1.584.253 1.916-.079s-.258-.568-1.312-.525c-1.165.048-1.402.285-.604.604m13.937-.021c.688.278 1.813.278 2.5 0 .688-.277.125-.504-1.25-.504s-1.937.227-1.25.504m-18.937 1.021c.721.289 1.584.253 1.916-.079s-.258-.568-1.312-.525c-1.165.048-1.402.285-.604.604m-7.64 2.189c-.888.563 1.506 1.763 7.234 3.627 7.481 2.433 9.623 2.719 16.964 2.261 5.893-.368 10.003-1.251 13.765-2.959 4.613-2.094 5.049-2.518 3.113-3.025-1.239-.324-2.029-.229-1.757.211.894 1.447-7.853 4.191-15.118 4.742-5.589.424-8.663.074-14.25-1.623-3.918-1.19-7.124-2.601-7.124-3.135 0-1.185-1.056-1.222-2.827-.099m-.043 9.741c-1.518 3.333-.362 4.726 3.824 4.607 1.675-.047 3.046.334 3.046.847 0 1.742 3 .944 3.07-.817.06-1.481.191-1.442.851.25.429 1.1 1.298 2.056 1.93 2.125s1.487.252 1.899.406c2.573.965 6.253.38 6.28-.997.025-1.245.223-1.204 1.05.216 1.058 1.816 3.92 2.433 3.92.845 0-.498 1.792-.664 3.982-.371 3.084.414 4.122.169 4.604-1.088.446-1.162 1.332-1.444 3.129-.993 2.271.57 2.438.405 1.783-1.757-.59-1.949-.483-2.157.59-1.136 2.976 2.835 4.086.073 1.33-3.309-1.35-1.657-1.501-1.685-1.031-.191.585 1.861-.848 2.431-1.887.75-1.051-1.7-2.475-1.101-1.781.75.574 1.532.446 1.579-1.032.378-1.513-1.231-1.687-1.062-1.687 1.643 0 4.238-2.859 5.184-3.654 1.209-.328-1.639-1.02-2.98-1.538-2.98-.519 0-.666 1.012-.328 2.25.531 1.942.465 2.01-.482.5-1.575-2.512-2.998-2.156-2.998.75 0 1.375-.502 2.5-1.117 2.5-.651 0-.917-1.041-.638-2.5.263-1.375.09-2.5-.384-2.5-.473 0-.868.563-.876 1.25-.012.945-.22.928-.853-.071-1.273-2.007-8.132-2.3-8.132-.349 0 1.222-.305 1.139-1.431-.389-1.391-1.887-1.459-1.871-2.437.559l-1.005 2.5-.064-2.905c-.058-2.694-.19-2.791-1.813-1.343-1.474 1.315-1.947 1.346-3 .197-1.822-1.989-1.53-2.925.413-1.321 1.425 1.176 1.592 1.158 1.167-.128-.843-2.55-3.411-2.215-4.7.613m52.87 1.446c0 .582.45.781 1 .441s1-.816 1-1.059-.45-.441-1-.441-1 .477-1 1.059m-37.62 2.393c-.694 1.808.431 3.783 1.705 2.995a1.106 1.106 0 0 0 .372-1.516c-.316-.512-.072-.931.543-.931s.84-.45.5-1c-.898-1.453-2.477-1.225-3.12.452m34.061.103c-1.864 1.494-1.852 1.512.309.465 1.238-.6 2.25-1.3 2.25-1.555 0-.765-.519-.544-2.559 1.09m-49.941 3.452c2.2 1.012 5.35 2.114 7 2.451 1.65.336.075-.522-3.5-1.907-7.55-2.925-9.255-3.189-3.5-.544M148 183c-.825.533-1.05.969-.5.969s1.675-.436 2.5-.969 1.05-.969.5-.969-1.675.436-2.5.969m-7.187 2.683c.721.289 1.584.253 1.916-.079s-.258-.568-1.312-.525c-1.165.048-1.402.285-.604.604m-22.544 1.01c.973.254 2.323.237 3-.037s-.119-.481-1.769-.461-2.204.244-1.231.498m16 0c.973.254 2.323.237 3-.037s-.119-.481-1.769-.461-2.204.244-1.231.498m-7.456.99c.721.289 1.584.253 1.916-.079s-.258-.568-1.312-.525c-1.165.048-1.402.285-.604.604"/><path fill="#1976D2" fill-opacity=".39" fill-rule="evenodd" d="M119.5 10.592c-26.221 3.523-42.107 9.263-59.5 21.5C45.592 42.229 30.657 59.621 22.725 75.5c-14.311 28.645-16 63.68-4.537 94.116 18.498 49.117 68.028 80.161 120.081 75.264 38.666-3.639 71.704-24.603 91.212-57.88 26.693-45.535 19.118-104.109-18.346-141.854-21.109-21.268-47.784-32.96-78.635-34.468-5.5-.269-11.35-.308-13-.086m-5.865 3.543C44.909 22.96-.153 89.655 17.033 157.113c7.291 28.617 27.414 54.916 53.679 70.154 33.259 19.295 73.81 20.487 108.288 3.184C238.183 200.75 260.228 128.121 227.4 71c-22.997-40.016-68.37-62.695-113.765-56.865m13.529 23.89c-.527 1.361-4.611 10.756-9.076 20.876s-7.929 18.591-7.697 18.823 2.151-.059 4.265-.646c5.4-1.499 20.858-1.317 27 .319l5.157 1.373-2.832-6.635c-14.384-33.706-15.835-36.648-16.817-34.11m1.973 42.475c-.081.831 2.217 21.699 3.358 30.5.178 1.375.77 3.625 1.315 5 .897 2.266 1.06 2.326 1.739.64.436-1.083-.725-9.224-2.782-19.5-1.943-9.702-3.576-17.19-3.63-16.64m-12.058 2.083c.048 1.165.285 1.402.604.605.289-.722.253-1.585-.079-1.917s-.568.258-.525 1.312m17.327-.431c-.391.633.032 1.695.941 2.36 2.064 1.509 2.163 2.898.153 2.126-.825-.316-1.5-.139-1.5.393 0 1.353 2.73 1.214 3.594-.183.391-.633-.032-1.695-.941-2.36-2.088-1.527-2.154-2.894-.101-2.106.89.341 1.291.173.941-.393-.818-1.324-2.213-1.25-3.087.163m-20.64 2.705c.301 2.051-.071 3.046-1.317 3.524-.954.366-2.008.369-2.342.006-.334-.364-.044-.862.643-1.107.688-.246 1.25-.845 1.25-1.332s-.675-.626-1.5-.31c-.825.317-1.5.111-1.5-.458 0-.568.684-1.246 1.52-1.505 1.04-.323.961-.412-.25-.282-1.247.133-1.688.909-1.491 2.627.153 1.34.667 2.826 1.142 3.301C111.146 90.546 115 88.26 115 86.31c0-1.43.235-1.408 2 .19 1.799 1.628 2 1.643 2 .155 0-.91-.689-1.655-1.531-1.655-.843 0-1.791-.675-2.107-1.5-.98-2.553-2.038-1.653-1.596 1.357m9.451 8.893c-1.255 6.463-2.517 14.675-2.804 18.25-.48 5.998-.41 6.307.905 4 1.837-3.222 5.974-34.001 4.57-34-.213 0-1.415 5.288-2.671 11.75m17.094-8.479c.056 2.449.367 3.268.888 2.338.441-.788.402-2.485-.086-3.771-.764-2.011-.876-1.81-.802 1.433M126.928 92.5c-.714 22.189-.456 27.972 1.136 25.397 1.029-1.666 1.024-25.142-.007-30.897-.701-3.91-.849-3.188-1.129 5.5m-23.778-6.614c-1.119.71-1.084 1.346.21 3.735 1.114 2.055 1.571 2.368 1.6 1.094.032-1.448.403-1.591 1.959-.758 1.833.98 1.852.891.427-1.965-1.595-3.198-2.085-3.444-4.196-2.106m42.732-.136c-.066.412-.054 1.121.024 1.574.079.454-.267.571-.768.261s-1.476.117-2.166.949c-1.053 1.269-.975 1.404.487.843 1.035-.397 2.102-.101 2.627.727.617.976.888.418.899-1.854.013-2.83-.771-4.606-1.103-2.5m-42.339 1.181c-.683 1.105.894 2.299 1.818 1.375.95-.951.773-2.306-.302-2.306-.518 0-1.2.419-1.516.931m45.619 1.612c-1.675 3.677-1.355 4.462.456 1.119.846-1.562 1.351-3.026 1.123-3.255-.229-.228-.939.733-1.579 2.136m-50.603-.011C96.94 89.756 96.887 90 98.241 90c.894 0 1.91.9 2.259 2s1.08 2 1.624 2 .323-.952-.492-2.115-1.242-2.738-.95-3.5c.663-1.726.322-1.702-2.123.147m52.411 1.524c-.93 1.737-.866 2.476.314 3.657 1.155 1.155 1.649 1.205 2.252.228.483-.78.365-.998-.312-.579-1.878 1.16-2.54-1.475-.806-3.208 1.458-1.458 1.778-1.476 2.694-.154.925 1.333.995 1.333.631 0-.645-2.368-3.494-2.335-4.773.056m-54.626 3.436c.636 1.371 1.797 2.496 2.58 2.5.984.006.697-.766-.924-2.492-2.924-3.112-3.096-3.113-1.656-.008m59.203.289c-1.368 1.904-1.47 2.33-.339 1.42 1.837-1.477 3.388-.019 2.179 2.049-.402.688.247.393 1.441-.655 2.249-1.972 2.923-3.177 1.172-2.095-1.749 1.081-3.227-.522-1.926-2.089.644-.776.778-1.397.298-1.38-.479.018-1.751 1.255-2.825 2.75M93 93.876c0 .448 1.005 1.671 2.233 2.719 1.368 1.167 1.758 1.288 1.008.313-.673-.876-.983-1.833-.689-2.126.294-.294-.16-.801-1.009-1.127S93 93.429 93 93.876m-3 3.407c0 .734.682 2.208 1.514 3.276 1.049 1.343 1.434 1.479 1.25.441-.158-.9.436-1.444 1.486-1.361 2.505.199 2.174-.368-1.25-2.139-2.393-1.238-3-1.281-3-.217m24.411.04c-1.376 1.577-.388 4.177 1.589 4.177 2.065 0 2.962-2.681 1.415-4.228-1.531-1.531-1.624-1.53-3.004.051m23.148.244c-1.068.788-1.419 1.433-.782 1.433.638 0 .944.563.681 1.25-.299.779.396 1.25 1.845 1.25 1.605 0 2.286-.547 2.196-1.766-.211-2.865-1.806-3.742-3.94-2.167m22.452-.08c-2.024 2.438-.442 4.838 2.673 4.056 2.461-.618 2.556-.53 1.241 1.144-1.313 1.671-1.283 1.701.388.388 1.679-1.319 1.761-1.219 1.114 1.358-.647 2.58-.547 2.701 1.382 1.669 1.144-.612 2.396-1.673 2.782-2.357.555-.984.421-.983-.644.005-2.032 1.886-3.151 1.5-1.982-.684 1.411-2.637 1.305-3.107-.54-2.399-1.001.384-1.504.099-1.382-.781.565-4.044-2.467-5.489-5.032-2.399m.362.982c-.341.89-.318 1.919.051 2.289.846.846 4.144-1.167 3.879-2.367-.36-1.625-3.298-1.566-3.93.078M85.5 101c-1.085 1.755.542 3.028 3.061 2.395 2.635-.661 3.489 1.133.919 1.93-1.062.33-.987.423.25.31 3.058-.28 2.1-3.158-.98-2.947-2.802.192-3.766-1.111-1.5-2.026.901-.363.918-.526.059-.583-.655-.043-1.469.371-1.809.921m19.761.545c-1.689 1.837-.507 4.455 2.013 4.455 1.132 0 1.763-.296 1.401-.658s-.156-1.262.456-2c.85-1.024.749-1.342-.425-1.342-.847 0-1.689-.406-1.873-.901-.183-.496-.891-.295-1.572.446m42 0c-1.689 1.837-.507 4.455 2.013 4.455 1.132 0 1.763-.296 1.401-.658s-.156-1.262.456-2c.85-1.024.749-1.342-.425-1.342-.847 0-1.689-.406-1.873-.901-.183-.496-.891-.295-1.572.446m-64.654 4.037c-.868 2.261-.893 2.219 2.296 3.868 2.618 1.354 2.963 1.342 3.523-.118.342-.89.385-1.854.098-2.142s-.524.002-.524.643c0 .642-.498 1.167-1.107 1.167s-.848-.675-.531-1.5.139-1.5-.393-1.5c-.533 0-.969.45-.969 1s-.48 1-1.067 1c-.613 0-.797-.853-.433-2 .749-2.361-.011-2.717-.893-.418M166.5 108c-.34.55-.093 1 .548 1 .653 0 .899.697.558 1.584-.871 2.269 1.414 1.272 3.18-1.389 1.374-2.068 1.31-2.195-1.105-2.195-1.41 0-2.841.45-3.181 1m-67.017 1.387c-1.9 2.15-1.339 4.392 1.063 4.249 1.257-.075 2.103-.32 1.879-.544s.016-.918.533-1.541c1.321-1.592-2.098-3.721-3.475-2.164m53.928-.064c-1.376 1.577-.388 4.177 1.589 4.177 2.065 0 2.962-2.681 1.415-4.228-1.531-1.531-1.624-1.53-3.004.051m-73.785 2.209c-.393 1.024.257 1.853 1.958 2.5 3.335 1.268 3.21 1.34 2.661-1.532-.536-2.802-3.664-3.457-4.619-.968M81 112c0 .55.45 1 1 1s1-.45 1-1-.45-1-1-1-1 .45-1 1m90.585 1.891c-1.907.748-3.179 4.109-1.556 4.109 1.195 0 2.143-1.74 1.227-2.251-.416-.232-.226-.297.421-.145.647.153 1.715-.371 2.372-1.163 1.295-1.561.543-1.728-2.464-.55m-77.19 3.531c-.59.631-.807 1.807-.484 2.613.876 2.18 3.775 2.272 4.334.138.612-2.344-2.292-4.419-3.85-2.751m64 0c-.59.631-.807 1.807-.484 2.613.876 2.18 3.775 2.272 4.334.138.612-2.344-2.292-4.419-3.85-2.751m13.164 1.11c-2.47 1.868-.846 1.847 2.441-.032 1.45-.829 1.87-1.431 1-1.433-.825-.002-2.374.657-3.441 1.465m.691 2.13c-1.775.717-1.551 4.009.322 4.727 1.652.634 5.428-.914 5.428-2.224 0-2.252-3.065-3.586-5.75-2.503m.23 1.37c-.388.628-.28 1.568.24 2.088 1.214 1.214 4.484-.009 3.989-1.493-.523-1.573-3.376-1.974-4.229-.595M174 127q-2.5.801-.75.9c.963.055 1.75.517 1.75 1.027s-.787 1.132-1.75 1.384c-.963.251-.175.474 1.75.494s2.938-.19 2.25-.467c-.687-.278-1.25-1.105-1.25-1.838s.563-1.56 1.25-1.838c1.988-.802-.497-.544-3.25.338m-96.869 1.653c.626.757.51 1.33-.339 1.671-.711.285.283.547 2.208.582 2.346.042 3.048-.223 2.13-.804-1.121-.711-1.064-1.04.318-1.813 1.303-.729.894-.927-1.79-.867-2.505.056-3.212.401-2.527 1.231m-.166 4.889c-.905 1.091-.968 1.855-.216 2.607s1.018.52.908-.792c-.105-1.243.505-1.857 1.843-1.857s1.948.614 1.843 1.857c-.108 1.284.164 1.536.883.817 1.497-1.497.169-4.174-2.072-4.174-1.05 0-2.485.694-3.189 1.542m94.526 4.708c-.554 1.551-.115 4.459.813 5.388 1.232 1.232.743 2.36-1.054 2.432-1.496.06-1.46.195.25.93 1.1.473 2.675.856 3.5.851q1.508-.008.25-.513c-1.845-.745-1.518-2.326.5-2.419 1.296-.06 1.101-.385-.75-1.25-3.079-1.44-3.439-5.169-.499-5.169 1.285 0 1.95.621 1.862 1.739-.075.957.262 1.493.75 1.191 1.433-.885 1.018-3.166-.695-3.823-2.51-.963-4.444-.711-4.927.643m-94.155 2.317c-.862 2.247.733 3.364 3.914 2.739 2.716-.532 3.681-2.613 1.761-3.799-.547-.338-.745.023-.443.81.335.871-.249 1.628-1.51 1.958-2.453.641-3.898-1.129-1.936-2.371 1.043-.661 1.067-.877.097-.889-.705-.008-1.552.69-1.883 1.552M82 145.622c0 1.329.271 1.398 1.5.378.825-.685 1.5-1.415 1.5-1.622s-.675-.378-1.5-.378-1.5.73-1.5 1.622m-1.694 2.695c-.902 1.454.13 1.525 3.194.22l3-1.277-2.844.12c-1.564.066-3.072.487-3.35.937m88.694.67c-1.992 1.27-.151 4.386 2.857 4.833 2.939.437 4.064-2.673 1.614-4.465-2.186-1.598-2.501-1.624-4.471-.368m-83.109 1.219c1.558 2.076.675 3.794-1.95 3.794-2.142 0-2.467-.965-.945-2.804.548-.662.27-.57-.618.204-.888.775-1.31 1.901-.937 2.504.985 1.595 4.111 1.341 5.601-.454 1.068-1.288.971-1.838-.573-3.25-1.751-1.601-1.785-1.6-.578.006M169.5 150c-.923 1.494.361 3 2.559 3 2.212 0 2.49-1.051.741-2.8-1.462-1.462-2.482-1.524-3.3-.2m-44.34 4.905c-.151 2.265-.266 2.309-1.989.75-2.619-2.37-3.184-2.077-3.071 1.595.091 2.967.159 3.035.788.779l.689-2.472 1.688 2.411c2.105 3.005 3 2.234 2.466-2.122-.276-2.247-.463-2.556-.571-.941m6.761 1.845c.455 3.29.562 3.412.865 1 .219-1.736.968-2.776 2.03-2.82 1.364-.057 1.304-.234-.316-.93-3.07-1.319-3.133-1.252-2.579 2.75m34.048-2.213c-.852 1.027-.88 1.463-.091 1.463.617 0 1.122-.46 1.122-1.023s1.125-.286 2.5.615 2.5 1.413 2.5 1.138-1.084-1.21-2.408-2.078c-2.108-1.381-2.56-1.395-3.623-.115m10.255 4.72c-1.66 2.941-5.089 7.479-7.621 10.083-3.007 3.095-4.603 5.613-4.603 7.264 0 2.94-1.429 5.994-4.257 9.101l-2.008 2.206 18.134.294c9.973.162 18.133.03 18.132-.294-.001-.598-14.003-33.163-14.493-33.707-.146-.162-1.624 2.111-3.284 5.053m-101.52-1.163c-.799 1.873-3.985 9.178-7.079 16.234-3.094 7.055-5.626 13.13-5.626 13.5-.001.369 8.164.539 18.144.377l18.145-.294-2.522-2.706c-3.001-3.219-4.766-6.453-4.766-8.732 0-.912-2.369-4.277-5.265-7.476-2.896-3.2-6.235-7.729-7.421-10.064l-2.156-4.246zm36.914.066c-.771 3.853.026 5.107.937 1.476l.653-2.601 1.863 2.233c2.299 2.755 2.509 1.547.314-1.803-2.141-3.268-3.006-3.108-3.767.695M139 156.418c0 .78-.309 2.243-.687 3.25-.61 1.625-.493 1.674 1.031.434 1.487-1.211 1.883-1.175 2.937.262 1.051 1.431 1.253 1.176 1.468-1.852.224-3.146-.011-3.512-2.25-3.512-1.491 0-2.499.572-2.499 1.418m-54.559.678c-.373.603-.062 1.706.691 2.452 1.152 1.143 1.762 1.047 3.868-.609 1.485-1.167 1.789-1.713.75-1.345-.986.349-1.75.137-1.75-.487 0-1.431-2.677-1.439-3.559-.011M140 157c0 .55.675 1 1.5 1s1.5-.45 1.5-1-.675-1-1.5-1-1.5.45-1.5 1m-54.447.915a1.116 1.116 0 0 0 .362 1.532c.521.322 1.21.159 1.532-.362a1.116 1.116 0 0 0-.362-1.532 1.116 1.116 0 0 0-1.532.362M102.5 158c-.923 1.494.361 3 2.559 3 2.557 0 2.501 1.735-.074 2.314-1.677.376-1.635.43.25.319 2.961-.174 2.961-3.034 0-3.454-1.245-.177-2.019-.72-1.718-1.207.301-.486 1.281-.603 2.179-.258q1.635.628.909-.544c-.885-1.432-3.264-1.531-4.105-.17m62.5.049c3.469 2.354 5.444 3.039 3 1.04-1.375-1.124-2.95-2.048-3.5-2.051s-.325.451.5 1.011m-14.889 3.062c-.616 1.767-.945 3.388-.731 3.602s.893-1.057 1.509-2.824.945-3.388.731-3.602-.893 1.057-1.509 2.824m12.396-1.122c-.336.543.015.748.781.454.765-.294 1.969.161 2.674 1.011.706.851 1.738 1.546 2.295 1.546s-.131-.9-1.53-2c-2.894-2.276-3.368-2.39-4.22-1.011m-56.329 15.519c-1.547 3.397-1.542 3.418 1.072 4.409 1.349.511 2.746.453 3.488-.145.87-.701 1.422-.518 1.857.615.83 2.164 3.396 2.061 3.44-.137.027-1.336.374-1.158 1.465.75.786 1.375 1.445 1.868 1.465 1.095.027-1.082.49-.993 2.016.388 1.556 1.408 2.287 1.54 3.403.613 1.101-.913 1.538-.888 1.94.112.299.746.565.447.629-.708.108-1.954.144-1.956 1.548-.102 1.16 1.534 1.719 1.664 2.908.677.81-.672 1.26-1.976 1.001-2.898s.061-.665.712.573c1.382 2.627 5.009 2.976 7.284.701.852-.852 2.301-1.414 3.22-1.25 2.185.391 2.598-3.774.542-5.466-1.284-1.057-1.407-.863-.857 1.348.48 1.927.257 2.584-.877 2.584-.837 0-1.296-.585-1.021-1.302.275-.715.098-1.549-.392-1.852s-1.033.92-1.206 2.718c-.379 3.939-2.868 4.417-4.001.769-.701-2.257-.739-2.21-.39.481.36 2.777.291 2.849-1.019 1.059-.773-1.057-1.405-2.286-1.405-2.731s-.45-.809-1-.809-1 1.446-1 3.214c0 2.998-.112 3.103-1.664 1.55-1.449-1.448-1.481-1.897-.25-3.464 1.29-1.642 1.261-1.68-.336-.428-.963.755-1.75.937-1.75.404 0-.532-1.8-.968-4-.968-2.981 0-4.009.406-4.035 1.596-.024 1.082-.464.823-1.367-.805l-1.33-2.402-1.055 2.902-1.055 2.901-.112-3.5-.113-3.5-2.035 2.445-2.035 2.446.319-2.91c.422-3.859-2.379-4.539-4.004-.973m40.163-.25c.088 1.495.722 2.935 1.409 3.199 1.587.61 1.535-.314-.194-3.438l-1.373-2.48zM108 175c0 .55.477 1 1.059 1s.781-.45.441-1-.816-1-1.059-1-.441.45-.441 1m-2 2.465c0 .255.89.941 1.977 1.523 1.614.863 1.87.778 1.394-.465-.518-1.35-3.371-2.245-3.371-1.058m15.18 2.707c.176 1.194.954 2.38 1.729 2.636.997.329 1.213-.047.739-1.283-.496-1.291-.276-1.596.841-1.168.831.319 1.511.192 1.511-.281 0-.883-2.385-2.076-4.151-2.076-.544 0-.844.977-.669 2.172"/></svg>