<svg xmlns="http://www.w3.org/2000/svg" width="256" height="256"><path fill="#1976D2" fill-opacity=".016" fill-rule="evenodd" d="M0 128.004v128.004l128.25-.254 128.25-.254.254-127.75L257.008 0H0zm.485.496c0 70.4.119 99.053.265 63.672s.146-92.98 0-128S.485 58.1.485 128.5"/><path fill="#1976D2" fill-opacity=".354" fill-rule="evenodd" d="M105.5 12.014c-37.884 7.769-67.826 31.238-84.512 66.243-7.337 15.391-10.091 27.032-10.705 45.243-.374 11.081-.096 17.351 1.064 24 8.642 49.545 47.353 88.462 96.524 97.037 10.748 1.874 29.51 1.874 40.258 0 49.171-8.575 87.882-47.492 96.524-97.037 2.363-13.544 1.409-35.8-2.1-49-11.909-44.8-48.459-78.463-94.413-86.955-11.405-2.108-31.133-1.89-42.64.469m2.735 3.42c-24.227 4.602-43.783 14.867-60.856 31.943-23.461 23.465-34.522 52.21-33.1 86.018 1.233 29.328 12.247 54.365 33.098 75.237 15.025 15.039 31.383 24.431 52.549 30.168 8.647 2.343 11.365 2.599 28.074 2.638 17.155.039 19.211-.156 28.285-2.683 21.479-5.984 37.345-15.115 52.338-30.123 20.882-20.903 31.961-46.096 33.113-75.296 1.338-33.928-9.674-62.515-33.115-85.959-14.965-14.967-31.945-24.699-52.451-30.062-12.072-3.157-36.228-4.105-47.935-1.881M67.5 55.222c-6.748 2.392-11.54 7.759-12.972 14.528L53.841 73H73v-9.5c0-10.229 0-10.229-5.5-8.278m10.167-.555c-.367.366-.667 4.641-.667 9.5V73h40.5c22.275 0 40.838.002 41.25.005s.879-4.272 1.036-9.5l.286-9.505h-40.869c-22.478 0-41.17.3-41.536.667M164 63.478V73h38.075l-.287-9.25-.288-9.25-18.75-.272-18.75-.272zm-68.825-3.301c-.096.922-.962 1.882-1.925 2.134-1.667.435-1.667.463 0 .573 1.169.077 1.75.946 1.75 2.616 0 3.177-2.702 3.345-4.031.25-.743-1.73-.909-1.813-.718-.357.137 1.041 1.024 2.381 1.971 2.977 2.633 1.658 3.966-.421 3.517-5.484-.214-2.412-.468-3.631-.564-2.709m40.015 4.504c.171 2.015.884 3.778 1.585 3.917s.814.023.25-.256c-1.425-.707-1.288-5.088.174-5.575.736-.245.519-.661-.559-1.075-1.512-.58-1.716-.158-1.45 2.989M83.232 65c0 1.925.206 2.713.457 1.75.252-.963.252-2.537 0-3.5-.251-.962-.457-.175-.457 1.75m19.227-1.933c-1.026 1.66-.105 1.89 1.33.332.71-.769.849-1.399.309-1.399-.539 0-1.277.48-1.639 1.067m11.354-.384c.721.289 1.584.253 1.916-.079s-.258-.568-1.312-.525c-1.165.048-1.402.285-.604.604m9.571.759c-.304.792-.342 2.255-.085 3.25.295 1.135.512.742.585-1.059.095-2.352.475-2.772 2.117-2.343 1.101.288 1.75.115 1.441-.383-.87-1.408-3.443-1.069-4.058.535m21 0c-.304.792-.342 2.255-.085 3.25.316 1.219.507.939.585-.859.064-1.466.679-2.893 1.366-3.171.979-.395.972-.521-.031-.583-.705-.043-1.531.57-1.835 1.363m-28.648 1.156c-.329.329-.356 1.229-.06 2 .333.867-.116 1.402-1.176 1.402-1.219 0-1.522-.505-1.048-1.75.534-1.403.417-1.502-.593-.5-.938.931-.97 1.539-.126 2.383 1.611 1.611 4.267.303 4.267-2.102 0-2.125-.268-2.429-1.264-1.433m-11.222 1.565q.635 1.663-1.191 2.134c-1.563.404-1.582.488-.132.587 2.234.153 3.338-1.757 1.863-3.221-.894-.886-1.022-.768-.54.5M54.667 77.667c-.367.366-.667 28.491-.667 62.5V202h19V77h-8.833c-4.859 0-9.134.3-9.5.667m39.833-.016-4.232.902c-2.947.628-8.94 5.958-11.069 9.845-1.54 2.813-1.699 8.235-1.699 58.102v55l53.5.295c35.922.197 54.717-.058 57.205-.777 4.99-1.443 9.688-5.574 11.915-10.477 1.49-3.279 1.84-6.616 1.858-17.696L202 159.19l-17.259-14.345c-9.492-7.89-18.002-14.93-18.911-15.644-1.447-1.137-6.634 2.913-41.492 32.396a84572 84572 0 0 1-41.749 35.3c-1.05.882 16.902-20.447 39.896-47.397 22.993-26.95 42.272-48.86 42.842-48.689s8.492 3.694 17.605 7.83c9.112 4.135 17.14 7.76 17.84 8.054 1.009.425 1.215-3.564 1-19.33L201.5 77.5l-52.5-.138c-28.875-.077-53.4.053-54.5.289"/><path fill="#1976D2" fill-opacity=".291" fill-rule="evenodd" d="M110 11.52C46.364 21.45 1.898 81.676 11.445 145.004c3.903 25.893 14.846 47.537 33.43 66.121 15.976 15.976 33.886 26.093 56.013 31.641 9.351 2.344 12.572 2.66 27.112 2.66s17.761-.316 27.112-2.66c22.127-5.548 40.037-15.665 56.013-31.641 26.826-26.827 38.985-63.284 33.418-100.209C234.795 46.247 174.223 1.498 110 11.52m8.5 2.117c-52.486 5.587-93.297 42.492-103.168 93.292-2.188 11.258-2.188 30.884 0 42.142 9.819 50.532 50.389 87.648 101.672 93.018 52.207 5.466 102.481-27.064 119.597-77.385 7.718-22.692 7.734-50.693.041-73.275-13.115-38.5-47.138-68.376-86.337-75.812-8.535-1.619-25.358-2.666-31.805-1.98m-53 42.936C59.353 59.77 55 65.738 55 70.968 55 72.86 55.619 73 64 73h9v-9c0-8.668-.083-9-2.25-8.994-1.237.004-3.6.708-5.25 1.567M78 64v9h82V55H78zm87 0v9h36V55h-36zm-70-3.57c0 .787-1.013 1.575-2.25 1.75-1.762.251-2.25.97-2.25 3.32 0 2.529.431 3.05 2.75 3.316 2.68.309 2.75.187 2.75-4.75C96 61.28 95.775 59 95.5 59s-.5.644-.5 1.43m58-.371c0 .582.45.781 1 .441s1-.816 1-1.059-.45-.441-1-.441-1 .477-1 1.059m-18 4.402c0 3.686.329 4.524 1.75 4.46 1.045-.047 1.247-.282.5-.583-1.429-.577-1.71-5.001-.349-5.505.496-.183.271-.913-.5-1.622-1.185-1.091-1.401-.59-1.401 3.25M83.252 65.5c.011 2.2.216 2.982.455 1.738s.23-3.044-.02-4-.446.062-.435 2.262M102 63.531c0 .843.675 1.791 1.5 2.107 2.021.776 1.896 2.112-.25 2.673-1.38.36-1.297.481.393.573 3.034.164 3.78-2.587 1.092-4.026-2.135-1.142-2.14-1.192-.213-1.945 1.854-.724 1.837-.777-.272-.843-1.384-.043-2.25.519-2.25 1.461m11.25-.892c2.139.62 2.323 2.361.25 2.361-.833 0-1.5.889-1.5 2 0 1.48.667 2 2.563 2 2.29 0 2.53-.347 2.25-3.25-.256-2.655-.771-3.284-2.813-3.435-1.444-.106-1.761.03-.75.324m9.91 3.111c.158 3.692.166 3.7.563.5.544-4.382 3.277-4.424 3.277-.05 0 2.373.291 2.909 1.127 2.073.636-.636.846-2.246.481-3.7-.477-1.899-1.296-2.573-3.127-2.573-2.229 0-2.465.381-2.321 3.75m21 0c.154 3.603.176 3.625.559.562.24-1.917 1.073-3.366 2.09-3.634 1.201-.317 1.04-.48-.559-.562-1.98-.102-2.231.334-2.09 3.634m8.84-.191c0 2.118.405 3.309 1 2.941.55-.34 1-1.941 1-3.559S154.55 62 154 62s-1 1.602-1 3.559m-61.664-.992c-.834 2.172 1.282 4.215 2.797 2.7C95.413 65.987 94.62 63 93 63c-.585 0-1.333.705-1.664 1.567M113 67c0 .55.423 1 .941 1s1.219-.45 1.559-1-.084-1-.941-1-1.559.45-1.559 1m-58 73v62h18V78H55zm35.03-60.887c-4.734 1.889-8.862 5.882-10.464 10.12-1.424 3.768-1.581 10.58-1.34 58.267l.274 54h109l4.511-2.652c2.669-1.569 5.425-4.279 6.75-6.636 2.042-3.635 2.237-5.289 2.221-18.848l-.018-14.864-18.304-15.108-18.303-15.109-42.386 35.859C98.66 183.864 79.414 200 79.204 200c-.477 0-2.582 2.493 44.501-52.709 21.713-25.458 39.863-46.524 40.333-46.814.469-.291 8.416 2.896 17.658 7.082s17.367 7.845 18.054 8.133c.975.407 1.25-3.687 1.25-18.585V78l-54.25.063c-33.152.039-55.211.447-56.72 1.05"/><path fill="#1976D2" fill-opacity=".504" fill-rule="evenodd" d="M116.5 11.088C52.944 16.955 5.01 74.805 11.033 138.372c4.785 50.496 39.541 91.115 88.731 103.695 56.905 14.554 117.203-17.092 138.047-72.451 5.242-13.921 7.242-24.985 7.344-40.616.212-32.745-11.373-61.264-34.132-84.023-8.369-8.369-20.64-17.315-30.523-22.252-18.413-9.199-42.657-13.607-64-11.637m-5 3.021c-43.752 6.304-81.681 39.433-93.886 82.003C-3.431 169.512 51.795 243 128 243c69.24 0 123.447-62.124 113.928-130.566C233.196 49.656 174.08 5.091 111.5 14.109M78 64v9h81V55H78zm16.293-4.011c-.286 1.094-.888 1.761-1.338 1.483s-1.503.472-2.339 1.666C88.634 65.968 90.144 69 93.535 69 95.856 69 96 68.679 96 63.5c0-5.575-.759-7.137-1.707-3.511M82 60c0 .55.45 1 1 1s1-.45 1-1-.45-1-1-1-1 .45-1 1m71 0c0 .55.45 1 1 1s1-.45 1-1-.45-1-1-1-1 .45-1 1m-18.807 4.25c.255 3.533.687 4.304 2.557 4.57 1.238.175 2.25-.162 2.25-.75 0-.589-.675-1.07-1.5-1.07-2.1 0-1.882-3.753.25-4.311 1.667-.435 1.667-.463 0-.573-.963-.064-1.75-.566-1.75-1.116s-.476-1-1.057-1c-.626 0-.932 1.735-.75 4.25m-31.423-2.141c-2.007 1.123-1.253 3.864 1.087 3.954 1.069.042.769.452-.857 1.174l-2.5 1.11 2.365.411c3.795.66 5.092-1.521 2.203-3.704-2.258-1.706-2.294-1.865-.5-2.219 1.063-.21 1.472-.672.911-1.026-.562-.355-1.781-.22-2.709.3m10.139-.032c-1.12.709-1.027.896.452.908 1.668.013 1.626.205-.409 1.853-2.665 2.158-1.891 4.162 1.607 4.162 2.108 0 2.441-.462 2.441-3.393 0-3.576-1.7-5.043-4.091-3.53m11.341-.359c-1.477.53-1.708 7.282-.25 7.282.55 0 1-1.377 1-3.059 0-1.785.417-2.802 1-2.441.55.34 1 1.716 1 3.059S127.45 69 128 69s1-1.334 1-2.965c0-3.034-2.355-5.175-4.75-4.317m21 0c-1.477.53-1.708 7.282-.25 7.282.55 0 1-1.312 1-2.917s.54-3.096 1.201-3.317c.677-.225.786-.639.25-.948-.523-.301-1.513-.346-2.201-.1M82 65.5c0 1.925.45 3.5 1 3.5s1-1.575 1-3.5-.45-3.5-1-3.5-1 1.575-1 3.5m71 0c0 1.925.45 3.5 1 3.5s1-1.575 1-3.5-.45-3.5-1-3.5-1 1.575-1 3.5m-61.334-1.073c-.301.785.101 1.965.893 2.622 1.192.989 1.441.743 1.441-1.427 0-2.81-1.432-3.544-2.334-1.195M113.5 67c.34.55.816 1 1.059 1s.441-.45.441-1-.477-1-1.059-1-.781.45-.441 1M55 139.5V201h18V78H55zm79 14.698a32821 32821 0 0 1-42.375 35.961l-12.875 10.89 55.453-.274 55.454-.275 3.681-2.808c6.526-4.979 7.662-8.625 7.662-24.6v-13.987l-17.547-14.602c-9.651-8.031-18.088-14.776-18.75-14.989S150.225 140.409 134 154.198"/></svg>