<svg xmlns="http://www.w3.org/2000/svg" width="256" height="256"><path fill-opacity=".016" d="M0 128.004v128.004l128.25-.254 128.25-.254.254-127.75L257.008 0H0v128.004m.485.496c0 70.4.119 99.053.265 63.672.146-35.38.146-92.98 0-128C.604 29.153.485 58.1.485 128.5" fill="#1976D2" fill-rule="evenodd"/><path fill-opacity=".203" d="M112.955 16.099c-15.68 2.028-36.803 10.335-49.723 19.555C24.083 63.59 6.456 113.08 19.478 158.5c9.078 31.665 30.304 56.806 60.022 71.097 36.698 17.646 78.289 14.454 112.634-8.647 8.18-5.501 23.315-20.636 28.816-28.816 8.738-12.991 15.106-28.295 18.158-43.634 1.798-9.04 1.798-31.96 0-41-7.195-36.166-29.633-65.232-62.608-81.101-20.198-9.72-41.425-13.16-63.545-10.3M101.479 147.25C99.623 152.32 97 160.462 97 161.157c0 1.688 1.781.789 2.29-1.157.4-1.532 1.364-2 4.116-2 2.463 0 3.594.454 3.594 1.441 0 1.533 1.802 3.09 2.625 2.268.27-.271-.548-3.911-1.817-8.091-1.746-5.747-2.742-7.602-4.089-7.609-.98-.005-1.988.554-2.24 1.241m10.521-.108c0 .628.919 4.228 2.042 8 2.361 7.928 4.337 8.876 5.958 2.858 1.344-4.993 2.382-5.069 3.574-.261 1.592 6.427 3.674 5.259 6.614-3.708 2.077-6.334 2.335-8.031 1.222-8.031-.775 0-1.41.593-1.41 1.318 0 2.744-3.131 11.719-3.918 11.233-.453-.28-1.424-3.218-2.159-6.53-.856-3.86-1.838-6.021-2.736-6.021-.892 0-1.171.601-.767 1.653.55 1.432.073 3.825-2.063 10.347-.437 1.333-.581 1.333-1.296 0-.442-.825-1.356-3.863-2.032-6.75-.676-2.887-1.634-5.25-2.129-5.25-.495 0-.9.514-.9 1.142M136 154v8h4.441c2.443 0 4.719-.45 5.059-1 .366-.593-.784-1-2.824-1-2.568 0-3.572-.494-3.951-1.942-.633-2.422-.021-3.058 2.942-3.058 1.283 0 2.333-.45 2.333-1s-1.125-1-2.5-1c-2 0-2.5-.5-2.5-2.5 0-2.19.433-2.5 3.5-2.5 1.925 0 3.5-.45 3.5-1s-2.25-1-5-1h-5v8m12-7c0 .55.9 1 2 1 1.81 0 2 .667 2 7 0 4 .429 7 1 7s1-3 1-7c0-6.8.071-7 2.5-7 1.375 0 2.5-.45 2.5-1s-2.475-1-5.5-1-5.5.45-5.5 1m-45.963 4.402c-1.52 3.999-1.315 4.598 1.571 4.598 2.344 0 2.54-.279 1.93-2.75-1.045-4.231-2.336-4.912-3.501-1.848M79.55 171.25c-1.074 3.471-1.516 14.75-.578 14.75.565 0 1.073-1.463 1.128-3.25.131-4.269 1.333-8.492 2.061-7.24.317.545 1.12 2.678 1.785 4.74.665 2.063 1.849 3.75 2.632 3.75.782 0 1.422-.395 1.422-.878s.749-2.62 1.664-4.75c1.621-3.774 1.682-3.809 2.4-1.372.405 1.375.781 3.963.836 5.75.055 1.787.611 3.25 1.236 3.25.776 0 .934-1.47.5-4.64-.35-2.551-.636-6.184-.636-8.073 0-4.87-2.769-4.007-4.933 1.537-.929 2.378-2.111 4.331-2.628 4.34-.516.009-1.581-2.049-2.365-4.574-1.35-4.347-3.68-6.067-4.524-3.34m21.403 5.446c-1.235 3.742-2.453 7.367-2.706 8.054-.254.688.007 1.25.579 1.25.571 0 1.325-.9 1.674-2 .467-1.47 1.513-2 3.951-2 2.475 0 3.448.507 3.839 2 .499 1.907 2.71 2.882 2.71 1.195 0-.443-1.054-3.931-2.342-7.75-3.148-9.337-4.817-9.499-7.705-.749M115 178c0 4.667.417 8 1 8 .55 0 1-1.8 1-4s.344-4 .764-4c.42 0 1.876 1.8 3.236 4 1.412 2.284 3.249 4 4.283 4 1.513 0 1.281-.66-1.414-4.013l-3.225-4.014 1.992-2.736c3.256-4.473 3.574-5.238 2.173-5.225-.72.007-2.326 1.582-3.568 3.5-2.871 4.432-4.241 4.428-4.241-.012 0-1.925-.45-3.5-1-3.5-.583 0-1 3.333-1 8m14.991-5.25c-.004 1.512-.292 5.113-.639 8-.436 3.63-.279 5.25.509 5.25.698 0 1.139-1.911 1.139-4.941 0-6.392 1.452-7.203 3.247-1.815 1.965 5.895 4.142 6.009 5.74.302.7-2.5 1.602-4.546 2.004-4.546.402 0 1.004 2.311 1.339 5.136.586 4.95 1.205 6.662 2.089 5.778.23-.23.118-3.787-.25-7.905-.504-5.634-1.056-7.56-2.232-7.785-1.09-.208-2.005 1.126-3.026 4.414-.805 2.592-1.927 4.867-2.494 5.056-.566.189-1.608-1.915-2.316-4.675-.979-3.822-1.741-5.019-3.193-5.019-1.413 0-1.91.714-1.917 2.75M150 176.8c0 7.684.928 9.2 5.629 9.2 4.953 0 6.371-2.131 6.371-9.571 0-5.112-.314-6.429-1.534-6.429-1.258 0-1.418.878-.89 4.86.724 5.462-.648 9.14-3.411 9.14-3.044 0-4.165-2.206-4.165-8.2 0-3.2-.448-5.8-1-5.8-.569 0-1 2.933-1 6.8m17 1.2c0 4.667.417 8 1 8 .55 0 1-1.125 1-2.5 0-1.761.544-2.5 1.839-2.5 1.012 0 2.353 1.125 2.979 2.5.627 1.375 1.849 2.5 2.717 2.5 1.395 0 1.374-.346-.188-2.99-1.382-2.339-1.503-3.254-.557-4.2.666-.666 1.21-2.454 1.21-3.975 0-3.189-2.361-4.835-6.934-4.835H167v8m2-2.5c0 2.812.386 3.5 1.965 3.5 2.653 0 4.594-3.622 2.982-5.564-.656-.79-2.037-1.436-3.069-1.436-1.48 0-1.878.743-1.878 3.5m-65.876.573c-1.447 4.152-1.527 3.927 1.395 3.927 2.239 0 2.447-.306 1.871-2.75-1.015-4.306-2.045-4.677-3.266-1.177" fill="#1976D2" fill-rule="evenodd"/><path fill-opacity=".425" d="M110.5 19.075c-16.056 2.7-35.639 11.111-48.572 20.862-8.152 6.147-19.333 17.824-24.862 25.966-6.326 9.316-12.764 23.444-15.763 34.597-2.436 9.057-2.69 11.65-2.69 27.5s.254 18.443 2.69 27.5c5.039 18.738 14.414 35.202 28.039 49.243C70.418 226.462 97.707 238 128 238c30.526 0 57.903-11.66 79.032-33.661 20.778-21.635 30.84-46.343 30.933-75.958.096-30.494-11.417-57.937-33.124-78.959-16.631-16.106-35.977-26.146-57.722-29.954-8.955-1.568-28.391-1.777-36.619-.393m57 54.959c-3.3.453-19.275 2.425-35.5 4.382-16.225 1.956-30.903 3.798-32.619 4.091-2.662.456-3.871-.142-8.261-4.089-2.828-2.543-5.732-4.397-6.453-4.12-.721.276-6.484 7.41-12.807 15.852-16.879 22.537-21.515 29.276-19.293 28.048 1.063-.588 8.874-8.044 17.357-16.569l15.424-15.501 20.598 20.936L126.544 128h21.36l13.798-17.269c7.589-9.497 14.932-18.771 16.317-20.608l2.519-3.34 11.942 16.064c6.568 8.836 12.112 15.894 12.321 15.685.209-.209-4.723-10.426-10.961-22.706L182.5 73.5l-4.5-.145c-2.475-.081-7.2.225-10.5.679m-77 35.858c-3.964.602-4.003.651-4.305 5.358L85.89 120H97v-5.5c0-3.809-.384-5.456-1.25-5.358-.687.078-3.05.415-5.25.75m-14.25 1.831c-3.048.379-3.25.648-3.25 4.34V120h11v-4.5c0-4.909.279-4.773-7.75-3.777m94.75 3.67V120h8v-4c0-3.564-.264-4-2.418-4-1.33 0-3.13-.273-4-.607-1.302-.499-1.582.21-1.582 4m10 1.164v3.558l4.25-.308c3.785-.273 4.25-.581 4.25-2.807 0-3.117-1.118-3.965-5.25-3.985-3.06-.014-3.25.192-3.25 3.542m-10 9.06c0 4.299.155 4.575 2.25 4.013 1.238-.331 3.037-.609 4-.616 1.373-.011 1.75-.876 1.75-4.014v-4h-8v4.617m10-1.117v3.615l4.25-.308c3.987-.288 4.25-.492 4.25-3.307s-.263-3.019-4.25-3.307l-4.25-.308v3.615m-108 1.383c0 4.246 1.261 5.076 7.75 5.103 3.187.014 3.25-.073 3.25-4.486V122H73v3.883M86 127c0 4.972.018 5 3.25 5.014 1.787.007 4.263.285 5.5.616 2.138.573 2.25.323 2.25-5.013V122H86v5m12.802 27c-2.172 6.625-2.364 8-1.119 8 .827 0 1.74-.9 2.027-2 .376-1.435 1.364-2 3.5-2s3.125.565 3.5 2c.297 1.134 1.364 2 2.466 2 1.068 0 1.739-.338 1.49-.75-.248-.412-1.419-4.012-2.601-8-1.841-6.209-2.472-7.25-4.395-7.25-1.922 0-2.624 1.154-4.868 8m12.587-6.427c.332.864 1.379 4.483 2.327 8.04 1.434 5.38 2.051 6.42 3.67 6.178 1.197-.179 2.414-1.638 3.164-3.791l1.218-3.5 1.116 2.815c.614 1.548 1.116 3.236 1.116 3.75 0 .514.863.935 1.918.935 1.482 0 2.426-1.536 4.147-6.75 1.225-3.713 2.435-7.312 2.688-8 .254-.687-.176-1.25-.953-1.25-.849 0-2.239 2.5-3.475 6.25l-2.059 6.25-1.797-6.25c-1.964-6.831-4.438-8.475-4.514-3-.025 1.787-.605 4.562-1.29 6.166l-1.245 2.917-1.714-6.167c-1.189-4.277-2.205-6.166-3.317-6.166-1.047 0-1.394.546-1 1.573M136 154v8h5c3.778 0 5-.367 5-1.5 0-1.048-1.056-1.5-3.5-1.5-2.793 0-3.5-.39-3.5-1.934 0-1.318.805-2.034 2.531-2.25 1.392-.174 2.531-.766 2.531-1.316s-1.139-1.142-2.531-1.316c-1.726-.216-2.531-.932-2.531-2.25 0-1.544.707-1.934 3.5-1.934 1.925 0 3.5-.45 3.5-1s-2.25-1-5-1h-5v8m11-7c0 .55.849 1 1.886 1 1.463 0 2.035.988 2.546 4.395.362 2.417.365 5.567.005 7-.55 2.19-.318 2.605 1.455 2.605 1.943 0 2.108-.547 2.108-7 0-6.333.19-7 2-7 1.1 0 2-.45 2-1 0-.556-2.667-1-6-1s-6 .444-6 1m-44.683 4.97c-1.16 3.073-.839 4.03 1.35 4.03 1.442 0 1.786-3.738.526-5.722-.523-.822-1.135-.27-1.876 1.692m-23.848 25.517c-.392 4.182-.463 7.853-.157 8.158 1.403 1.403 2.688-1.18 2.688-5.404 0-5.175 1.101-4.8 2.957 1.009.659 2.063 1.803 3.75 2.543 3.75.74 0 1.884-1.687 2.543-3.75 1.912-5.983 2.957-6.142 2.957-.45 0 4.343.297 5.2 1.802 5.2 1.632 0 1.731-.636 1.051-6.75-.413-3.713-.773-7.312-.802-8-.028-.687-.915-1.25-1.971-1.25-1.427 0-2.366 1.346-3.663 5.25l-1.744 5.25-1.668-5c-1.204-3.611-2.245-5.085-3.746-5.308-1.898-.281-2.139.35-2.79 7.295m24.03-6.485c-.341.551-1.691 4.151-3 8-2.304 6.775-2.318 6.998-.439 6.998 1.067 0 1.94-.675 1.94-1.5 0-1.048 1.056-1.5 3.5-1.5s3.5.452 3.5 1.5c0 .825.88 1.5 1.956 1.5 1.855 0 1.882-.208.519-4.07-.789-2.238-1.912-5.838-2.494-8-.761-2.825-1.593-3.93-2.961-3.93-1.046 0-2.181.451-2.521 1.002M114 178c0 7.333.167 8 2 8 1.635 0 2-.667 2-3.65v-3.65l2.987 4.124c1.974 2.724 3.5 3.926 4.5 3.543 1.93-.741 2.014-.462-1.459-4.832l-2.973-3.741 2.473-3.241c2.816-3.692 3.03-4.553 1.132-4.553-.737 0-2.537 1.682-4 3.738l-2.66 3.738v-3.738c0-3.071-.357-3.738-2-3.738-1.833 0-2 .667-2 8m15.593-3.75c-1.175 9.432-1.182 11.75-.033 11.75.637 0 1.574-2.363 2.081-5.25l.922-5.25 1.552 4.5c.857 2.485 2.186 4.5 2.968 4.5.78 0 2.078-1.912 2.886-4.25.808-2.338 1.821-4.25 2.25-4.25.43 0 .781 2.25.781 5 0 3.778.367 5 1.5 5 1.671 0 1.858-2.378.846-10.801-.551-4.587-.909-5.26-2.66-5-1.437.214-2.507 1.751-3.691 5.301l-1.668 5-1.744-5.25c-1.27-3.824-2.248-5.25-3.602-5.25-1.437 0-1.979.965-2.388 4.25M149 176.309c0 7.766 1.449 10.091 6.289 10.091 5.567 0 6.711-1.623 6.711-9.522 0-5.447-.312-6.878-1.5-6.878-1.178 0-1.5 1.381-1.5 6.433 0 5.657-.253 6.513-2.101 7.099-3.292 1.045-4.396-1.006-4.071-7.566.27-5.455.119-5.966-1.766-5.966-1.865 0-2.062.604-2.062 6.309M166 178c0 7.358.162 8 2.019 8 1.654 0 1.906-.452 1.392-2.5-.929-3.699 2.141-3.268 4.131.581 1.059 2.048 2.101 2.886 3.107 2.5.833-.32 1.716-.581 1.963-.581.246 0-.544-1.341-1.755-2.98-2.069-2.798-2.101-3.093-.53-4.829 3.753-4.147.842-8.191-5.898-8.191H166v8m3.745-2.447c-.411 2.149-.152 2.505 1.634 2.25 2.87-.41 3.609-4.803.807-4.803-1.3 0-2.116.854-2.441 2.553m-66.596 1.448c-.964 2.768-.867 2.999 1.264 2.999 1.928 0 2.23-.416 1.829-2.515-.707-3.698-1.907-3.886-3.093-.484" fill="#1976D2" fill-rule="evenodd"/><path fill-opacity=".765" d="M118 18.682c-33.266 3.441-64.512 22.23-81.761 49.164-13.44 20.987-19.936 47.507-17.324 70.722 4.408 39.178 26.167 70.592 60.585 87.469 13.614 6.675 23.463 9.538 38.25 11.115 19.903 2.124 39.195-1.527 58.75-11.115 47.172-23.131 70.788-75.111 57.49-126.537-2.999-11.595-12.558-30.413-20.385-40.126-10.909-13.539-22.422-22.552-38.72-30.313-17.92-8.533-38.475-12.283-56.885-10.379m18.329 58.586-40.172 5.025-5.311-4.647C87.924 75.091 85.245 73 84.891 73c-1.531 0-36.545 47.68-35.661 48.563.263.263 8.566-7.375 18.452-16.973l17.974-17.452 20.913 20.931L127.482 129H147.779l16.361-20.528 16.36-20.527 2 2.391c1.1 1.315 6.275 8.126 11.5 15.136 12.058 16.177 11.891 15.97 12.449 15.412.477-.477-18.951-39.688-22.612-45.634-1.501-2.438-2.666-3.22-4.669-3.128-1.467.067-20.745 2.382-42.839 5.146M88.25 109.706c-2.012.387-2.25 1.022-2.25 5.994v5.562l3.75-.62c2.063-.341 4.763-.625 6-.631 2.059-.01 2.25-.477 2.25-5.511V109l-3.75.136c-2.062.075-4.763.331-6 .57m-8.25.967c-6.999 1.082-7 1.084-7 5.896v4.531l5.75-.3 5.75-.3v-4.917c0-5.128-.383-5.546-4.5-4.91m90 4.827v4.5h10v-3.883c0-4.168-1.287-5.074-7.25-5.103-2.595-.013-2.75.24-2.75 4.486m11 .309c0 3.659.27 4.099 2.75 4.475l2.75.416-2.75.15c-2.531.138-2.75.478-2.75 4.275 0 4.087.029 4.119 3.125 3.5 1.719-.344 3.719-.625 4.444-.625.976 0 1.32-1.956 1.32-7.5 0-5.544-.344-7.5-1.32-7.5-.725 0-2.725-.281-4.444-.625-3.089-.618-3.125-.579-3.125 3.434m-90.25 5.936-4.75.365v4.828c0 5.374.889 6.022 8.3 6.048l3.8.014-.3-5.671c-.328-6.201-.213-6.11-7.05-5.584M170 125.5c0 4.456.034 4.5 3.418 4.5 5.557 0 6.582-.795 6.582-5.107V121h-10v4.5m-97 .861v4.36l5.144.61c2.829.335 5.529.371 6 .08.471-.291.856-2.527.856-4.97V122H73v4.361m26.064 25.889c-1.281 3.988-2.543 7.813-2.804 8.5-.286.755.361 1.25 1.633 1.25 1.206 0 2.107-.641 2.107-1.5 0-1.003 1.003-1.5 3.031-1.5 1.772 0 3.271.623 3.607 1.5.851 2.216 4.644 1.976 3.958-.25-.297-.963-1.47-4.787-2.608-8.5-1.757-5.735-2.409-6.75-4.331-6.75-1.929 0-2.608 1.072-4.593 7.25m12.272-4.319c.345 1.724 1.342 5.594 2.216 8.601 1.344 4.622 1.954 5.468 3.94 5.468 1.833 0 2.51-.714 3.083-3.25l.734-3.25 1.348 3.25c.965 2.325 1.999 3.25 3.634 3.25 1.969 0 2.644-1.096 4.888-7.942 1.432-4.368 2.353-8.193 2.046-8.5-1.725-1.724-3.309.109-4.855 5.619-1.87 6.666-2.24 6.503-4.372-1.927-.831-3.285-1.545-4.25-3.145-4.25-1.663 0-1.956.454-1.49 2.311.319 1.271.079 4.083-.534 6.25l-1.114 3.939-1.688-6c-1.174-4.171-2.241-6.107-3.503-6.351-1.541-.299-1.72.121-1.188 2.782m24.283-2.217c-.34.341-.619 4.167-.619 8.503v7.883l5.512-.3c6.338-.345 7.84-2.147 2.177-2.614-2.943-.243-3.738-.698-3.491-2 .187-.989 1.452-1.817 3.061-2.002 3.838-.443 3.615-3.184-.259-3.184-4.53 0-3.885-2.706.75-3.145 7.891-.747 8.25-.455 8.25 6.715 0 5.763.207 6.43 2 6.43 1.795 0 2-.667 2-6.5s.205-6.5 2-6.5c1.323 0 2-.667 2-1.971 0-1.847-.717-1.97-11.381-1.952-6.259.01-11.659.297-12 .637m-32.549 4.954c-.038.643-.343 1.88-.677 2.75-.398 1.038-.055 1.582 1 1.582 1.778 0 1.874-.551.607-3.5-.473-1.1-.891-1.474-.93-.832M78.642 172.75c-.285 1.512-.803 5.338-1.152 8.5-.59 5.354-.491 5.75 1.438 5.75 1.824 0 2.08-.629 2.143-5.25l.07-5.25 1.921 4.325c2.269 5.113 4.703 5.303 6.349.497 1.766-5.157 2.589-4.994 2.589.511 0 4.61.23 5.167 2.136 5.167 1.966 0 2.085-.37 1.5-4.64-.35-2.551-.636-6.406-.636-8.566 0-3.669-.176-3.906-2.673-3.61-2.175.257-2.954 1.154-4.184 4.816l-1.51 4.5-1.492-4.75c-1.198-3.813-1.935-4.75-3.737-4.75-1.657 0-2.381.72-2.762 2.75m20.959 4.947C96.48 187.068 96.485 187 99 187c1.333 0 2-.667 2-2 0-1.569.667-2 3.094-2 2.252 0 3.235.544 3.616 2 .483 1.845 4.297 2.958 4.284 1.25-.003-.412-1.032-4.125-2.287-8.25-2.019-6.639-2.581-7.535-4.893-7.807-2.438-.286-2.785.214-5.213 7.504M114 178.5c0 7.745.172 8.5 1.94 8.5 1.513 0 2.007-.812 2.25-3.693l.31-3.694 2.5 3.668c2.246 3.295 2.907 3.646 6.5 3.444l4-.225.531-5 .531-5 1.377 4.25c1.757 5.422 4.4 5.719 6.215.699 1.049-2.9 1.414-3.221 1.995-1.75.391.991.742 3.071.781 4.624.053 2.135.497 2.74 1.82 2.48 1.492-.293 1.703-1.299 1.432-6.823-.425-8.663-.896-9.98-3.574-9.98-1.816 0-2.548.927-3.749 4.75l-1.492 4.75-1.51-4.5c-1.23-3.662-2.009-4.559-4.184-4.816-2.558-.303-2.678-.109-2.791 4.5-.065 2.649-.407 6.165-.76 7.815l-.641 2.998-2.88-3.776-2.881-3.777 2.659-3.722c2.652-3.712 2.654-3.723.48-4.062-1.198-.188-2.526.262-2.95 1-.425.737-1.464 2.24-2.309 3.34-1.478 1.924-1.538 1.876-1.568-1.25-.025-2.573-.449-3.25-2.032-3.25-1.843 0-2 .667-2 8.5m35-1.655c0 7.784 1.55 10.155 6.638 10.155 5.31 0 6.738-1.966 7.186-9.891.376-6.647.267-7.109-1.663-7.109-1.835 0-2.099.697-2.363 6.25-.282 5.921-.43 6.25-2.798 6.25s-2.516-.329-2.798-6.25c-.258-5.431-.553-6.25-2.25-6.25-1.746 0-1.952.722-1.952 6.845m17 1.655c0 7.833.157 8.5 2 8.5 1.556 0 2-.667 2-3 0-3.353 1.538-4.031 2.471-1.09.854 2.69 3.223 4.421 5.077 3.71 1.41-.541 1.39-.917-.197-3.602-1.385-2.346-1.507-3.262-.561-4.208 1.555-1.555 1.561-6.059.01-7.61-.66-.66-3.36-1.2-6-1.2H166v8.5m4-3c0 1.982.439 2.562 1.75 2.31.963-.186 1.75-1.225 1.75-2.31s-.787-2.124-1.75-2.31c-1.311-.252-1.75.328-1.75 2.31m-65.985.168c-.008.643-.288 1.88-.622 2.75-.398 1.038-.055 1.582 1 1.582.884 0 1.6-.562 1.592-1.25-.02-1.621-1.949-4.64-1.97-3.082m10.017 22.382c-.026 2.062.447 2.55 2.468 2.55s2.494-.489 2.47-2.55c-.028-2.277-.144-2.355-1.089-.73-1.024 1.759-1.104 1.759-2.438 0-1.288-1.7-1.381-1.652-1.411.73M122 199c0 1.65.477 3 1.059 3s.75-.5.372-1.112c-.378-.611-.067-1.504.691-1.984 1.14-.723 1.119-.879-.122-.904-1.333-.027-1.333-.138 0-1 1.282-.828 1.246-.972-.25-.985-1.281-.011-1.75.789-1.75 2.985m5.362-1.5c-.801 2.086.382 4.751 1.889 4.256 1.964-.645 2.217-5.756.284-5.756-.879 0-1.857.675-2.173 1.5M134 199c0 1.65.375 3 .833 3 .458 0 .751-1.012.651-2.25-.099-1.238.313-2.581.918-2.985.676-.452.426-.74-.652-.75-1.281-.011-1.75.789-1.75 2.985m5.015-.309c-.008 1.205.465 2.488 1.052 2.85 1.637 1.012 1.726.204.28-2.541-1.264-2.398-1.318-2.41-1.332-.309" fill="#1976D2" fill-rule="evenodd"/></svg>