<svg xmlns="http://www.w3.org/2000/svg" width="256" height="256"><path fill-opacity=".016" d="M0 128.004v128.004l128.25-.254 128.25-.254.254-127.75L257.008 0H0v128.004m.485.496c0 70.4.119 99.053.265 63.672.146-35.38.146-92.98 0-128C.604 29.153.485 58.1.485 128.5" fill="#1976D2" fill-rule="evenodd"/><path fill-opacity=".159" d="M106.655 11.597C61.251 19.8 24.296 54.795 12.866 100.411c-2.917 11.641-3.63 34.981-1.452 47.49 4.2 24.109 15.678 46.154 33.104 63.581C65.544 232.507 92.66 244.484 122 245.704c16.313.679 27.821-.695 40.928-4.887 36.825-11.775 64.842-39.22 77.155-75.577 8.213-24.252 7.797-54.227-1.083-77.968-14.727-39.375-49.654-68.621-90.446-75.735-10.862-1.894-31.246-1.865-41.899.06m4.845 3.442C53.07 24.133 11.321 75.238 14.319 134c3.35 65.638 62.303 115.217 127.277 107.039 73.437-9.243 118.882-84.076 93.01-153.155-13.146-35.1-42.276-60.943-79.532-70.56-10.803-2.788-32.896-3.947-43.574-2.285M125.931 31.5c-1.249 2.75-6.455 14.45-11.568 26-7.561 17.078-9.631 20.935-11.08 20.652-10.354-2.024-15.02-.611-24.783 7.502C68.819 93.699 63.852 97 61.427 97c-2.208 0-2.229.09-.729 3.096 1.332 2.67 1.391 4.719.426 14.878-1.691 17.812.804 26.352 8.928 30.553 1.76.91 2.948 2.323 2.948 3.506 0 1.09-4.05 11.074-9 22.187-4.95 11.113-9 20.559-9 20.992 0 .434 11.513.788 25.585.788h25.586l10.051 5.163c6.052 3.109 10.241 5.893 10.531 7 .625 2.392 1.464 2.321 3.076-.261.721-1.154 6.022-4.304 11.782-7L152.083 193h24.526c23.371 0 24.498-.087 23.941-1.842-.322-1.014-4.627-10.977-9.567-22.142-4.941-11.165-8.983-20.686-8.983-21.158 0-.472.493-.858 1.096-.858 2.439 0 6.866-4.289 9.038-8.757 2.1-4.318 2.309-6.131 2.336-20.243.016-8.525.379-16.193.806-17.04.586-1.16-.076-1.848-2.689-2.792-1.906-.69-5.631-3.179-8.277-5.532-15.543-13.824-21.575-16.444-31.208-13.555-.993.297-4.538-6.694-12.213-24.081-5.948-13.475-11.235-25.4-11.75-26.5-.828-1.769-1.198-1.423-3.208 3m.255 2.25c-.556 1.513-5.274 12.301-10.486 23.975-5.793 12.977-8.839 20.865-7.837 20.299.9-.509 5.687-10.393 10.637-21.963 4.95-11.571 9.274-21.043 9.61-21.05.335-.006 3.677 7.076 7.427 15.739 10.984 25.374 12.478 28.569 13.074 27.973.669-.67-19.797-47.723-20.757-47.723-.362 0-1.113 1.237-1.668 2.75M121.5 76.626c-1.1.216-4.475.887-7.5 1.49-3.025.602-9.017 2.914-13.316 5.135C83.019 92.382 72 109.861 72 128.752c0 7.516 2.421 20.069 5.008 25.965 2.4 5.47 7.904 13.456 8.865 12.862.411-.255 2.633.016 4.937.601 3.703.94 4.19 1.398 4.19 3.942 0 1.583.168 2.878.374 2.878.841 0 9.646-5.224 10.133-6.011.289-.468.099-1.114-.422-1.436-.521-.322-1.229-.128-1.575.431-1.185 1.917-3.46 1.014-5.013-1.99l-1.554-3.005-4.069 2.075c-2.237 1.142-4.293 1.851-4.568 1.576-.275-.275 1.35-1.444 3.612-2.598 3.522-1.797 4.044-2.469 3.641-4.692-.259-1.428-1.145-3.34-1.968-4.25-.824-.91-2.75-4.342-4.281-7.627-2.456-5.271-2.785-7.148-2.797-15.973-.012-9.196.245-10.545 3.196-16.774 5.608-11.839 16.212-20.418 28.723-23.236l5.014-1.129 1.233-5.931c1.892-9.096 2.003-8.825-3.179-7.804m8.502 3.129c.434 2.06 1.07 5.375 1.414 7.366.573 3.313.959 3.666 4.538 4.146 10.951 1.469 23.745 11.315 29.26 22.517 2.665 5.412 3.251 7.902 3.605 15.32.51 10.657-1.083 16.471-7.033 25.676-2.233 3.454-3.886 6.432-3.673 6.619.213.186 2.824 1.716 5.803 3.4l5.417 3.062 3.329-4.181c5.79-7.271 9.553-17.837 10.116-28.405.953-17.879-3.505-30.174-15.186-41.886-9.535-9.56-20.296-14.839-34.234-16.797l-4.143-.581.787 3.744m-16.598 4.495c.634 3.463.511 3.741-1.609 3.634-1.694-.086-1.837-.236-.545-.573.963-.252 1.75-.875 1.75-1.384 0-.51-.787-.934-1.75-.942-1.468-.013-1.513-.166-.279-.946 1.909-1.207.832-2.284-1.42-1.42-1.246.478-1.618 1.473-1.317 3.524.231 1.571.048 2.857-.407 2.857-.455 0-.827-.9-.827-2 0-1.313-.667-2-1.941-2-2.766 0-3.438 1.671-2.034 5.06 1.229 2.967 3.703 4.281 2.588 1.375-.462-1.205-.137-1.419 1.409-.928 1.105.351 3.617.107 5.582-.541 2.939-.97 3.478-1.56 3.034-3.323-.494-1.965-.43-1.998.772-.393 1.704 2.276 2.59 2.218 2.59-.168 0-2.704-1.036-5.082-2.214-5.082-.55 0-.707.762-.35 1.694.549 1.432.312 1.393-1.534-.25l-2.185-1.944.687 3.75m20.285-.5c-.591 2.984 1.385 5.94 3.215 4.809.603-.372 1.096-1.524 1.096-2.559 0-1.035.51-2.197 1.134-2.583.788-.487.992.274.667 2.485-.639 4.358.282 4.495 2.929.438 1.305-2.001 1.72-3.336 1-3.219-.676.11-2.497-.322-4.045-.961-4.23-1.743-5.398-1.433-5.996 1.59m10.485 2.564c-2.711 2.886-2.772 4.011-.174 3.186 1.397-.443 2-.18 2 .874 0 2.033 2.04 3.179 2.973 1.67.506-.819.938-.494 1.329 1.004.423 1.615 1.118 2.075 2.564 1.697 1.522-.398 1.842-.137 1.372 1.118-.535 1.43-.396 1.461 1.099.244 2.129-1.732 3.399-.699 1.683 1.369-.776.935-.858 1.524-.211 1.524.58 0 2.053-1.402 3.273-3.115l2.218-3.115-2.249.714c-2.005.636-2.169.459-1.517-1.635.708-2.271.667-2.291-1.23-.599-2.375 2.119-5.304 2.29-5.304.309 0-2.204 1.764-2.804 2.8-.952.63 1.125 1.145 1.291 1.621.521 1.697-2.747-2.765-4.315-5.343-1.878-1.092 1.032-1.121.857-.165-1 1.374-2.672-.302-3.129-1.833-.5-.871 1.496-1.024 1.351-1.05-1-.037-3.357-1.008-3.466-3.856-.436M126.158 88c0 1.375.227 1.938.504 1.25.278-.687.278-1.812 0-2.5-.277-.687-.504-.125-.504 1.25m-28.075.917c-1.054 1.054-2.235 1.616-2.624 1.25-.389-.367-.408.308-.042 1.5.559 1.821.339 2.082-1.376 1.633-2.497-.652-2.609.415-.31 2.955 1.68 1.857 1.651 1.876-1.005.666-3.269-1.489-4.275-.815-2.825 1.893.832 1.556.724 2.116-.501 2.586-2.355.904-3.092.693-1.4-.4 1.213-.784 1.069-.972-.75-.985-1.34-.009-2.25.592-2.25 1.485 0 .825-.949 2.449-2.109 3.609l-2.108 2.108 2.858 1.885c1.573 1.037 3.168 1.888 3.545 1.891.377.004 1.698-1.793 2.934-3.993 1.237-2.2 2.601-4 3.033-4 .431 0 .547-.619.256-1.377-.338-.88.427-1.616 2.12-2.041 2.296-.576 2.471-.877 1.317-2.267-1.17-1.41-1.06-1.518.912-.892 2.65.841 2.775.321.688-2.866-.9-1.372-1.156-2.618-.61-2.956.52-.321 1.705.576 2.635 1.994 2.053 3.135 3.207 2.509 1.4-.759-.71-1.285-1.176-2.898-1.037-3.586.359-1.769-.531-1.553-2.751.667m62.594 7.887c-3.635 4.017-.623 7.613 3.524 4.209 1.833-1.505 2.082-2.243 1.228-3.641-1.542-2.522-2.843-2.677-4.752-.568m.397 1.607c-.801.965-.839 1.616-.123 2.059 1.397.863 3.049-.237 3.049-2.029 0-1.836-1.415-1.851-2.926-.03m3.176 3.533c-2.519 2.101-2.975 3.548-.863 2.738.982-.377 1.235.046.868 1.452-.376 1.435.079 2.14 1.641 2.549 1.659.434 2.01 1.058 1.513 2.691-.563 1.851-.243 1.746 2.472-.811 3.982-3.75 3.946-4.884-.131-4.085l-3.25.637 2.295-1.846c1.262-1.015 1.979-2.162 1.592-2.549-.387-.386-1.271-.231-1.966.346-.967.802-1.137.565-.726-1.009.664-2.537-.494-2.575-3.445-.113m-77.176 1.933c-1.334.373-2.645 1.341-2.912 2.151-.425 1.283-.255 1.28 1.32-.02 1.678-1.386 1.75-1.315 1.018.992-.71 2.239-.623 2.347.88 1.1.918-.762 1.439-1.614 1.16-1.894-.28-.279.272-1.101 1.226-1.825 1.876-1.425 1.115-1.567-2.692-.504M80.2 110.2c-2.005 2.005-1.361 3.548 1.962 4.707 3.371 1.175 5.24.578 2.838-.907-.793-.49-1.122-1.212-.73-1.604.734-.733-.985-3.396-2.192-3.396-.373 0-1.218.54-1.878 1.2m.8 1.859c0 .582.45.781 1 .441s1-.816 1-1.059-.45-.441-1-.441-1 .477-1 1.059m90.25 1.277c-3.602 1.056-3.948 1.823-1.798 3.974.799.798 1.174 1.73.834 2.071-.341.34-.039.619.67.619 1.032 0 1.041.299.044 1.5-.975 1.175-.983 1.816-.036 2.956.664.801.918 1.926.563 2.5-.355.574.057 1.044.914 1.044s1.559.45 1.559 1-.579 1-1.287 1-1.355.9-1.438 2c-.18 2.391.363 2.505 2.368.5.825-.825 2.368-1.5 3.428-1.5 1.061 0 1.929-.498 1.929-1.107s-.675-.848-1.5-.531c-2.037.781-1.894-.342.25-1.97 1.653-1.255 1.646-1.33-.122-1.36-1.544-.026-1.656-.294-.639-1.519 1.71-2.06.533-4.5-2.208-4.576l-2.281-.064 2.25-.904c1.238-.498 2.25-1.369 2.25-1.937 0-.567-1.012-1.039-2.25-1.047-1.662-.012-1.892-.243-.878-.885 2.51-1.59.773-2.759-2.622-1.764M172 123c0 .55.9 1 2 1s2-.45 2-1-.9-1-2-1-2 .45-2 1m-38.75 2.745c-3.191 1.588-3.25 1.742-3.25 8.436 0 3.751.247 6.819.55 6.819.302 0 1.877-.687 3.5-1.526 2.839-1.468 2.95-1.788 2.95-8.5 0-3.836-.113-6.945-.25-6.91-.137.035-1.713.792-3.5 1.681m-57.25.933c0 .507.563 1.528 1.25 2.269 1 1.077 1 1.205 0 .641-.687-.388-1.25-.229-1.25.353s.787 1.073 1.75 1.089c1.667.029 1.667.079 0 1.05-.963.561-1.75 1.875-1.75 2.92s.787 2.359 1.75 2.92c.971.566 1.194 1.033.5 1.05-.687.016-1.25 1.155-1.25 2.53 0 1.892.548 2.528 2.25 2.616 1.693.087 1.817.229.5.573-.963.252-1.75.923-1.75 1.491 0 .572.782.736 1.75.368 1.403-.534 1.502-.417.5.593-1.636 1.648-1.589 2.859.111 2.859.891 0 1.206.815.911 2.359-.538 2.815 1.916 4.146 4.8 2.602 2.328-1.245 2.544-4.787.344-5.632-1.275-.489-1.324-.772-.25-1.453 1.026-.65.935-.849-.391-.861-1.368-.012-1.605-.615-1.146-2.911.418-2.091.036-3.439-1.375-4.85-1.76-1.76-1.795-2.057-.354-3 1.23-.805 1.329-1.331.428-2.272-.644-.674-.934-1.846-.643-2.604.331-.861-.168-1.389-1.328-1.408-1.74-.029-1.747-.095-.107-1.05 2.529-1.473 2.233-3.249-.314-1.886-1.532.82-2.434.798-3.5-.087-.79-.656-1.436-.777-1.436-.269m51 7.763c0 4.373.422 7.559 1 7.559.571 0 1-2.98 1-6.941 0-3.818-.45-7.219-1-7.559-.633-.391-1 2.156-1 6.941m-9 .559c0 4 .429 7 1 7s1-3 1-7-.429-7-1-7-1 3-1 7m4 0c0 5.556.31 7 1.5 7s1.5-1.444 1.5-7-.31-7-1.5-7-1.5 1.444-1.5 7m-44 0c0 .55.648 1 1.441 1s1.719-.45 2.059-1c.34-.55-.309-1-1.441-1-1.132 0-2.059.45-2.059 1m19.5.829c-3.938 1.825-7.578 5.086-5.872 5.26 7.041.72 12.319.468 14.572-.695 1.486-.767 4.186-1.414 6-1.438l3.3-.044-3.537-1.871c-5.592-2.957-9.916-3.319-14.463-1.212m48-.604c-1.65.587-3.888 1.676-4.973 2.421-1.818 1.248-1.677 1.354 1.8 1.354 2.075 0 4.987.621 6.473 1.38 1.485.759 4.275 1.26 6.2 1.113 1.925-.147 4.807-.318 6.405-.38 2.894-.113 2.897-.121 1-2.251-3.906-4.383-10.698-5.845-16.905-3.637m25.88 3.227c-.306.799-.266 1.924.09 2.5.357.576.171 1.048-.411 1.048s-1.059.45-1.059 1 .675 1 1.5 1 1.5.48 1.5 1.067c0 .613-.853.797-2 .433-1.147-.364-2-.18-2 .433 0 .587.55 1.067 1.223 1.067.672 0 .22.702-1.004 1.559-1.786 1.251-2.023 1.939-1.199 3.478.827 1.545.733 1.805-.483 1.339-.983-.377-1.826.255-2.419 1.813-.5 1.316-1.632 2.992-2.514 3.725-2.09 1.735-2.066 3.477.037 2.67.902-.346 2.621.013 3.819.798 1.95 1.278 2.303 1.227 3.376-.491 1.033-1.654.851-2.077-1.319-3.065-1.384-.631-2.517-1.45-2.517-1.82 0-1.656 1.472-1.813 4.127-.44 3.089 1.597 4.023.273 1.123-1.592-1.524-.98-1.534-1.058-.073-.609 2.494.768 4.496-2.058 3.073-4.337-.965-1.545-.847-1.735.81-1.302 1.067.279 1.94.038 1.94-.536 0-.574-.787-1.254-1.75-1.511-1.485-.396-1.412-.576.489-1.187 1.231-.396 1.98-1.138 1.664-1.649-.317-.512-.031-1.586.633-2.387.947-1.14.939-1.781-.036-2.956-1.59-1.916-5.891-1.947-6.62-.048m1.163.479c-.317.512-.111 1.218.457 1.569.568.351.774 1.057.457 1.569-.316.512.153.931 1.043.931.89 0 1.359-.419 1.043-.931-.317-.512-.07-1.243.547-1.625.796-.492.728-.945-.233-1.554-1.761-1.115-2.606-1.105-3.314.041M78.5 141c-.34.55.309 1 1.441 1 1.132 0 2.059-.45 2.059-1s-.648-1-1.441-1-1.719.45-2.059 1m36.5 1.017c-1.35.857-.72 1.412 1.25 1.101.412-.065.75.332.75.882s1.125 1 2.5 1 2.5-.45 2.5-1-1.088-1-2.417-1c-1.329 0-2.566-.436-2.75-.968-.212-.616-.878-.622-1.833-.015m19.186.038c-2.667 1.069-2.042 2.945.98 2.945 1.41 0 1.869-.468 1.472-1.5-.316-.825-.139-1.5.393-1.5.533 0 .969.477.969 1.059s.498.751 1.107.375c.771-.477.696-.944-.25-1.544-1.618-1.025-1.714-1.021-4.671.165m-10.519 1.612c-1.151 1.15-.729 2.333.833 2.333.825 0 1.5-.675 1.5-1.5 0-1.562-1.183-1.984-2.333-.833m4.333.833c0 .825.885 1.5 1.969 1.5 1.339 0 1.784-.48 1.393-1.5-.317-.825-1.203-1.5-1.969-1.5s-1.393.675-1.393 1.5m-17.386 2.901c-1.86 3.919-2.086 6.009-.547 5.058.586-.363.849-.877.583-1.142-.266-.266.379-1.346 1.433-2.4 1.978-1.978 2.594-4.917 1.031-4.917-.487 0-1.612 1.531-2.5 3.401m29.421-2.651c.092 1.942 2.736 5.429 3.356 4.426.372-.602.103-2.013-.598-3.135-1.258-2.015-2.826-2.749-2.758-1.291m-25.489 2.82c-2.128 3.247-2.023 3.43 1.954 3.43 3.021 0 3.5-.326 3.5-2.383 0-3.426-3.46-4.09-5.454-1.047m21.146-1.833c-1.192.285-1.704 1.171-1.5 2.598.232 1.631 1.109 2.242 3.558 2.478 1.787.173 3.25-.115 3.25-.639 0-1.897-3.543-4.858-5.308-4.437m-14.054 2.763c-.415 1.084.11 1.5 1.893 1.5 1.528 0 2.469-.572 2.469-1.5 0-.825-.852-1.5-1.893-1.5s-2.152.675-2.469 1.5m6.04-.103c-.366.953.394 1.533 2.393 1.827 2.327.341 2.929.054 2.929-1.397 0-2.214-4.498-2.577-5.322-.43m15.865 2.534c-.317.512-.118 1.213.441 1.559.559.345 1.016-.074 1.016-.931 0-1.757-.6-2.015-1.457-.628m26.647.687c.89.89 2.119 1.309 2.73.931 1.628-1.006.3-2.549-2.193-2.549-1.986 0-2.028.127-.537 1.618M83 152.5c0 .825.395 1.5.878 1.5.482 0 1.437-.675 2.122-1.5 1.04-1.253.896-1.5-.878-1.5-1.22 0-2.122.638-2.122 1.5m97.751-.294c-.295.768 2.537 8.468 6.293 17.109 3.756 8.641 7.113 16.605 7.46 17.698.614 1.933.132 1.987-17.687 2.002-10.098.009-18.99.451-19.817.985-.994.642 5.811.975 20.174.985l21.674.015-6.051-13.75c-3.329-7.562-7.28-16.606-8.78-20.096-1.569-3.648-2.957-5.752-3.266-4.948m-67.251.816c-5.146 1.033-15.297 4.84-16.019 6.008-.306.496.359 2.697 1.479 4.891l2.035 3.989 5.252-2.445c2.889-1.345 6.014-2.45 6.944-2.455 2.175-.013 3.198-1.651 1.634-2.618-.664-.41-1.384-.216-1.599.431-.216.647-.982 1.177-1.703 1.177-1.031 0-1.094-.852-.295-4 .558-2.2 1.399-4 1.868-4 .966 0 4.425 6.101 4.11 7.25-.24.876 2.363.828 5.474-.1 1.89-.564 2.006-.885.873-2.423-1.226-1.662-1.357-1.631-2.09.5-.677 1.966-.838 1.753-1.189-1.577-.489-4.631.382-5.841 2.308-3.207 1.234 1.687 1.418 1.72 1.418.248 0-.93.45-1.691 1-1.691s1 1.719 1 3.821v3.82l7.606 1.183c4.184.65 10.274 2.26 13.533 3.576l5.926 2.394 2.037-3.994c1.121-2.197 1.894-4.12 1.718-4.274-1.736-1.521-10.006-4.829-15.039-6.015-6.659-1.571-21.606-1.829-28.281-.489M65.561 170.75c-4.285 9.762-8.013 18.313-8.283 19-.385.978 4.379 1.247 21.865 1.235 14.804-.01 21.85-.343 20.857-.985-.83-.537-9.872-.976-20.25-.985-10.564-.008-18.75-.412-18.75-.924 0-.499 3.15-8.029 7-16.733 3.85-8.703 7-16.395 7-17.091 0-3.737-2.411.474-9.439 16.483M130 154c0 .55.45 1 1 1s1 1.377 1 3.059c0 1.785.417 2.802 1 2.441.55-.34 1-1.716 1-3.059 0-1.343.45-2.441 1-2.441s1-.45 1-1-1.35-1-3-1-3 .45-3 1m8.63 2.25c-.331 1.238-.595 3.15-.585 4.25.018 1.882.097 1.896 1.356.237 1.26-1.659 1.434-1.63 2.977.5 1.522 2.102 1.622 2.121 1.405.263-.128-1.1.162-2.631.645-3.402.593-.947.28-1.838-.966-2.75-2.658-1.943-4.144-1.666-4.832.902m-54.32 1.384c-1.061 2.764 1.436 3.983 4.433 2.165 3.849-2.336 3.767-3.272-.305-3.482-2.363-.122-3.745.319-4.128 1.317m56.503-.951c.721.289 1.584.253 1.916-.079.332-.332-.258-.568-1.312-.525-1.165.048-1.402.285-.604.604M86 158c0 .55.477 1 1.059 1s.781-.45.441-1-.816-1-1.059-1-.441.45-.441 1m16.672-.25c-.984 1.652-.338 6.164.953 6.66 2.163.83 4.375-.443 4.375-2.517 0-1.262-.75-1.932-2.25-2.009-1.693-.087-1.817-.229-.5-.573.963-.252 1.75-.875 1.75-1.384 0-1.104-3.687-1.255-4.328-.177m46.812 3.322c-.632 2.876-.099 4.876 1.006 3.772.269-.27.775-1.92 1.125-3.667.83-4.154-1.219-4.256-2.131-.105m5.839 5.377c-1.348 2.826-1.965 3.278-3.418 2.5-2.139-1.144-2.905-1.197-2.904-.199.001.412 2.282 2.031 5.07 3.597 2.788 1.566 4.843 3.072 4.568 3.347-.62.621-11.639-5.89-11.639-6.877 0-.393-1.466-.103-3.257.646-1.792.749-6.141 1.884-9.665 2.523-7.484 1.357-17.015.107-23.186-3.041-4.562-2.327-4.995-2.378-4.275-.502.376.982-1.274 2.475-5.161 4.669-5.348 3.018-5.595 3.317-3.836 4.656 1.034.787 3.814 2.279 6.178 3.316 16.006 7.023 34.859 6.494 49.702-1.395 5.803-3.084 5.99-3.308 5.686-6.816-.302-3.483-.164-3.654 3.477-4.338l3.79-.711-3.976-2.407c-2.187-1.324-4.322-2.409-4.743-2.412-.422-.003-1.506 1.547-2.411 3.444M89 171.444c1.375 1.507 3.205 3.12 4.068 3.585 1.294.699 1.492.334 1.136-2.091-.237-1.616-.942-2.944-1.567-2.952-.626-.007-2.262-.299-3.637-.648l-2.5-.634 2.5 2.74m73.943-1.576c-2.056.508-2.448 1.08-2 2.916l.557 2.284 3.5-2.994c3.456-2.955 2.991-3.453-2.057-2.206m-56.782 4.679c-2.253 4.943-1.163 6.147 5.089 5.623.963-.08 1.75.523 1.75 1.342 0 2.112 2.987 1.857 3.063-.262.045-1.234.355-1.02 1.052.726.737 1.848 1.197 2.138 1.811 1.143.576-.932 1.03-1 1.508-.226.376.609 2.007 1.107 3.625 1.107 2.123 0 2.949-.487 2.971-1.75.029-1.667.079-1.667 1.05 0 1.184 2.032 3.547 2.313 4.212.5.328-.896.784-.946 1.606-.177 1.567 1.465 7.102.54 7.102-1.186 0-1.615 1.596-1.85 2.51-.371 1.027 1.661 2.707-.078 2.147-2.221-.479-1.831-.386-1.86 1.244-.385 2.569 2.325 3.211.893 1.349-3.012-1.565-3.281-4.051-4.927-2.896-1.917.375.976-.015 1.434-1.143 1.342-4.346-.355-5.211.172-5.211 3.177 0 3.636-1.719 3.968-2.589.5-.345-1.375-1.059-2.5-1.587-2.5-.527 0-.701 1.012-.386 2.25l.573 2.25-1.159-2.25c-1.422-2.764-2.852-2.919-2.852-.309 0 1.068-.468 2.23-1.04 2.584-.675.417-.827-.351-.432-2.191.561-2.612.493-2.693-.859-1.031-.822 1.011-1.623 1.334-1.823.736-.195-.587-2.041-1.284-4.101-1.547-3.061-.392-3.758-.161-3.815 1.264-.062 1.529-.163 1.509-.82-.167-1.008-2.571-5.011-3.077-6.742-.853-1.311 1.684-1.345 1.684-.759.001.588-1.686-1.068-4.737-2.571-4.737-.394 0-1.239 1.146-1.877 2.547m15.515 4.855c-.6 1.564.102 2.606 1.741 2.583.596-.009.408-.452-.417-.985-1.272-.822-1.225-.972.309-.985.995-.008 1.531-.465 1.191-1.015-.88-1.424-2.195-1.236-2.824.402" fill="#1976D2" fill-rule="evenodd"/><path fill-opacity=".133" d="M111.52 11.115C84.514 15.047 61.868 26.86 42.489 47.123 22.452 68.074 11.816 92.983 10.301 122.5c-1.706 33.242 10.503 64.54 34.574 88.634 35.269 35.302 86.609 44.512 132.742 23.814 23.291-10.45 46.881-34.04 57.331-57.331 20.698-46.133 11.488-97.473-23.814-132.742-18.823-18.805-41.426-30.114-67.634-33.84-8.29-1.179-23.6-1.141-31.98.08m-4.186 4.304c-37.613 7.148-71.081 34.34-85.033 69.088-6.78 16.886-7.671 21.938-7.671 43.493 0 21.555.891 26.607 7.671 43.493 10.395 25.89 33.938 49.963 59.84 61.188 18.367 7.959 42.463 11.215 61.929 8.369 50.342-7.361 89.619-46.638 96.98-96.98 1.814-12.403.748-32.348-2.364-44.24-5.573-21.299-15.143-37.702-31.114-53.33-15.209-14.882-31.41-24.071-52.242-29.631-10.119-2.7-37.121-3.516-47.996-1.45m10.956 41.809c-5.066 11.651-9.116 21.28-8.999 21.396.116.117 2.672-.426 5.678-1.206 3.007-.78 6.867-1.418 8.579-1.418h3.113l-3.309 15.25c-1.819 8.388-3.085 15.87-2.813 16.627.273.757.011 1.96-.581 2.674-.648.781-.798 2.783-.377 5.029.691 3.683.716 3.7 1.927 1.326 1.294-2.539 3.129-13.378 4.384-25.906.583-5.816.736-3.647.68 9.66-.067 16.064.373 19.728 2.159 17.943.402-.402.689-7.79.638-16.417-.09-15.151-.064-15.362.767-6.186.474 5.225 1.299 10.507 1.836 11.738.536 1.231.729 2.878.429 3.66-.547 1.425 2.108 7.602 3.268 7.602 1.143 0-.645-13.728-3.668-28.162C130.35 82.959 129 76.398 129 76.257c0-.763 6.331-.061 11.432 1.267 3.219.839 6.028 1.35 6.242 1.135.538-.537-17.801-42.664-18.562-42.638-.336.012-4.757 9.555-9.822 21.207M96.447 83.944c-18.892 12.344-27.708 30.635-25.281 52.45.483 4.342.691 8.083.461 8.312-1.039 1.039-7.558-6.109-8.207-8.998-.396-1.764-.908-2.666-1.138-2.003-.803 2.312 3.06 8.493 6.895 11.031 2.125 1.406 4.054 2.366 4.287 2.133.233-.233-.033-2.436-.592-4.896-1.747-7.694-1.255-20.75 1.059-28.123 3.923-12.499 13.632-24.067 25.684-30.604 3.237-1.756 5.206-3.205 4.377-3.219-.83-.015-4.225 1.748-7.545 3.917M151 80.436c0 .205 2.363 1.714 5.25 3.353 10.663 6.053 21.083 18.57 24.864 29.867 1.275 3.811 1.767 4.626 1.414 2.344-1.5-9.686-11.637-23.641-22.453-30.909C154.819 81.558 151 79.6 151 80.436m-33.93 2.014c-.054 1.517-.337 1.683-1.27.75-1.964-1.964-2.882-1.373-2.184 1.407.427 1.7.189 2.895-.683 3.434-2.171 1.342-3.215-.1-1.243-1.719 1.665-1.366 1.669-1.441.06-.935-.963.303-1.75.114-1.75-.418 0-.533.45-.969 1-.969s1-.408 1-.906c0-.499-.938-.661-2.085-.361-1.767.462-1.989 1.058-1.455 3.906.747 3.98-.103 4.43-1.488.788-1.293-3.401-4.595-2.92-4.19.61.155 1.35.991 3.132 1.857 3.959 1.42 1.356 1.501 1.258.824-.988-.634-2.102-.525-2.304.695-1.292 1.444 1.199 5.37.749 7.434-.852.601-.466 1.444-.513 1.874-.105.43.407.442-.384.025-1.759-.753-2.489-.747-2.492 1.376-.595 2.098 1.873 2.132 1.873 2.063 0-.039-1.048-.457-2.805-.93-3.905-.837-1.948-.861-1.949-.93-.05m17.391-.387c-.361.585.132 1.935 1.096 3 1.918 2.119.656 2.704-1.482.687-1.069-1.009-1.238-.961-.872.25.25.825 1.386 1.638 2.525 1.806 1.765.261 2.072-.22 2.072-3.25 0-3.494-1.861-4.884-3.339-2.493m5.655 3.243L140 89.112l2.415-2.806c2.535-2.946 2.655-4.439.193-2.395-1.156.959-1.533.838-1.908-.608-.258-.992-.52-.09-.584 2.003m3.81 1.797L141.7 90.23l2.15-.682c1.576-.501 2.15-.264 2.15.885 0 2.582 2.446 1.775 4.341-1.433.978-1.655 1.299-3 .716-3-.582 0-1.057.364-1.057.809 0 .445-.696 1.682-1.547 2.75-1.463 1.835-1.514 1.769-.942-1.214.84-4.372-.921-4.982-3.585-1.242M103.5 87c-.34.55.11 1 1 1s1.34-.45 1-1c-.34-.55-.79-1-1-1-.21 0-.66.45-1 1m-5.915 2.334c-1.983 1.838-2.26 2.596-1.301 3.57.963.981.621 1.091-1.647.53l-2.862-.707 1.744 2.662 1.744 2.662-2.77-1.054c-3.577-1.36-4.164-.67-2.105 2.472 1.846 2.817 1.527 3.119-1.377 1.306-1.466-.916-2.248-.938-3.099-.087-1.797 1.797-.008 3.545 2.947 2.878 2.568-.58 2.586-.552.641 1.009l-2 1.605 2-.342c1.256-.215 2.359-1.56 2.964-3.615.58-1.971 1.462-3.081 2.218-2.792 1.848.71 2.682-1.287 1.255-3.007-1.068-1.287-.877-1.352 1.414-.481 3.053 1.161 3.356.496.973-2.138-1.214-1.341-1.375-2.154-.582-2.947.792-.792 1.459-.509 2.416 1.024 1.773 2.839 3.246 2.722 1.667-.132-.684-1.237-1.13-2.812-.991-3.5.367-1.81-.405-1.552-3.249 1.084M151.2 89.2c-3.064 3.064 1.097 7.774 5.407 6.121 1.313-.504 1.486-.188.901 1.653-.451 1.421-.349 2.046.271 1.662.547-.337 1.228.281 1.514 1.375.321 1.231 1.365 1.989 2.736 1.989 1.948 0 2.056.211.892 1.75-1.127 1.489-1.115 1.563.077.5 2.028-1.808 3.219-1.534 2.172.5-1.152 2.241-.434 4.25 1.52 4.25.944 0 1.305.571.948 1.5-.873 2.275.734 1.797 3.362-1 2.478-2.638 2.283-2.835-2.484-2.506l-2.984.206 2.484-2.184c1.504-1.322 1.838-1.983.847-1.675-1.221.38-1.509.021-1.133-1.416.575-2.2-.675-2.509-2.732-.675-1.191 1.062-1.204.989-.088-.487 2.614-3.457-1.616-6.657-4.71-3.563-1.885 1.885-1.402-.317.55-2.504 1.694-1.899 1.673-1.938-.651-1.214-1.96.611-2.288.452-1.782-.867.918-2.391-1.062-1.961-2.389.52-.811 1.515-1.362 1.781-1.897.915-.415-.672-1.143-1.149-1.618-1.06-1.584.294-1.5-1.673.13-3.026 1.349-1.119 1.756-1.103 2.518.1.746 1.179.911 1.123.924-.314.017-2.018-2.973-2.362-4.785-.55M115 96c0 .55-.73 1-1.622 1-1.308 0-1.388.283-.414 1.456.664.801.964 1.851.666 2.334-.298.482.745.877 2.319.877 1.973 0 2.702-.414 2.349-1.334-.282-.733-.014-1.333.595-1.333S120 98.55 120 98s-.675-1-1.5-1-1.5-.45-1.5-1-.45-1-1-1-1 .45-1 1m22.798.395c-2.46 1.815-1.279 5.355 1.786 5.355 1.329 0 2.416-.357 2.416-.793 0-.436.273-1.505.607-2.375.39-1.016.062-1.582-.917-1.582-.838 0-1.673-.419-1.857-.93-.183-.512-1.099-.365-2.035.325M60 97.882c0 .55.45 1.278 1 1.618.55.34 1 .168 1-.382s-.45-1.278-1-1.618c-.55-.34-1-.168-1 .382m101.074.529c-.801.965-.839 1.616-.123 2.059 1.397.863 3.049-.237 3.049-2.029 0-1.836-1.415-1.851-2.926-.03m31.979 4.339c-.573 2.063-.992 5.325-.931 7.25.092 2.886.267 2.567.997-1.819.486-2.925 1.349-6.188 1.918-7.25.664-1.241.68-1.931.045-1.931-.543 0-1.457 1.688-2.029 3.75M106 101c0 .55-.765 1-1.7 1-1.256 0-1.407.293-.578 1.122.617.617.882 1.745.59 2.508-.375.976.166 1.309 1.828 1.128 2.97-.325 4.367-3.394 2.427-5.334C106.896 99.753 106 99.605 106 101m42 0c0 .55-.765 1-1.7 1-1.256 0-1.407.293-.578 1.122.617.617.882 1.745.59 2.508-.375.976.166 1.309 1.828 1.128 2.97-.325 4.367-3.394 2.427-5.334C148.896 99.753 148 99.605 148 101m-85.7 5c0 3.025.187 4.263.416 2.75.229-1.513.229-3.987 0-5.5s-.416-.275-.416 2.75m24.2-4c-.34.55-.168 1 .382 1s1.278-.45 1.618-1c.34-.55.168-1-.382-1s-1.278.45-1.618 1m-4.187 3.628c-.402 1.045.236 2.29 1.781 3.478 3.058 2.351 3.597 2.339 4.906-.106.726-1.356.737-2 .035-2-.569 0-1.035.45-1.035 1s-.498 1-1.107 1-.848-.675-.531-1.5c.316-.825.139-1.5-.393-1.5-.533 0-.969.477-.969 1.059s-.472.767-1.049.411c-.716-.443-.678-1.094.123-2.059.876-1.056.881-1.411.017-1.411-.635 0-1.435.733-1.778 1.628M100 107.992c0 .554-.723 1.008-1.607 1.008-1.055 0-1.398.544-1 1.582.334.87.607 1.939.607 2.375 0 .436 1.125.793 2.5.793s2.5-.357 2.5-.793c0-.436.23-1.394.512-2.127.281-.734-.394-1.9-1.5-2.591-1.189-.742-2.012-.843-2.012-.247m54 .008c0 .55-.675 1-1.5 1s-1.5.45-1.5 1 .498 1 1.107 1 .874.608.589 1.35c-.357.93.37 1.376 2.335 1.432 2.084.059 2.705-.305 2.304-1.351-.302-.788.033-1.431.747-1.431.777 0 .436-.801-.852-2-2.39-2.227-3.23-2.487-3.23-1m-74.002 3.003c-.867 1.621-.559 2.173 1.936 3.463 3.557 1.839 4.91 1.978 3.266.334-.66-.66-1.2-1.962-1.2-2.893 0-2.525-2.796-3.157-4.002-.904M81 112c0 .55.45 1 1 1s1-.45 1-1-.45-1-1-1-1 .45-1 1m89.25 2.031c-1.238.498-2.25 1.192-2.25 1.544 0 .351.739.356 1.641.009 1.373-.527 1.435-.38.378.893-.933 1.125-.955 1.523-.082 1.523.649 0 .873.498.497 1.107-.723 1.17 2.673.439 5.566-1.198 1.09-.616.707-.856-1.405-.879-2.841-.029-2.865-.074-1.095-2.03 2.014-2.226.787-2.592-3.25-.969M193 124c-.577 12.121-2.643 17.405-7.796 19.944-3.163 1.558-4.185 3.056-2.086 3.056.614 0 2.821-1.704 4.904-3.786 4.774-4.775 6.138-9.731 5.767-20.965l-.289-8.749-.5 10.5m-99.214-6.897c-.942 1.003-1.299 2.08-.793 2.393.506.312.709 1.116.452 1.786-.291.758.481 1.218 2.044 1.218 1.677 0 2.511-.554 2.511-1.667 0-.916.563-1.893 1.25-2.171.913-.368.875-.525-.14-.583-.764-.043-1.889-.691-2.5-1.439-.921-1.129-1.401-1.051-2.824.463m64 .032c-.942.986-1.299 2.048-.793 2.361.506.312.709 1.116.452 1.786-.288.752.466 1.218 1.975 1.218 2.982 0 3.95-3.286 1.646-5.591-1.421-1.422-1.724-1.401-3.28.226M61.158 119c0 1.375.227 1.938.504 1.25.278-.687.278-1.812 0-2.5-.277-.687-.504-.125-.504 1.25m109.747 2.615c-1.147 1.382-1.019 1.875.894 3.423 2.013 1.631 2.059 1.854.467 2.27-1.349.351-1.235.487.484.576 2.468.127 3.172 2.116.75 2.116-.825 0-1.5.439-1.5.975 0 .56 1.383.712 3.25.356 3.725-.709 4.854-1.331 2.417-1.331-1.953 0-2.224-1.573-.417-2.417.988-.461.979-.708-.042-1.18-.985-.456-1.018-.927-.138-1.988.635-.764.893-2.07.573-2.902-.767-2.001-5.047-1.936-6.738.102m12.253.385c0 1.375.227 1.938.504 1.25.278-.687.278-1.812 0-2.5-.277-.687-.504-.125-.504 1.25m-10.457-.368c-1.367 1.367-.673 2.503 1.339 2.188 1.121-.176 2.045-.77 2.052-1.32.017-1.217-2.418-1.84-3.391-.868m-47.075 1.571c.238.386-.745 1.319-2.185 2.074-2.476 1.297-2.627 1.818-2.78 9.548-.088 4.497.158 8.176.549 8.175.39 0 .84-3.676 1-8.17.197-5.54.702-8.306 1.571-8.593.705-.234 1.214-.045 1.132.419-.082.464-.097 4.332-.031 8.594L125 143l2.75-.015c1.512-.009 3.425-.461 4.25-1.004 1.065-.703.413-.825-2.25-.423l-3.75.565v-7.454c0-5.704.352-7.59 1.5-8.031.825-.316 1.5-.206 1.5.246 0 .914 8.882-3.035 8.954-3.982.076-.991-5.875-.839-6.496.165-.317.513-1.026.933-1.576.933s-.751-.402-.448-.894c.304-.491-.526-.829-1.845-.75-1.318.079-2.202.46-1.963.847m-64.34 4.297c.008 2.75.202 3.756.432 2.236.229-1.52.223-3.77-.014-5-.237-1.23-.425.014-.418 2.764M132 123.992c-.825.53-2.175.758-3 .508-.825-.25-2.153-.045-2.95.456-2.169 1.361 5.13.611 7.513-.772 1.066-.618 1.487-1.13.937-1.138-.55-.009-1.675.417-2.5.946m-13.971 1.969c-.809.512-1.211 1.191-.893 1.509.319.318 1.148-.108 1.844-.946 1.443-1.738 1.166-1.902-.951-.563M76 126.819c0 .584.498 1.371 1.107 1.747.771.477.696.944-.25 1.544-.877.555.057.824 2.643.759 2.2-.056 3.18-.313 2.178-.572-1.762-.456-1.762-.519 0-1.936 1.711-1.376 1.682-1.426-.476-.83-1.27.351-2.947.095-3.75-.571-.937-.777-1.452-.828-1.452-.141M168.3 132c0 3.025.187 4.262.416 2.75.229-1.512.229-3.988 0-5.5-.229-1.513-.416-.275-.416 2.75m-82.142-1c0 1.375.227 1.938.504 1.25.278-.687.278-1.812 0-2.5-.277-.687-.504-.125-.504 1.25m-9.445 1.621c-1.464 1.463-.639 4.268 1.45 4.931 1.916.608 1.973.792.5 1.617-1.934 1.082-2.256 4.837-.413 4.817 5.272-.057 7.753-3.72 4-5.906-1.098-.64-1.259-1.031-.43-1.05.79-.018 1.191-.932 1-2.28-.222-1.557-1.102-2.341-2.857-2.546-1.396-.163-2.859.025-3.25.417m.988 1.011c-1.406 1.406-.642 2.368 1.882 2.368 1.622 0 2.429-.465 2.167-1.25-.481-1.446-3.02-2.147-4.049-1.118m24.568.061c.973.254 2.323.237 3-.037.677-.274-.119-.481-1.769-.461-1.65.02-2.204.244-1.231.498m46.995.025c1.52.229 3.77.223 5-.014 1.23-.237-.014-.425-2.764-.418-2.75.008-3.756.202-2.236.432m-41.181.655c1.029.921 6.917 3.626 6.917 3.178 0-.576-5.544-3.551-6.617-3.551-.394 0-.529.168-.3.373m-15.646 3.877L89.5 141.5l3.25-2.937c3.029-2.738 3.71-3.563 2.937-3.563-.172 0-1.635 1.463-3.25 3.25m66.563-2.9c0 .231 1.18 1.193 2.623 2.139 1.443.945 2.318 1.224 1.944.62-.713-1.154-4.567-3.483-4.567-2.759m-71.805 3.15c.02 1.65.244 2.204.498 1.231.254-.973.237-2.323-.037-3-.274-.677-.481.119-.461 1.769m51.037-.75c-1.961 1.726-1.931 1.798 2.14 5.213 4.069 3.414 4.087 3.419 1.26.323l-2.868-3.142 3.368-.412 3.368-.412-3.372-.16c-2.877-.136-3.19-.38-2.128-1.66 1.692-2.039.67-1.894-1.768.25m33.475-.057c-.828 1.386-.502 6.307.418 6.307 1.622 0 .891 1.85-.875 2.215-1.233.255-.791.704 1.5 1.521 1.899.678 3.25.766 3.25.212 0-.521-.45-.948-1-.948s-1-.45-1-1 .702-1 1.559-1 1.281-.45.941-1c-.34-.55-1.416-1-2.392-1-1.222 0-1.722-.7-1.608-2.25.11-1.493.811-2.25 2.083-2.25 1.212 0 1.866.644 1.778 1.75-.076.963.293 1.75.82 1.75.527 0 .814-1.012.639-2.25-.226-1.588-1.101-2.34-2.976-2.557-1.46-.169-2.872.056-3.137.5m-58.665 4.721-3.458 4.086 3.947-3.5c2.171-1.925 4.094-3.567 4.275-3.65.18-.082-.04-.346-.489-.586-.45-.241-2.373 1.402-4.275 3.65M167 140.033c0 1.788-.282 2.085-1.153 1.214-.688-.688-1.797-.822-2.75-.332-.878.452-4.387.769-7.797.703-3.437-.065-5.819.263-5.344.738 1.093 1.093 8.044 1.589 8.044.574 0-.871 6.744-.519 7.663.4.844.844-4.246 10.983-6.568 13.084-1.788 1.618-2.122 1.624-5.097.085-4.62-2.389-4.575-1.363.051 1.171l3.911 2.142 3.851-5.767c3.805-5.698 7.064-14.503 5.827-15.74-.351-.351-.638.427-.638 1.728M78.5 141c-.351.567.49 1 1.941 1 1.407 0 2.559-.45 2.559-1s-.873-1-1.941-1-2.219.45-2.559 1m14.125 1.202c.317.514 1.207.693 1.976.398.77-.296 1.399-.139 1.399.348 0 1.286 8.023.442 9.364-.984.879-.935.683-.997-.864-.273-1.963.918-2.726.92-9.226.022-1.854-.256-2.981-.048-2.649.489M88 143c0 .55.423 1 .941 1s1.219-.45 1.559-1c.34-.55-.084-1-.941-1S88 142.45 88 143m-8.559 2.443c-1.84 1.368-1.796 1.428.848 1.161 1.534-.155 3.311-.804 3.95-1.443 1.754-1.754-2.386-1.511-4.798.282m10.05 1.057c.333 1.1 2.004 4.321 3.714 7.159 2.195 3.644 3.56 4.985 4.65 4.566 1.308-.501 1.322-.665.094-1.067-1.679-.549-3.519-2.89-6.757-8.593-1.269-2.236-2.034-3.165-1.701-2.065m-9.824 2.416c-.977 1.186-.679 1.305 1.833.736 2.367-.536 2.631-.455 1.25.384-3.605 2.191-1.016 6.403 3 4.881 2.565-.972 3.068-4.666.756-5.553-.822-.316-1.275-.929-1.007-1.363.87-1.408-4.629-.545-5.832.915m64.897-.623c.376.986.935 1.541 1.243 1.233.308-.307.001-1.114-.683-1.793-.988-.98-1.102-.865-.56.56m24.103.374c-1.55 1.55-.546 4.325 1.776 4.908 2.825.709 4.557-.089 4.557-2.099 0-2.236-4.785-4.358-6.333-2.809m.766 1.442c-.632 1.021 1.112 2.839 2.758 2.876 1.737.038 1.666-1.991-.102-2.938-1.402-.75-2.166-.732-2.656.062m-86.937 1.898c-.755 1.221 1.988 2.43 3.456 1.523.576-.357 1.048-1.071 1.048-1.589 0-1.261-3.718-1.207-4.504.066M107 153c0 .55.477 1 1.059 1s.781-.45.441-1-.816-1-1.059-1-.441.45-.441 1m13 3.5c0 1.925.45 3.5 1 3.5s1.014-.787 1.03-1.75c.029-1.667.079-1.667 1.05 0 1.641 2.817 2.92 2.024 2.92-1.809 0-2.269-.387-3.32-1.068-2.899-.588.363-.812 1.402-.498 2.309.365 1.056-.117.84-1.342-.601-2.592-3.049-3.092-2.847-3.092 1.25m10.8-2.3c.66.66 1.246 2.573 1.302 4.25l.102 3.05 1.043-3.25c.573-1.787 1.427-3.25 1.898-3.25.47 0 .855-.45.855-1s-1.44-1-3.2-1c-2.489 0-2.933.267-2 1.2m15.933-.076c.679.684 1.486.991 1.793.683.308-.308-.247-.867-1.233-1.243-1.425-.542-1.54-.428-.56.56m18.636 1.126c-.421 1.238-.676 2.588-.567 3 .109.412-.429.75-1.195.75s-1.652.675-1.969 1.5c-.316.825-.139 1.5.393 1.5.533 0 .969-.502.969-1.115 0-.685.951-.492 2.465.5 2.812 1.842 3.934 2.07 3.035.615-.34-.55-.029-1.015.691-1.033.733-.019.248-.917-1.101-2.04-3.026-2.519-1.568-4.788 1.888-2.939 1.206.646 2.422.946 2.701.667.452-.453-4.859-3.655-6.062-3.655-.265 0-.827 1.012-1.248 2.25m11.288 2.819c-3.283 5.84-12.951 16.572-15.721 17.451-1.065.338-1.936 1.086-1.936 1.662 0 .577 1.138.302 2.53-.61 2.524-1.654 2.528-1.651 1.864 1.135-1.76 7.384-8.024 12.76-21.394 18.361-4.125 1.728-8.998 4.27-10.829 5.648l-3.329 2.507-2.671-2.477c-1.469-1.362-7.868-4.969-14.22-8.017C98.934 187.963 92 182.192 92 177.955c0-1.969.164-1.949 4.75.594 2.612 1.448 3.85 1.956 2.75 1.128-11.219-8.441-13.389-10.345-13.01-11.415.241-.681-.091-1.131-.738-1s-2.993-2.546-5.214-5.949c-2.221-3.404-4.263-6.21-4.538-6.236-.377-.037-12.819 27.675-14.833 33.036-.187.497 8.214.887 19.115.887 17.449 0 19.693.191 21.833 1.862 1.312 1.025 3.51 2.209 4.885 2.632 4.679 1.44 17.493 8.276 19.331 10.314l1.832 2.029 2.027-2.027c1.114-1.114 6.365-4.042 11.668-6.507l9.642-4.48 24.25.129c13.338.071 24.25-.226 24.251-.661 0-.435-10.125-.662-22.5-.504-13.402.17-22.501-.09-22.501-.643 0-1.811 3.368-2.144 21.689-2.144 14.432 0 18.409-.276 18.002-1.25-1.484-3.545-14.94-34.278-15.082-34.445-.091-.107-1.419 2.037-2.952 4.764M103 155c-.825.533-1.05.969-.5.969s1.675-.436 2.5-.969c.825-.533 1.05-.969.5-.969s-1.675.436-2.5.969m9.05 1.367c-1.594 4.195-1.408 6.175.437 4.644.818-.679 2.168-.974 3-.654 2.017.774 1.898-.253-.443-3.805l-1.943-2.947-1.051 2.762m26.573.767c-.712 3.559.015 5.07 1.378 2.865.751-1.216.995-1.172 1.552.279.364.947 1.111 1.722 1.661 1.722s.762-.62.471-1.378c-.291-.758-.024-1.883.593-2.5 1.305-1.305.254-2.586-2.898-3.536-1.779-.536-2.222-.127-2.757 2.548m-54.067-.224c-.642 1.038.331 4.093 1.301 4.083.354-.003 1.993-.951 3.643-2.105 1.65-1.154 2.227-1.846 1.282-1.537-.945.309-1.984.131-2.309-.395-.75-1.213-3.179-1.242-3.917-.046m55.944.09c.34.55 1.041 1 1.559 1s.941-.45.941-1-.702-1-1.559-1-1.281.45-.941 1M86 158c0 .55.477 1 1.059 1s.781-.45.441-1-.816-1-1.059-1-.441.45-.441 1m16.667-.333C101.29 159.043 102.073 161 104 161c1.1 0 2 .48 2 1.067 0 .651-.875.79-2.242.356-1.982-.629-2.086-.523-.895.912 1.036 1.248 1.798 1.381 3.303.576 2.437-1.304 1.896-3.305-1.009-3.732-1.203-.177-1.941-.72-1.64-1.207.301-.486 1.281-.603 2.179-.258 1.091.418 1.392.238.909-.544-.793-1.284-2.89-1.552-3.938-.503m47.419 2.734c-.633 1.596-.966 3.396-.738 4 .227.605.932-.207 1.566-1.802.633-1.596.966-3.396.738-4-.227-.605-.932.207-1.566 1.802M165.5 160c.34.55 1.068 1 1.618 1s.722-.45.382-1c-.34-.55-1.068-1-1.618-1s-.722.45-.382 1m-46.687 2.683c.721.289 1.584.253 1.916-.079.332-.332-.258-.568-1.312-.525-1.165.048-1.402.285-.604.604m13.937-.021c.688.278 1.813.278 2.5 0 .688-.277.125-.504-1.25-.504s-1.937.227-1.25.504m-18.937 1.021c.721.289 1.584.253 1.916-.079.332-.332-.258-.568-1.312-.525-1.165.048-1.402.285-.604.604m25 0c.721.289 1.584.253 1.916-.079.332-.332-.258-.568-1.312-.525-1.165.048-1.402.285-.604.604m-32.64 2.189c-.889.563 1.491 1.758 7.193 3.613 10.917 3.551 21.968 3.329 30.634-.616 4.715-2.146 5.178-2.587 3.249-3.093-1.239-.324-2.029-.229-1.757.211.894 1.447-7.853 4.191-15.118 4.742-5.589.424-8.663.074-14.25-1.623-3.918-1.19-7.124-2.601-7.124-3.135 0-1.185-1.056-1.222-2.827-.099m-.043 9.741c-1.518 3.333-.362 4.726 3.824 4.607 1.675-.047 3.046.334 3.046.847 0 1.742 3 .944 3.07-.817.06-1.481.191-1.442.851.25.429 1.1 1.298 2.056 1.93 2.125.632.069 1.487.252 1.899.406 2.573.965 6.253.38 6.28-.997.025-1.245.223-1.204 1.05.216 1.058 1.816 3.92 2.433 3.92.845 0-.498 1.792-.664 3.982-.371 3.084.414 4.122.169 4.604-1.088.446-1.162 1.332-1.444 3.129-.993 2.271.57 2.438.405 1.783-1.757-.59-1.949-.483-2.157.59-1.136 2.976 2.835 4.086.073 1.33-3.309-1.35-1.657-1.501-1.685-1.031-.191.585 1.861-.848 2.431-1.887.75-1.283-2.077-2.542-.945-1.39 1.25 1.175 2.238 1.17 2.24-.964.345-2.142-1.901-2.146-1.899-2.146 1.143 0 4.267-2.855 5.237-3.654 1.242-.328-1.639-1.02-2.98-1.538-2.98-.519 0-.666 1.012-.328 2.25.531 1.942.465 2.01-.482.5-1.575-2.512-2.998-2.156-2.998.75 0 1.375-.502 2.5-1.117 2.5-.651 0-.917-1.041-.638-2.5.263-1.375.09-2.5-.384-2.5-.473 0-.868.563-.876 1.25-.012.945-.22.928-.853-.071-.461-.727-2.479-1.452-4.485-1.611-3.12-.248-3.656.016-3.71 1.821-.062 2.055-.088 2.052-.968-.139-.498-1.238-1.159-2.25-1.469-2.25-.31 0-.971 1.012-1.469 2.25-.852 2.121-.908 2.084-.968-.655-.058-2.694-.19-2.791-1.813-1.343-1.474 1.315-1.947 1.346-3 .197-1.822-1.989-1.53-2.925.413-1.321 1.425 1.176 1.592 1.158 1.167-.128-.843-2.55-3.411-2.215-4.7.613m15.25 3.839c-.694 1.808.431 3.783 1.705 2.995a1.106 1.106 0 0 0 .372-1.516c-.316-.512-.072-.931.543-.931s.84-.45.5-1c-.898-1.453-2.477-1.225-3.12.452M152 181c-3.025 1.598-5.148 2.927-4.717 2.953 1.063.064 10.717-4.863 10.717-5.47 0-.668.139-.726-6 2.517m-49 1.02c2.694 1.777 14.136 4.983 17.355 4.863 2.284-.085 1.722-.354-2.053-.984-2.859-.477-7.584-1.774-10.5-2.883-5.874-2.232-7.045-2.475-4.802-.996m38.5 2.98c-1.261.542-1.445.859-.5.859.825 0 2.4-.386 3.5-.859 1.261-.542 1.445-.859.5-.859-.825 0-2.4.386-3.5.859m-7.231 1.693c.973.254 2.323.237 3-.037.677-.274-.119-.481-1.769-.461-1.65.02-2.204.244-1.231.498m-7.456.99c.721.289 1.584.253 1.916-.079.332-.332-.258-.568-1.312-.525-1.165.048-1.402.285-.604.604m-59.563 5.064c6.462.174 17.037.174 23.5 0 6.463-.174 1.175-.317-11.75-.317s-18.213.143-11.75.317" fill="#1976D2" fill-rule="evenodd"/><path fill-opacity=".388" d="M118.5 10.64c-23.279 2.461-43.748 10.369-61.599 23.798C15.546 65.549-.242 120.679 18.188 169.616c28.598 75.935 124.416 100.336 186.417 47.473 42.984-36.649 53.377-100.494 24.299-149.271-16.772-28.136-45.106-48.269-77.235-54.878-9.083-1.869-26.091-3.048-33.169-2.3m-4.865 3.495c-46.473 5.968-85.189 40.034-96.689 85.076C2.961 153.987 30.42 210.119 82.5 233.214c30.362 13.465 66.21 12.438 96.5-2.763 32.07-16.094 54.024-44.838 61.605-80.655 2.377-11.229 2.377-32.363 0-43.592-10.529-49.746-49.569-86.025-99.105-92.095-10.229-1.254-17.957-1.247-27.865.026m13.509 23.89c-.538 1.361-4.618 10.76-9.067 20.886-4.448 10.126-7.903 18.596-7.676 18.823.226.226 2.141-.069 4.255-.656 5.4-1.499 20.858-1.317 27 .319l5.157 1.373-2.832-6.635c-14.424-33.8-15.833-36.653-16.837-34.11m1.993 42.475c-.081.831 2.217 21.699 3.358 30.5.178 1.375.77 3.625 1.315 5 .897 2.266 1.06 2.326 1.739.64.436-1.083-.725-9.224-2.782-19.5-1.943-9.702-3.576-17.19-3.63-16.64m-12.058 2.083c.048 1.165.285 1.402.604.605.289-.722.253-1.585-.079-1.917-.332-.332-.568.258-.525 1.312m17.327-.431c-.391.633.032 1.695.941 2.36 2.064 1.509 2.163 2.898.153 2.126-.825-.316-1.5-.139-1.5.393 0 1.353 2.73 1.214 3.594-.183.391-.633-.032-1.695-.941-2.36-2.088-1.527-2.154-2.894-.101-2.106.89.341 1.291.173.941-.393-.818-1.324-2.213-1.25-3.087.163m-20.64 2.705c.301 2.051-.071 3.046-1.317 3.524-.954.366-2.008.369-2.342.006-.334-.364-.044-.862.643-1.107.688-.246 1.25-.845 1.25-1.332 0-.487-.675-.626-1.5-.31-.825.317-1.5.111-1.5-.458 0-.568.684-1.246 1.52-1.505 1.04-.323.961-.412-.25-.282-1.247.133-1.688.909-1.491 2.627.153 1.34.667 2.826 1.142 3.301C111.146 90.546 115 88.26 115 86.31c0-1.43.235-1.408 2 .19 1.799 1.628 2 1.643 2 .155 0-.91-.689-1.655-1.531-1.655-.843 0-1.791-.675-2.107-1.5-.98-2.553-2.038-1.653-1.596 1.357m9.451 8.893c-1.255 6.463-2.517 14.675-2.804 18.25-.48 5.998-.41 6.307.905 4 1.837-3.222 5.974-34.001 4.57-34-.213 0-1.415 5.288-2.671 11.75m17.094-8.479c.056 2.449.367 3.268.888 2.338.441-.788.402-2.485-.086-3.771-.764-2.011-.876-1.81-.802 1.433M126.928 92.5c-.714 22.189-.456 27.972 1.136 25.397 1.029-1.666 1.024-25.142-.007-30.897-.701-3.91-.849-3.188-1.129 5.5m18.954-7.25c-.066.688-.054 1.621.024 2.074.079.454-.267.571-.768.261-.501-.309-1.476.117-2.166.949-1.053 1.269-.975 1.404.487.843 1.035-.397 2.102-.101 2.627.727.603.954.888.208.899-2.354.014-3.457-.831-5.372-1.103-2.5m-42.732.636c-1.119.71-1.084 1.346.21 3.735 1.114 2.055 1.571 2.368 1.6 1.094.032-1.448.403-1.591 1.959-.758 1.833.98 1.852.891.427-1.965-1.595-3.198-2.085-3.444-4.196-2.106m.393 1.045c-.683 1.105.894 2.299 1.818 1.375.95-.951.773-2.306-.302-2.306-.518 0-1.2.419-1.516.931m45.619 1.612c-1.675 3.677-1.355 4.462.456 1.119.846-1.562 1.351-3.026 1.123-3.255-.229-.228-.939.733-1.579 2.136m-50.603-.011C96.94 89.756 96.887 90 98.241 90c.894 0 1.91.9 2.259 2s1.08 2 1.624 2 .323-.952-.492-2.115c-.815-1.163-1.242-2.738-.95-3.5.663-1.726.322-1.702-2.123.147m52.411 1.524c-.93 1.737-.866 2.476.314 3.657 1.155 1.155 1.649 1.205 2.252.228.483-.78.365-.998-.312-.579-1.878 1.16-2.54-1.475-.806-3.208 1.458-1.458 1.778-1.476 2.694-.154.925 1.333.995 1.333.631 0-.645-2.368-3.494-2.335-4.773.056m-54.626 3.436c.636 1.371 1.797 2.496 2.58 2.5.984.006.697-.766-.924-2.492-2.924-3.112-3.096-3.113-1.656-.008m59.203.289c-1.368 1.904-1.47 2.33-.339 1.42 1.837-1.477 3.388-.019 2.179 2.049-.402.688.247.393 1.441-.655 2.249-1.972 2.923-3.177 1.172-2.095-1.749 1.081-3.227-.522-1.926-2.089.644-.776.778-1.397.298-1.38-.479.018-1.751 1.255-2.825 2.75M93 93.876c0 .448 1.005 1.671 2.233 2.719 1.368 1.167 1.758 1.288 1.008.313-.673-.876-.983-1.833-.689-2.126.294-.294-.16-.801-1.009-1.127-.849-.326-1.543-.226-1.543.221m-3 3.407c0 .734.682 2.208 1.514 3.276 1.049 1.343 1.434 1.479 1.25.441-.158-.9.436-1.444 1.486-1.361 2.505.199 2.174-.368-1.25-2.139-2.393-1.238-3-1.281-3-.217m24.411.04c-1.376 1.577-.388 4.177 1.589 4.177 2.065 0 2.962-2.681 1.415-4.228-1.531-1.531-1.624-1.53-3.004.051m23.148.244c-1.068.788-1.419 1.433-.782 1.433.638 0 .944.563.681 1.25-.299.779.396 1.25 1.845 1.25 1.605 0 2.286-.547 2.196-1.766-.211-2.865-1.806-3.742-3.94-2.167m22.452-.08c-2.024 2.438-.442 4.838 2.673 4.056 2.461-.618 2.556-.53 1.241 1.144-1.313 1.671-1.283 1.701.388.388 1.679-1.319 1.761-1.219 1.114 1.358-.647 2.58-.547 2.701 1.382 1.669 1.144-.612 2.396-1.673 2.782-2.357.555-.984.421-.983-.644.005-2.032 1.886-3.151 1.5-1.982-.684 1.411-2.637 1.305-3.107-.54-2.399-1.001.384-1.504.099-1.382-.781.565-4.044-2.467-5.489-5.032-2.399m.362.982c-.341.89-.318 1.919.051 2.289.846.846 4.144-1.167 3.879-2.367-.36-1.625-3.298-1.566-3.93.078M85.5 101c-1.085 1.755.542 3.028 3.061 2.395 2.635-.661 3.489 1.133.919 1.93-1.062.33-.987.423.25.31 3.058-.28 2.1-3.158-.98-2.947-2.802.192-3.766-1.111-1.5-2.026.901-.363.918-.526.059-.583-.655-.043-1.469.371-1.809.921m19.744.584c-1.679 1.797-.475 4.416 2.03 4.416 1.132 0 1.763-.296 1.401-.658-.362-.362-.234-1.168.283-1.791 1.459-1.758-2.133-3.66-3.714-1.967m42.017-.039c-1.689 1.837-.507 4.455 2.013 4.455 1.132 0 1.763-.296 1.401-.658-.362-.362-.156-1.262.456-2 .85-1.024.749-1.342-.425-1.342-.847 0-1.689-.406-1.873-.901-.183-.496-.891-.295-1.572.446m-64.654 4.037c-.868 2.261-.893 2.219 2.296 3.868 2.618 1.354 2.963 1.342 3.523-.118.342-.89.385-1.854.098-2.142-.288-.288-.524.002-.524.643 0 .642-.498 1.167-1.107 1.167s-.848-.675-.531-1.5c.316-.825.139-1.5-.393-1.5-.533 0-.969.45-.969 1s-.48 1-1.067 1c-.613 0-.797-.853-.433-2 .749-2.361-.011-2.717-.893-.418M166.5 108c-.34.55-.093 1 .548 1 .653 0 .899.697.558 1.584-.871 2.269 1.414 1.272 3.18-1.389 1.374-2.068 1.31-2.195-1.105-2.195-1.41 0-2.841.45-3.181 1m-67.017 1.387c-1.9 2.15-1.339 4.392 1.063 4.249 1.257-.075 2.103-.32 1.879-.544-.224-.224.016-.918.533-1.541 1.321-1.592-2.098-3.721-3.475-2.164m53.928-.064c-1.376 1.577-.388 4.177 1.589 4.177 2.065 0 2.962-2.681 1.415-4.228-1.531-1.531-1.624-1.53-3.004.051m-73.785 2.209c-.393 1.024.257 1.853 1.958 2.5 3.335 1.268 3.21 1.34 2.661-1.532-.536-2.802-3.664-3.457-4.619-.968M81 112c0 .55.45 1 1 1s1-.45 1-1-.45-1-1-1-1 .45-1 1m90.585 1.891c-1.907.748-3.179 4.109-1.556 4.109 1.195 0 2.143-1.74 1.227-2.251-.416-.232-.226-.297.421-.145.647.153 1.715-.371 2.372-1.163 1.295-1.561.543-1.728-2.464-.55m-77.19 3.531c-.59.631-.807 1.807-.484 2.613.876 2.18 3.775 2.272 4.334.138.612-2.344-2.292-4.419-3.85-2.751m64.605-.43c0 .554-.787 1.044-1.75 1.087-1.045.047-1.247.282-.5.583.688.278 1.25 1.046 1.25 1.709 0 .662.856 1.268 1.902 1.347 2.607.196 3.304-3.108.963-4.57-1.15-.719-1.865-.779-1.865-.156m12.559 1.54c-2.47 1.868-.846 1.847 2.441-.032 1.45-.829 1.87-1.431 1-1.433-.825-.002-2.374.657-3.441 1.465m.691 2.13c-1.775.717-1.551 4.009.322 4.727 1.652.634 5.428-.914 5.428-2.224 0-2.252-3.065-3.586-5.75-2.503m.196 1.425c-.369.598-.19 1.569.399 2.158 1.248 1.248 4.494-.888 3.585-2.358-.761-1.232-3.174-1.11-3.984.2M174 127c-1.667.534-1.917.834-.75.9.963.055 1.75.517 1.75 1.027 0 .509-.787 1.132-1.75 1.384-.963.251-.175.474 1.75.494 1.925.02 2.938-.19 2.25-.467-.687-.278-1.25-1.105-1.25-1.838 0-.733.563-1.56 1.25-1.838 1.988-.802-.497-.544-3.25.338m-96.915 1.603c.684.823.591 1.366-.293 1.721-.711.285.283.547 2.208.582 2.346.042 3.048-.223 2.13-.804-1.126-.714-1.079-1.031.268-1.785 1.241-.694.795-.917-1.836-.917-2.594 0-3.222.305-2.477 1.203m-.009 4.805c-1.355 1.633-.677 3.601 1.233 3.577.783-.01.719-.315-.187-.889C76.531 135.089 77.46 133 79.5 133c2.057 0 2.958 2.083 1.378 3.188-1.133.793-1.111.891.122.555.825-.225 1.5-1.272 1.5-2.326 0-2.406-3.694-3.093-5.424-1.009m94.415 4.842c-.554 1.551-.115 4.459.813 5.388 1.232 1.232.743 2.36-1.054 2.432-1.496.06-1.46.195.25.93 1.1.473 2.675.856 3.5.851 1.006-.006 1.088-.175.25-.513-1.845-.745-1.518-2.326.5-2.419 1.296-.06 1.101-.385-.75-1.25-3.079-1.44-3.439-5.169-.499-5.169 1.285 0 1.95.621 1.862 1.739-.075.957.262 1.493.75 1.191 1.433-.885 1.018-3.166-.695-3.823-2.51-.963-4.444-.711-4.927.643m-94.155 2.317c-.862 2.247.733 3.364 3.914 2.739 2.716-.532 3.681-2.613 1.761-3.799-.547-.338-.745.023-.443.81.335.871-.249 1.628-1.51 1.958-2.453.641-3.898-1.129-1.936-2.371 1.043-.661 1.067-.877.097-.889-.705-.008-1.552.69-1.883 1.552M82 145.622c0 1.329.271 1.398 1.5.378.825-.685 1.5-1.415 1.5-1.622 0-.208-.675-.378-1.5-.378s-1.5.73-1.5 1.622m-1.694 2.695c-.902 1.454.13 1.525 3.194.22l3-1.277-2.844.12c-1.564.066-3.072.487-3.35.937m88.694.67c-1.992 1.27-.151 4.386 2.857 4.833 2.939.437 4.064-2.673 1.614-4.465-2.186-1.598-2.501-1.624-4.471-.368m-83.109 1.219c1.558 2.076.675 3.794-1.95 3.794-2.142 0-2.467-.965-.945-2.804.548-.662.27-.57-.618.204-.888.775-1.31 1.901-.937 2.504.985 1.595 4.111 1.341 5.601-.454 1.068-1.288.971-1.838-.573-3.25-1.751-1.601-1.785-1.6-.578.006M169.5 150c-.923 1.494.361 3 2.559 3 2.212 0 2.49-1.051.741-2.8-1.462-1.462-2.482-1.524-3.3-.2m-49.5 6.326c0 2.021.408 3.674.906 3.674.499 0 .69-1.012.424-2.25l-.482-2.25 1.986 2.25c2.72 3.081 3.188 2.85 3.03-1.5-.091-2.509-.284-2.973-.582-1.403l-.447 2.347-2.417-2.271-2.418-2.272v3.675m11.921.424c.455 3.29.562 3.412.865 1 .219-1.736.968-2.776 2.03-2.82 1.364-.057 1.304-.234-.316-.93-3.07-1.319-3.133-1.252-2.579 2.75m33.921-2.026c-1.17 1.439-1.108 1.563.48.967 1.003-.376 2.69-.22 3.75.348 2.73 1.46 2.396.497-.48-1.387-2.204-1.444-2.523-1.438-3.75.072m10.382 4.533c-1.66 2.941-5.089 7.479-7.621 10.083-2.991 3.079-4.603 5.616-4.603 7.248 0 2.904-2.166 7.475-4.434 9.357-.861.715-1.566 1.582-1.566 1.927 0 .346 8.1.628 18 .628s18-.291 18-.646c0-.669-13.956-33.125-14.469-33.65-.159-.162-1.647 2.111-3.307 5.053m-101.52-1.163c-.799 1.873-3.985 9.178-7.079 16.234-3.094 7.055-5.624 13.13-5.624 13.5.001.369 8.101.672 18.001.672s17.999-.268 17.999-.595c-.001-.327-.947-1.451-2.103-2.498-2.494-2.256-4.898-6.65-4.898-8.95 0-.903-2.369-4.261-5.265-7.46-2.896-3.2-6.235-7.729-7.421-10.064l-2.156-4.246-1.454 3.407m36.914.066c-.771 3.853.026 5.107.937 1.476l.653-2.601 1.863 2.233c2.299 2.755 2.509 1.547.314-1.803-2.141-3.268-3.006-3.108-3.767.695M139 156.418c0 .78-.309 2.243-.687 3.25-.61 1.625-.493 1.674 1.031.434 1.487-1.211 1.883-1.175 2.937.262 1.051 1.431 1.253 1.176 1.468-1.852.224-3.146-.011-3.512-2.25-3.512-1.491 0-2.499.572-2.499 1.418m-54.559.678c-.373.603-.062 1.706.691 2.452 1.152 1.143 1.762 1.035 3.868-.682 1.375-1.122 1.969-1.768 1.319-1.436-.649.331-1.463.145-1.809-.414-.831-1.344-3.218-1.297-4.069.08M140.5 157c.34.55 1.041 1 1.559 1s.941-.45.941-1-.702-1-1.559-1-1.281.45-.941 1m-54.947.915a1.116 1.116 0 0 0 .362 1.532c.521.322 1.21.159 1.532-.362a1.116 1.116 0 0 0-.362-1.532 1.116 1.116 0 0 0-1.532.362m17.114-.248c-1.293 1.293-.637 2.395 2.083 3.498l2.75 1.116-2.5.811-2.5.811 2.5-.201c3.15-.254 3.339-3.083.235-3.523-1.245-.177-2.019-.72-1.718-1.207.301-.486 1.281-.603 2.179-.258 1.091.418 1.392.238.909-.544-.793-1.284-2.89-1.552-3.938-.503m62.333.382c3.469 2.354 5.444 3.039 3 1.04-1.375-1.124-2.95-2.048-3.5-2.051-.55-.004-.325.451.5 1.011m-14.889 3.062c-.616 1.767-.945 3.388-.731 3.602.214.214.893-1.057 1.509-2.824.616-1.767.945-3.388.731-3.602-.214-.214-.893 1.057-1.509 2.824m12.396-1.122c-.336.543.015.748.781.454.765-.294 1.969.161 2.674 1.011.706.851 1.738 1.546 2.295 1.546.557 0-.131-.9-1.53-2-2.894-2.276-3.368-2.39-4.22-1.011m-56.329 15.519c-1.547 3.397-1.542 3.418 1.072 4.409 1.349.511 2.746.453 3.488-.145.87-.701 1.422-.518 1.857.615.83 2.164 3.396 2.061 3.44-.137.027-1.336.374-1.158 1.465.75.786 1.375 1.445 1.868 1.465 1.095.027-1.082.49-.993 2.016.388 1.556 1.408 2.287 1.54 3.403.613 1.101-.913 1.538-.888 1.94.112.299.746.565.447.629-.708.108-1.954.144-1.956 1.548-.102 1.16 1.534 1.719 1.664 2.908.677.81-.672 1.26-1.976 1.001-2.898-.26-.922.061-.665.712.573 1.382 2.627 5.009 2.976 7.284.701.852-.852 2.301-1.414 3.22-1.25 2.185.391 2.598-3.774.542-5.466-1.292-1.064-1.413-.819-.874 1.765.345 1.65.365 2.387.045 1.637-.491-1.151-.733-1.151-1.554 0-.751 1.051-.847.969-.423-.355.303-.945.149-1.966-.341-2.269-.49-.303-1.033.92-1.206 2.718-.379 3.939-2.868 4.417-4.001.769-.701-2.257-.739-2.21-.39.481.36 2.777.291 2.849-1.019 1.059-.773-1.057-1.405-2.286-1.405-2.731 0-.445-.45-.809-1-.809s-1 1.125-1 2.5c0 2.551-1.365 3.337-2.527 1.456-.355-.574-.044-1.811.691-2.75 1.203-1.537 1.162-1.57-.414-.334-.963.755-1.75.937-1.75.404 0-.532-1.8-.968-4-.968-2.981 0-4.009.406-4.035 1.596-.024 1.082-.464.823-1.367-.805l-1.33-2.402-1.055 2.902-1.055 2.901-.112-3.5-.113-3.5-2.035 2.445-2.035 2.446.319-2.91c.422-3.859-2.379-4.539-4.004-.973m40.163-.25c.088 1.495.722 2.935 1.409 3.199 1.587.61 1.535-.314-.194-3.438l-1.373-2.48.158 2.719M108 175c0 .55.477 1 1.059 1s.781-.45.441-1-.816-1-1.059-1-.441.45-.441 1m-1.5 3c.34.55 1.041 1 1.559 1s.941-.45.941-1-.702-1-1.559-1-1.281.45-.941 1m14.68 2.172c.176 1.194.954 2.38 1.729 2.636.997.329 1.213-.047.739-1.283-.496-1.291-.276-1.596.841-1.168.831.319 1.511.192 1.511-.281 0-.883-2.385-2.076-4.151-2.076-.544 0-.844.977-.669 2.172" fill="#1976D2" fill-rule="evenodd"/></svg>